<?xml version="1.0" encoding="UTF-8"?><svg xmlns="http://www.w3.org/2000/svg" xmlns:xlink="http://www.w3.org/1999/xlink" viewBox="0 0 1374.56 1073.2"><defs><style>.cls-1{fill:#fff;}.cls-2{fill:59efb2;}.cls-3{isolation:isolate;}.cls-4{opacity:.4;}.cls-5{fill:url(#Dégradé_sans_nom_64-4);}.cls-5,.cls-6,.cls-7,.cls-8,.cls-9{mix-blend-mode:multiply;}.cls-10{fill:url(#Dégradé_sans_nom_59);}.cls-6{fill:url(#Dégradé_sans_nom_64-2);}.cls-7{opacity:.6;}.cls-11{mix-blend-mode:overlay;}.cls-12{fill:url(#Dégradé_sans_nom_59-2);}.cls-8{fill:url(#Dégradé_sans_nom_64);}.cls-9{fill:url(#Dégradé_sans_nom_64-3);}</style><linearGradient id="Dégradé_sans_nom_59" x1="1035.37" y1="-111.48" x2="110.26" y2="813.62" gradientTransform="matrix(1, 0, 0, 1, 0, 0)" gradientUnits="userSpaceOnUse"><stop offset="0" stop-color="#ef10ff"/><stop offset=".51" stop-color="#59efb2"/><stop offset=".55" stop-color="#770aff"/><stop offset=".63" stop-color="#6728ff"/><stop offset=".74" stop-color="#4e57ff"/><stop offset=".86" stop-color="#2b98ff"/><stop offset="1" stop-color="#59efb2"/></linearGradient><linearGradient id="Dégradé_sans_nom_59-2" x1="1335.4" y1="188.56" x2="410.3" y2="1113.66" xlink:href="#Dégradé_sans_nom_59"/><linearGradient id="Dégradé_sans_nom_64" x1="815.5" y1="356.4" x2="969.93" y2="635.01" gradientTransform="matrix(1, 0, 0, 1, 0, 0)" gradientUnits="userSpaceOnUse"><stop offset="0" stop-color="59efb2"/><stop offset=".35" stop-color="#1d4596" stop-opacity=".41"/><stop offset=".61" stop-color="#1c75bc" stop-opacity="0"/></linearGradient><linearGradient id="Dégradé_sans_nom_64-2" x1="475.7" y1="232.22" x2="313.82" y2="-37.19" xlink:href="#Dégradé_sans_nom_64"/><linearGradient id="Dégradé_sans_nom_64-3" x1="915.4" y1="854.52" x2="1062.18" y2="1102.36" xlink:href="#Dégradé_sans_nom_64"/><linearGradient id="Dégradé_sans_nom_64-4" x1="589.96" y1="664.51" x2="484.09" y2="464.8" xlink:href="#Dégradé_sans_nom_64"/></defs><g class="cls-3"><g id="Calque_1"><path class="cls-10" d="M672.13,905.25l186.4-107.64c10.01-5.73,19.96-12.28,29.68-19.52,76.95-57.01,121.06-144.99,121.06-241.44v-.11c0-89.8-38.23-172.26-105.56-229.18l-155.52,89.78,30.12,17.37c63.66,36.7,70.53,97.57,70.53,122.04,0,15.62-2.83,46.25-21.81,75.99-11.78,18.79-28.23,34.4-48.77,46.19l-75.73,43.67-219.03,126.44-111.61,64.49c-63.8,36.78-119.85,12.23-140.99-.03-21.18-12.29-70.47-48.77-70.47-122V301.9c0-25.39,6.01-48.73,17.87-69.36,16.21-28.76,39.97-45.36,52.67-52.68,12.31-7.17,38.09-19.32,70.94-19.32,24.15,0,47.69,6.5,69.94,19.33l94.84,54.8c6.34-4.2,12.73-8.15,19.12-11.81l140.69-81.25L452.1,40.94C405.07,13.81,353.51,0,301.54,0c-29.08,0-58.27,4.32-86.9,13.05-22.2,6.82-43.72,16.21-63.89,27.88C56.35,95.42,0,192.97,0,301.9v469.39c0,108.92,56.35,206.48,150.73,260.96,46.37,26.79,98.45,40.95,150.63,40.95,52.31-.1,104.46-14.27,150.75-40.96l220.03-126.99Z"/><path class="cls-12" d="M1073.2,1073.2c5.46,0,11.45-.16,18.29-.5,46.49-3,91.06-16.62,132.47-40.46,94.29-54.42,150.59-151.98,150.59-260.94V301.9c0-108.96-56.31-206.52-150.62-260.96-94.35-54.46-207.01-54.46-301.37,0l-220.04,127-186.4,107.64c-10.01,5.73-19.96,12.28-29.68,19.52-76.95,57.01-121.06,145-121.06,241.44,0,89.86,38.23,172.37,105.56,229.29l155.52-89.78-30.11-17.36c-63.67-36.84-70.53-97.7-70.53-122.15s6.87-85.34,70.54-122.04l75.78-43.69,219.03-126.44,111.61-64.49c22.29-12.84,45.78-19.35,69.86-19.35,32.95,0,58.73,12.15,71.17,19.4,21.1,12.24,70.31,48.69,70.31,121.97v469.39c0,73.28-49.2,109.73-70.36,122-4.99,2.92-10.4,5.61-15.98,7.93-24.01,10.22-72.01,22.67-124.98-7.89l-94.83-54.79c-6.34,4.2-12.73,8.14-19.11,11.81l-140.69,81.24,174.41,100.67c46.37,26.79,98.45,40.95,150.63,40.95Z"/><g><path class="cls-8" d="M848.84,536.68c0,15.62-2.83,46.25-21.81,75.99-1.23,1.96-2.54,3.86-3.87,5.75,51.76-.9,103.56-.32,155.35,.65,6.49,.11,12.98,.26,19.48,.38,7.41-26.43,11.28-54.17,11.28-82.66v-.11c0-89.8-38.23-172.26-105.56-229.18l-155.52,89.78,30.12,17.37c63.66,36.7,70.53,97.57,70.53,122.04Z"/><path class="cls-6" d="M452.1,40.94C405.07,13.81,353.51,0,301.54,0,281.51,0,261.42,2.12,241.51,6.26c-.49,24.39-2.09,48.69-4.51,72.93v97.38c13.73-7.08,36.7-16.04,64.91-16.04,24.15,0,47.69,6.5,69.94,19.33l94.84,54.8c6.34-4.2,12.73-8.15,19.12-11.81l140.69-81.25L452.1,40.94Z"/><path class="cls-9" d="M1187.34,982.71c-12.91-28.5-25.94-57.08-36.07-86.71-.69-2.01-1.36-4.03-2.03-6.05-1.95,1.26-3.79,2.38-5.44,3.33-4.99,2.92-10.4,5.61-15.98,7.93-24.01,10.22-72.01,22.67-124.98-7.89l-94.83-54.79c-6.34,4.2-12.73,8.14-19.11,11.81l-140.69,81.24,174.41,100.67c46.37,26.79,98.45,40.95,150.63,40.95,5.46,0,11.45-.16,18.29-.5,42.5-2.74,83.39-14.38,121.73-34.58-8.81-18.39-17.5-36.84-25.91-55.41Z"/><path class="cls-5" d="M525.83,536.54c0-24.47,6.87-85.34,70.54-122.04l38.22-22.04c-2.79-4.88-5.56-9.76-8.28-14.68-23.33-42.09-42.82-86.13-60.65-130.8l-49.52,28.59c-10.01,5.73-19.96,12.28-29.68,19.52-76.95,57.01-121.06,145-121.06,241.44,0,89.86,38.23,172.37,105.56,229.29l155.52-89.78-30.11-17.36c-63.67-36.84-70.53-97.7-70.53-122.15Z"/></g><g class="cls-11"><g><path class="cls-1" d="M150.75,65.34c20.17-11.67,41.69-21.06,63.89-27.88,28.62-8.73,57.82-13.05,86.9-13.05,51.97,0,103.53,13.81,150.56,40.94l149.27,86.15,25.15-9.91L452.09,40.94C405.07,13.81,353.51,0,301.54,0c-29.07,0-58.27,4.32-86.9,13.05-22.2,6.82-43.72,16.21-63.89,27.88C56.35,95.42,0,192.97,0,301.9v24.42C0,217.39,56.35,119.84,150.75,65.34Z"/><path class="cls-1" d="M371.88,893.31c-63.8,36.78-119.85,12.23-140.99-.03-21.19-12.29-70.47-48.77-70.47-122v24.42c0,73.23,49.28,109.71,70.47,122,21.14,12.26,77.19,36.81,140.99,.03l111.61-64.49,219.03-126.44,75.73-43.67c20.54-11.79,36.99-27.4,48.77-46.19,18.98-29.74,21.81-60.37,21.81-75.99,0-3.43-.14-7.59-.55-12.28-1.45,16.75-6.4,40.55-21.26,63.84-11.78,18.79-28.23,34.4-48.77,46.19l-75.73,43.67-219.03,126.44-111.61,64.49Z"/><path class="cls-1" d="M903.71,307.35l-155.52,89.78h0l155.52-65.36c64.27,54.34,102,131.96,105.3,217.01,.16-4.03,.26-8.07,.26-12.14v-.11c0-89.8-38.23-172.26-105.56-229.18Z"/></g><g><path class="cls-1" d="M526.38,548.74c-.4,4.66-.55,8.8-.55,12.21,0,24.45,6.87,85.3,70.53,122.15l5.37,3.1,24.75-10.15-30.11-17.37c-54.79-31.71-67.5-81.17-69.99-109.94Z"/><path class="cls-1" d="M1223.94,40.94c-94.35-54.46-207.01-54.46-301.36,0l-220.03,127-186.4,107.64c-10.01,5.73-19.96,12.28-29.68,19.52-76.95,57.01-121.05,144.99-121.05,241.44,0,4.1,.11,8.17,.26,12.23,3.55-91.65,47.09-174.67,120.79-229.26,9.72-7.24,19.68-13.79,29.68-19.52l186.4-107.64,220.03-127c94.35-54.46,207.01-54.46,301.36,0,94.31,54.44,150.62,152,150.62,260.96v-24.42c0-108.96-56.31-206.52-150.62-260.96Z"/><path class="cls-1" d="M907.97,862.95l94.83,54.79c52.97,30.56,100.98,18.11,124.98,7.89,5.58-2.31,11-5,15.98-7.93,21.16-12.27,70.36-48.72,70.36-122v-24.42c0,73.28-49.2,109.73-70.36,122-4.99,2.92-10.4,5.61-15.98,7.93-24.01,10.22-72.01,22.67-124.98-7.89l-94.83-54.79c-6.34,4.2-12.73,8.15-19.11,11.81l-140.7,81.24h0s153.47-64.43,159.81-68.63Z"/></g></g><g class="cls-7"><path class="cls-2" d="M466.7,209.99l-94.84-54.8c-22.26-12.83-45.79-19.33-69.94-19.33-32.85,0-58.62,12.15-70.94,19.33-12.71,7.32-36.46,23.92-52.67,52.68-11.86,20.64-17.87,43.97-17.87,69.36v24.42c0-25.39,6.01-48.73,17.87-69.36,16.21-28.76,39.97-45.36,52.67-52.68,12.31-7.17,38.09-19.33,70.94-19.33,24.15,0,47.69,6.5,69.94,19.33l94.84,54.8c6.34-4.2,12.73-8.15,19.12-11.8l140.7-81.25h0l-140.7,56.83c-6.39,3.66-12.78,7.61-19.12,11.8Z"/><path class="cls-2" d="M848.29,524.01c.4-4.63,.55-8.76,.55-12.14,0-24.47-15.56-87.04-79.22-123.74l-21.43,8.76h0l30.12,17.37c54.74,31.56,67.48,80.97,69.98,109.76Z"/><path class="cls-2" d="M888.21,753.42c-9.72,7.24-19.68,13.79-29.68,19.52l-186.4,107.64-220.03,126.99c-46.29,26.69-98.44,40.86-150.75,40.96-52.18,0-104.26-14.16-150.63-40.95C56.35,953.1,0,855.54,0,746.62v24.42c0,108.92,56.35,206.48,150.73,260.96,46.37,26.8,98.45,40.95,150.63,40.95,52.31-.1,104.46-14.26,150.75-40.96l220.03-126.99,186.4-107.64c10.01-5.73,19.96-12.28,29.68-19.52,76.95-57.01,121.06-144.99,121.06-241.44v-.11c0-4.08-.11-8.13-.26-12.17-3.54,91.67-47.08,174.7-120.79,229.31Z"/></g><g class="cls-4"><path class="cls-2" d="M470.96,741.16c-64.26-54.33-101.99-131.97-105.29-217.06-.16,4.05-.27,8.1-.27,12.18,0,89.86,38.23,172.37,105.56,229.29l155.52-89.78h0l-155.52,65.36Z"/><path class="cls-2" d="M1223.96,1007.56c-41.41,23.85-85.98,37.46-132.47,40.47-6.84,.34-12.83,.5-18.29,.5-52.18,0-104.26-14.16-150.63-40.95l-149.6-86.34-24.81,10.35,174.41,100.42c46.37,26.8,98.45,40.95,150.63,40.95,5.46,0,11.45-.16,18.29-.5,46.49-3,91.06-16.62,132.47-40.47,94.29-54.42,150.59-151.98,150.59-260.94v-24.42c0,108.96-56.31,206.52-150.59,260.94Z"/><path class="cls-2" d="M1002.78,179.62c22.29-12.84,45.78-19.34,69.86-19.34,32.95,0,58.73,12.15,71.17,19.4,21.1,12.24,70.31,48.69,70.31,121.97v-24.42c0-73.28-49.2-109.73-70.31-121.97-12.44-7.25-38.23-19.4-71.17-19.4-24.08,0-47.58,6.5-69.86,19.34l-111.61,64.49-219.03,126.44-75.78,43.69c-63.67,36.7-70.54,97.57-70.54,122.04,0,3.41,.14,7.55,.55,12.21,2.48-28.78,15.2-78.24,69.99-109.83l75.78-43.69,219.03-126.44,111.61-64.49Z"/></g></g></g></svg>