<svg width="150" height="126" viewBox="0 0 150 126" fill="none" xmlns="http://www.w3.org/2000/svg">
<g id="Group 37269">
<g id="Group 39844">
<rect id="Rectangle 84" x="39.8357" y="25.4577" width="71.4142" height="71.4141" rx="35.7071" fill="#27AE60"/>
<path id="Vector 7" d="M59.8677 61.47L70.1748 71.7771L91.2184 50.7334" stroke="white" stroke-width="5" stroke-linecap="round" stroke-linejoin="round"/>
<path id="Vector 11" d="M111.794 102.286C113.74 102.499 117.888 104.72 119.524 107.175C121.161 109.629 122.091 113.878 122.227 115.787" stroke="#27AE60" stroke-width="2" stroke-linecap="round" stroke-linejoin="round"/>
<path id="Vector 10" d="M34.0566 77.9419C31.8063 80.533 25.9147 85.1835 20.3503 83.056C13.3949 80.3967 13.5995 76.3053 15.8497 74.6687C18.1 73.0321 21.1686 75.6916 21.7823 77.9419C22.396 80.1921 21.3732 87.7613 15.8497 90.6253C10.3263 93.4893 2.96175 92.0573 1.12061 90.6253" stroke="#27AE60" stroke-width="2" stroke-linecap="round" stroke-linejoin="round"/>
<path id="Vector 12" d="M148.879 76.0409C146.629 78.6321 140.737 83.2826 135.173 81.1551C128.218 78.4957 128.422 74.4043 130.672 72.7677C132.923 71.1312 135.991 73.7907 136.605 76.0409C137.219 78.2912 136.196 85.8603 130.672 88.7243C125.149 91.5883 117.785 90.1563 115.943 88.7243" stroke="#27AE60" stroke-width="2" stroke-linecap="round" stroke-linejoin="round"/>
<path id="Vector 9" d="M122.738 5.52348C120.079 5.18249 114.514 6.75079 113.533 15.752C112.551 24.7532 104.668 26.5943 100.849 26.3898" stroke="#27AE60" stroke-width="2" stroke-linecap="round" stroke-linejoin="round"/>
<circle id="Ellipse 77" cx="22.4985" cy="42.6074" r="4.90967" fill="#27AE60"/>
<ellipse id="Ellipse 78" cx="52.187" cy="4.09128" rx="4.09128" ry="4.09128" fill="#27AE60"/>
<ellipse id="Ellipse 79" cx="64.6664" cy="11.8513" rx="2.44125" ry="2.44125" fill="#27AE60"/>
<circle id="Ellipse 80" cx="129.898" cy="58.1838" r="4.39824" fill="#27AE60"/>
<circle id="Ellipse 81" cx="38.4544" cy="108.099" r="4.39824" fill="#27AE60"/>
<circle id="Ellipse 82" cx="93.2801" cy="120.987" r="4.39824" fill="#27AE60"/>
<circle id="Ellipse 83" cx="79.6757" cy="116.589" r="2.44129" fill="#27AE60"/>
</g>
</g>
</svg>
