<svg width="116" height="28" viewBox="0 0 116 28" fill="none" xmlns="http://www.w3.org/2000/svg">
<path fill-rule="evenodd" clip-rule="evenodd" d="M0.250504 1.9652C0.132388 2.2327 0.0671387 2.56046 0.0671387 2.94172V25.0577C0.0671387 25.4398 0.132469 25.7676 0.250721 26.035L12.2846 13.9993L0.250504 1.9652ZM0.945724 26.7542C1.39178 26.9451 1.97365 26.8845 2.60814 26.5247L16.7652 18.4799L12.9918 14.7065L0.945724 26.7542ZM17.6677 17.9682L22.1091 15.4447C23.5061 14.6497 23.5061 13.3507 22.1091 12.5567L17.6657 10.0318L13.6988 13.9993L17.6677 17.9682ZM16.7639 9.51943L2.60814 1.47572C1.97361 1.11515 1.39171 1.05498 0.945642 1.24612L12.9917 13.2922L16.7639 9.51943Z" fill="black"/>
<path d="M37.223 3.72842C37.223 4.56642 36.975 5.23342 36.478 5.73142C35.914 6.32342 35.178 6.61942 34.274 6.61942C33.408 6.61942 32.671 6.31942 32.066 5.71942C31.46 5.11842 31.157 4.37442 31.157 3.48642C31.157 2.59742 31.46 1.85342 32.066 1.25342C32.671 0.652417 33.408 0.352418 34.274 0.352418C34.704 0.352418 35.115 0.436417 35.505 0.603417C35.896 0.771417 36.209 0.994417 36.443 1.27342L35.916 1.80142C35.519 1.32642 34.972 1.08942 34.273 1.08942C33.641 1.08942 33.095 1.31142 32.634 1.75542C32.173 2.19942 31.943 2.77642 31.943 3.48542C31.943 4.19442 32.173 4.77142 32.634 5.21542C33.095 5.65942 33.641 5.88142 34.273 5.88142C34.943 5.88142 35.502 5.65842 35.949 5.21142C36.239 4.92042 36.407 4.51542 36.452 3.99642H34.273V3.27542H37.18C37.21 3.43242 37.223 3.58342 37.223 3.72842Z" fill="black"/>
<path d="M41.8331 1.22247H39.1011V3.12447H41.5651V3.84547H39.1011V5.74747H41.8331V6.48547H38.3301V0.485474H41.8331V1.22247Z" fill="black"/>
<path d="M45.084 6.48547H44.313V1.22247H42.637V0.485474H46.76V1.22247H45.084V6.48547Z" fill="black"/>
<path d="M49.7429 6.48547V0.485474H50.5139V6.48547H49.7429Z" fill="black"/>
<path d="M53.9331 6.48547H53.1621V1.22247H51.4861V0.485474H55.6091V1.22247H53.9331V6.48547Z" fill="black"/>
<path d="M63.4139 5.71046C62.8239 6.31646 62.0909 6.61946 61.2139 6.61946C60.3369 6.61946 59.6039 6.31646 59.0149 5.71046C58.4249 5.10446 58.1309 4.36246 58.1309 3.48546C58.1309 2.60846 58.4249 1.86646 59.0149 1.26046C59.6039 0.654464 60.3369 0.350464 61.2139 0.350464C62.0859 0.350464 62.8179 0.655463 63.4099 1.26446C64.0019 1.87346 64.2979 2.61346 64.2979 3.48546C64.2979 4.36246 64.0029 5.10446 63.4139 5.71046ZM59.5839 5.20746C60.0279 5.65746 60.5709 5.88146 61.2139 5.88146C61.8569 5.88146 62.4009 5.65646 62.8439 5.20746C63.2879 4.75746 63.5109 4.18346 63.5109 3.48546C63.5109 2.78746 63.2879 2.21346 62.8439 1.76346C62.4009 1.31346 61.8569 1.08946 61.2139 1.08946C60.5709 1.08946 60.0279 1.31446 59.5839 1.76346C59.1409 2.21346 58.9179 2.78746 58.9179 3.48546C58.9179 4.18346 59.1409 4.75746 59.5839 5.20746Z" fill="black"/>
<path d="M65.3799 6.48547V0.485474H66.3179L69.2339 5.15247H69.2669L69.2339 3.99647V0.485474H70.0049V6.48547H69.1999L66.1489 1.59147H66.1159L66.1489 2.74747V6.48547H65.3799Z" fill="black"/>
<path d="M37.223 3.72842C37.223 4.56642 36.975 5.23342 36.478 5.73142C35.914 6.32342 35.178 6.61942 34.274 6.61942C33.408 6.61942 32.671 6.31942 32.066 5.71942C31.46 5.11842 31.157 4.37442 31.157 3.48642C31.157 2.59742 31.46 1.85342 32.066 1.25342C32.671 0.652417 33.408 0.352418 34.274 0.352418C34.704 0.352418 35.115 0.436417 35.505 0.603417C35.896 0.771417 36.209 0.994417 36.443 1.27342L35.916 1.80142C35.519 1.32642 34.972 1.08942 34.273 1.08942C33.641 1.08942 33.095 1.31142 32.634 1.75542C32.173 2.19942 31.943 2.77642 31.943 3.48542C31.943 4.19442 32.173 4.77142 32.634 5.21542C33.095 5.65942 33.641 5.88142 34.273 5.88142C34.943 5.88142 35.502 5.65842 35.949 5.21142C36.239 4.92042 36.407 4.51542 36.452 3.99642H34.273V3.27542H37.18C37.21 3.43242 37.223 3.58342 37.223 3.72842Z" stroke="black" stroke-width="0.2" stroke-miterlimit="10"/>
<path d="M41.8331 1.22247H39.1011V3.12447H41.5651V3.84547H39.1011V5.74747H41.8331V6.48547H38.3301V0.485474H41.8331V1.22247Z" stroke="black" stroke-width="0.2" stroke-miterlimit="10"/>
<path d="M45.084 6.48547H44.313V1.22247H42.637V0.485474H46.76V1.22247H45.084V6.48547Z" stroke="black" stroke-width="0.2" stroke-miterlimit="10"/>
<path d="M49.7429 6.48547V0.485474H50.5139V6.48547H49.7429Z" stroke="black" stroke-width="0.2" stroke-miterlimit="10"/>
<path d="M53.9331 6.48547H53.1621V1.22247H51.4861V0.485474H55.6091V1.22247H53.9331V6.48547Z" stroke="black" stroke-width="0.2" stroke-miterlimit="10"/>
<path d="M63.4139 5.71046C62.8239 6.31646 62.0909 6.61946 61.2139 6.61946C60.3369 6.61946 59.6039 6.31646 59.0149 5.71046C58.4249 5.10446 58.1309 4.36246 58.1309 3.48546C58.1309 2.60846 58.4249 1.86646 59.0149 1.26046C59.6039 0.654464 60.3369 0.350464 61.2139 0.350464C62.0859 0.350464 62.8179 0.655463 63.4099 1.26446C64.0019 1.87346 64.2979 2.61346 64.2979 3.48546C64.2979 4.36246 64.0029 5.10446 63.4139 5.71046ZM59.5839 5.20746C60.0279 5.65746 60.5709 5.88146 61.2139 5.88146C61.8569 5.88146 62.4009 5.65646 62.8439 5.20746C63.2879 4.75746 63.5109 4.18346 63.5109 3.48546C63.5109 2.78746 63.2879 2.21346 62.8439 1.76346C62.4009 1.31346 61.8569 1.08946 61.2139 1.08946C60.5709 1.08946 60.0279 1.31446 59.5839 1.76346C59.1409 2.21346 58.9179 2.78746 58.9179 3.48546C58.9179 4.18346 59.1409 4.75746 59.5839 5.20746Z" stroke="black" stroke-width="0.2" stroke-miterlimit="10"/>
<path d="M65.3799 6.48547V0.485474H66.3179L69.2339 5.15247H69.2669L69.2339 3.99647V0.485474H70.0049V6.48547H69.1999L66.1489 1.59147H66.1159L66.1489 2.74747V6.48547H65.3799Z" stroke="black" stroke-width="0.2" stroke-miterlimit="10"/>
<path d="M58.251 15.3235C55.899 15.3235 53.982 17.1125 53.982 19.5765C53.982 22.0255 55.899 23.8295 58.251 23.8295C60.604 23.8295 62.521 22.0255 62.521 19.5765C62.52 17.1125 60.603 15.3235 58.251 15.3235ZM58.251 22.1555C56.962 22.1555 55.851 21.0925 55.851 19.5775C55.851 18.0465 56.963 16.9995 58.251 16.9995C59.54 16.9995 60.651 18.0465 60.651 19.5775C60.651 21.0915 59.54 22.1555 58.251 22.1555ZM48.937 15.3235C46.585 15.3235 44.668 17.1125 44.668 19.5765C44.668 22.0255 46.585 23.8295 48.937 23.8295C51.29 23.8295 53.207 22.0255 53.207 19.5765C53.207 17.1125 51.29 15.3235 48.937 15.3235ZM48.937 22.1555C47.648 22.1555 46.537 21.0925 46.537 19.5775C46.537 18.0465 47.649 16.9995 48.937 16.9995C50.226 16.9995 51.337 18.0465 51.337 19.5775C51.338 21.0915 50.226 22.1555 48.937 22.1555ZM37.859 16.6295V18.4335H42.177C42.048 19.4485 41.71 20.1895 41.194 20.7045C40.566 21.3325 39.583 22.0255 37.859 22.0255C35.201 22.0255 33.123 19.8825 33.123 17.2245C33.123 14.5665 35.201 12.4235 37.859 12.4235C39.293 12.4235 40.34 12.9875 41.113 13.7125L42.386 12.4395C41.306 11.4085 39.873 10.6195 37.859 10.6195C34.218 10.6195 31.157 13.5835 31.157 17.2245C31.157 20.8655 34.218 23.8295 37.859 23.8295C39.824 23.8295 41.307 23.1845 42.466 21.9765C43.658 20.7845 44.029 19.1085 44.029 17.7555C44.029 17.3375 43.997 16.9505 43.932 16.6285H37.859V16.6295ZM83.167 18.0305C82.813 17.0805 81.733 15.3235 79.526 15.3235C77.335 15.3235 75.514 17.0475 75.514 19.5765C75.514 21.9605 77.319 23.8295 79.735 23.8295C81.684 23.8295 82.812 22.6375 83.28 21.9445L81.83 20.9775C81.347 21.6865 80.686 22.1535 79.735 22.1535C78.785 22.1535 78.108 21.7185 77.673 20.8645L83.36 18.5125L83.167 18.0305ZM77.367 19.4485C77.319 17.8045 78.64 16.9675 79.591 16.9675C80.332 16.9675 80.96 17.3385 81.17 17.8695L77.367 19.4485ZM72.744 23.5725H74.612V11.0715H72.744V23.5725ZM69.682 16.2745H69.618C69.199 15.7745 68.393 15.3235 67.379 15.3235C65.252 15.3235 63.303 17.1925 63.303 19.5935C63.303 21.9775 65.252 23.8305 67.379 23.8305C68.394 23.8305 69.199 23.3795 69.618 22.8645H69.682V23.4765C69.682 25.1035 68.812 25.9735 67.411 25.9735C66.267 25.9735 65.558 25.1525 65.268 24.4595L63.641 25.1365C64.108 26.2635 65.348 27.6495 67.411 27.6495C69.602 27.6495 71.455 26.3605 71.455 23.2185V15.5825H69.683V16.2745H69.682ZM67.54 22.1555C66.251 22.1555 65.172 21.0755 65.172 19.5935C65.172 18.0945 66.251 16.9995 67.54 16.9995C68.812 16.9995 69.811 18.0945 69.811 19.5935C69.811 21.0755 68.812 22.1555 67.54 22.1555ZM91.921 11.0715H87.45V23.5725H89.315V18.8365H91.92C93.988 18.8365 96.022 17.3395 96.022 14.9545C96.022 12.5695 93.989 11.0715 91.921 11.0715ZM91.969 17.0965H89.315V12.8115H91.969C93.364 12.8115 94.156 13.9665 94.156 14.9545C94.156 15.9225 93.364 17.0965 91.969 17.0965ZM103.501 15.3015C102.15 15.3015 100.751 15.8965 100.172 17.2155L101.828 17.9065C102.182 17.2155 102.842 16.9895 103.533 16.9895C104.498 16.9895 105.479 17.5685 105.495 18.5975V18.7265C105.157 18.5335 104.433 18.2445 103.549 18.2445C101.764 18.2445 99.946 19.2255 99.946 21.0585C99.946 22.7315 101.41 23.8085 103.05 23.8085C104.304 23.8085 104.996 23.2455 105.43 22.5855H105.494V23.5505H107.296V18.7575C107.297 16.5395 105.639 15.3015 103.501 15.3015ZM103.275 22.1525C102.665 22.1525 101.812 21.8465 101.812 21.0905C101.812 20.1255 102.874 19.7555 103.791 19.7555C104.61 19.7555 104.997 19.9325 105.495 20.1735C105.35 21.3325 104.353 22.1525 103.275 22.1525ZM113.858 15.5745L111.719 20.9945H111.655L109.435 15.5745H107.425L110.754 23.1495L108.856 27.3635H110.802L115.933 15.5745H113.858ZM97.052 23.5725H98.917V11.0715H97.052V23.5725Z" fill="black"/>
</svg>
