<svg width="315" height="61" viewBox="0 0 315 61" fill="none" xmlns="http://www.w3.org/2000/svg">
<path d="M101.277 16.8251V21.3745H112.611V28.1214H101.277V36.6127H92.1162V10.0782H114.201V16.8251H101.277Z" fill="white"/>
<path d="M124.488 10.0782H133.648V36.6111H124.488V10.0782Z" fill="white"/>
<path d="M172.228 10.0782V36.6111H164.697L154.373 24.5579V36.6111H145.445V10.0782H152.976L163.3 22.1313V10.0782H172.228Z" fill="white"/>
<path d="M189.927 17.0151H181.97V10.0782H207.044V17.0151H199.087V36.6127H189.927V17.0151Z" fill="white"/>
<path d="M239.376 29.8641V36.6111H216.785V10.0782H238.87V16.8251H225.789V19.9338H237.278V26.377H225.789V29.8641H239.374H239.376Z" fill="white"/>
<path d="M256.569 35.4546C254.265 34.2803 252.461 32.6366 251.154 30.5268C249.846 28.417 249.193 26.0229 249.193 23.3446C249.193 20.6663 249.846 18.2722 251.154 16.1608C252.459 14.0509 254.265 12.4089 256.569 11.233C258.872 10.0587 261.46 9.4707 264.331 9.4707C266.97 9.4707 269.325 9.92548 271.394 10.835C273.465 11.7446 275.171 13.0586 276.518 14.777L270.736 19.8185C269.052 17.746 267.073 16.7098 264.796 16.7098C262.881 16.7098 261.342 17.3107 260.178 18.511C259.014 19.7113 258.432 21.3225 258.432 23.3446C258.432 25.3667 259.014 26.9779 260.178 28.1782C261.342 29.3785 262.882 29.9795 264.796 29.9795C267.073 29.9795 269.052 28.9432 270.736 26.8707L276.518 31.9122C275.173 33.6306 273.465 34.9446 271.394 35.8542C269.323 36.7637 266.97 37.2185 264.331 37.2185C261.459 37.2185 258.871 36.6305 256.569 35.4562V35.4546Z" fill="white"/>
<path d="M313.315 10.0782V36.6111H304.155V26.8318H295.693V36.6111H286.532V10.0782H295.693V19.479H304.155V10.0782H313.315Z" fill="white"/>
<path d="M102.469 56.1599L100.575 54.3099C99.3125 55.5037 97.7242 56.0998 95.81 56.0998C94.8603 56.0998 94.0038 55.9471 93.2437 55.6417C92.4837 55.3364 91.89 54.9092 91.4625 54.3586C91.0351 53.808 90.8206 53.1827 90.8206 52.4794C90.8206 51.6316 91.0883 50.878 91.6255 50.2218C92.161 49.5656 93.0475 48.8932 94.2832 48.2029C93.6579 47.5939 93.2171 47.0432 92.9593 46.5527C92.7016 46.0622 92.5718 45.5522 92.5718 45.0211C92.5718 44.0791 92.9211 43.3238 93.6196 42.7537C94.3181 42.1837 95.2528 41.8994 96.4203 41.8994C97.5064 41.8994 98.3679 42.1577 99.0065 42.6758C99.6452 43.1923 99.9645 43.9021 99.9645 44.8035C99.9645 45.5068 99.73 46.1353 99.2626 46.6924C98.7936 47.2495 98.017 47.8326 96.9309 48.4417L100.453 51.8622C100.861 51.107 101.152 50.264 101.328 49.3366L102.897 49.8336C102.652 51.0534 102.238 52.114 101.654 53.0154L103.569 54.8849L102.469 56.1582V56.1599ZM99.414 53.1973L95.3609 49.2603C94.383 49.7914 93.7011 50.2851 93.3136 50.7415C92.9261 51.1979 92.7332 51.7128 92.7332 52.2829C92.7332 52.9456 93.0292 53.4832 93.6196 53.8941C94.21 54.305 94.9801 54.5113 95.9314 54.5113C97.3434 54.5113 98.5043 54.0744 99.414 53.199V53.1973ZM94.9235 43.7607C94.5643 44.0726 94.3847 44.4803 94.3847 44.9838C94.3847 45.3411 94.4828 45.687 94.6807 46.0184C94.8769 46.3497 95.2611 46.8012 95.8316 47.3713C96.7679 46.8548 97.4166 46.4098 97.7758 46.0395C98.135 45.6692 98.3147 45.2631 98.3147 44.8262C98.3147 44.3617 98.1483 43.9914 97.8157 43.712C97.4831 43.4343 97.0174 43.2946 96.4203 43.2946C95.7817 43.2946 95.2828 43.4505 94.9235 43.7624V43.7607Z" fill="white"/>
<path d="M119.96 54.2109V55.9406H109.616V42.0196H119.676V43.7494H111.653V48.0243H118.801V49.7151H111.653V54.2092H119.962L119.96 54.2109Z" fill="white"/>
<path d="M121.346 49.6582H126.824V51.3084H121.346V49.6582Z" fill="white"/>
<path d="M130.661 55.3656C129.798 54.9011 129.123 54.2612 128.635 53.4458C128.146 52.6305 127.902 51.7063 127.902 50.6717C127.902 49.6371 128.146 48.7129 128.635 47.8976C129.124 47.0822 129.8 46.4456 130.661 45.9892C131.523 45.5311 132.504 45.3037 133.603 45.3037C134.581 45.3037 135.453 45.4954 136.219 45.8803C136.986 46.2653 137.58 46.8224 138 47.55L136.514 48.4839C136.174 47.9804 135.754 47.602 135.251 47.3502C134.749 47.0985 134.192 46.9718 133.581 46.9718C132.875 46.9718 132.241 47.1245 131.677 47.4298C131.113 47.7352 130.673 48.1688 130.353 48.7324C130.034 49.296 129.874 49.9425 129.874 50.6717C129.874 51.401 130.034 52.0669 130.353 52.6305C130.673 53.1941 131.113 53.6278 131.677 53.9331C132.241 54.2385 132.875 54.3911 133.581 54.3911C134.192 54.3911 134.749 54.2661 135.251 54.0127C135.754 53.7609 136.174 53.3825 136.514 52.879L138 53.7934C137.58 54.5227 136.986 55.083 136.219 55.4745C135.453 55.8659 134.579 56.0608 133.603 56.0608C132.504 56.0608 131.523 55.8285 130.661 55.364V55.3656Z" fill="white"/>
<path d="M141.322 55.3656C140.467 54.9011 139.798 54.2612 139.316 53.4458C138.834 52.6305 138.593 51.7063 138.593 50.6717C138.593 49.6371 138.834 48.7129 139.316 47.8976C139.798 47.0822 140.467 46.4456 141.322 45.9892C142.177 45.5311 143.141 45.3037 144.214 45.3037C145.287 45.3037 146.246 45.5328 147.096 45.9892C147.944 46.4472 148.61 47.0822 149.092 47.8976C149.574 48.7129 149.815 49.6371 149.815 50.6717C149.815 51.7063 149.574 52.6305 149.092 53.4458C148.61 54.2612 147.944 54.9011 147.096 55.3656C146.248 55.8302 145.287 56.0624 144.214 56.0624C143.141 56.0624 142.178 55.8302 141.322 55.3656ZM146.077 53.9234C146.627 53.6115 147.058 53.1746 147.369 52.611C147.682 52.0474 147.838 51.401 147.838 50.6717C147.838 49.9425 147.682 49.296 147.369 48.7324C147.056 48.1688 146.625 47.7352 146.077 47.4298C145.526 47.1245 144.906 46.9718 144.214 46.9718C143.522 46.9718 142.9 47.1245 142.351 47.4298C141.801 47.7352 141.367 48.1688 141.047 48.7324C140.728 49.296 140.568 49.9425 140.568 50.6717C140.568 51.401 140.728 52.0474 141.047 52.611C141.367 53.1746 141.801 53.6115 142.351 53.9234C142.902 54.2352 143.522 54.3911 144.214 54.3911C144.906 54.3911 145.528 54.2352 146.077 53.9234Z" fill="white"/>
<path d="M168.313 46.4553C169.106 47.2252 169.504 48.3637 169.504 49.8759V55.9406H167.549V50.0935C167.549 49.0735 167.308 48.3036 166.826 47.7871C166.344 47.2706 165.655 47.0108 164.759 47.0108C163.767 47.0108 162.981 47.3129 162.397 47.9155C161.813 48.5197 161.521 49.3837 161.521 50.5109V55.9406H159.566V50.0935C159.566 49.0735 159.325 48.3036 158.843 47.7871C158.361 47.2706 157.672 47.0108 156.776 47.0108C155.784 47.0108 154.998 47.3129 154.414 47.9155C153.83 48.5197 153.537 49.3837 153.537 50.5109V55.9406H151.583V45.4012H153.456V46.9718C153.85 46.4277 154.366 46.0135 155.004 45.7293C155.643 45.445 156.368 45.3021 157.183 45.3021C157.998 45.3021 158.771 45.4678 159.423 45.7991C160.075 46.1305 160.578 46.6145 160.93 47.2512C161.338 46.6421 161.905 46.1646 162.63 45.8186C163.357 45.4743 164.173 45.3021 165.083 45.3021C166.44 45.3021 167.516 45.6871 168.311 46.4553H168.313Z" fill="white"/>
<path d="M188.901 46.4553C189.694 47.2252 190.092 48.3637 190.092 49.8759V55.9406H188.138V50.0935C188.138 49.0735 187.896 48.3036 187.414 47.7871C186.932 47.2706 186.243 47.0108 185.347 47.0108C184.356 47.0108 183.569 47.3129 182.985 47.9155C182.401 48.5197 182.109 49.3837 182.109 50.5109V55.9406H180.154V50.0935C180.154 49.0735 179.913 48.3036 179.431 47.7871C178.949 47.2706 178.26 47.0108 177.364 47.0108C176.372 47.0108 175.586 47.3129 175.002 47.9155C174.418 48.5197 174.126 49.3837 174.126 50.5109V55.9406H172.171V45.4012H174.044V46.9718C174.438 46.4277 174.954 46.0135 175.592 45.7293C176.231 45.445 176.956 45.3021 177.771 45.3021C178.586 45.3021 179.359 45.4678 180.011 45.7991C180.663 46.1305 181.166 46.6145 181.518 47.2512C181.926 46.6421 182.493 46.1646 183.218 45.8186C183.945 45.4743 184.761 45.3021 185.671 45.3021C187.028 45.3021 188.104 45.6871 188.899 46.4553H188.901Z" fill="white"/>
<path d="M202.474 51.3084H193.717C193.839 52.2358 194.256 52.983 194.97 53.5449C195.683 54.1085 196.568 54.3895 197.627 54.3895C198.916 54.3895 199.956 53.9656 200.742 53.1161L201.822 54.3489C201.333 54.906 200.726 55.3299 199.999 55.6223C199.272 55.9146 198.462 56.0592 197.566 56.0592C196.425 56.0592 195.414 55.8302 194.532 55.3738C193.649 54.9158 192.967 54.2774 192.485 53.454C192.003 52.6321 191.761 51.7047 191.761 50.6701C191.761 49.6355 191.996 48.7276 192.463 47.9057C192.932 47.0839 193.576 46.4439 194.398 45.9859C195.219 45.5279 196.145 45.3005 197.177 45.3005C198.208 45.3005 199.128 45.5295 199.936 45.9859C200.744 46.4439 201.374 47.0839 201.83 47.9057C202.284 48.7276 202.512 49.6696 202.512 50.7302C202.512 50.8764 202.499 51.068 202.472 51.3068L202.474 51.3084ZM194.827 47.7482C194.195 48.3053 193.825 49.0345 193.717 49.936H200.641C200.533 49.0475 200.162 48.3215 199.532 47.7579C198.9 47.1943 198.116 46.9133 197.18 46.9133C196.244 46.9133 195.459 47.1911 194.828 47.7482H194.827Z" fill="white"/>
<path d="M207.666 45.7796C208.331 45.4613 209.139 45.3021 210.089 45.3021V47.1521C209.981 47.1391 209.831 47.1326 209.642 47.1326C208.582 47.1326 207.751 47.4412 207.147 48.0568C206.543 48.674 206.241 49.551 206.241 50.6912V55.9406H204.286V45.4012H206.159V47.1716C206.498 46.5625 207.001 46.098 207.666 45.7796Z" fill="white"/>
<path d="M213.459 55.3656C212.595 54.9011 211.92 54.2612 211.433 53.4458C210.944 52.6305 210.699 51.7063 210.699 50.6717C210.699 49.6371 210.944 48.7129 211.433 47.8976C211.922 47.0822 212.597 46.4456 213.459 45.9892C214.32 45.5311 215.301 45.3037 216.401 45.3037C217.379 45.3037 218.25 45.4954 219.017 45.8803C219.784 46.2653 220.377 46.8224 220.798 47.55L219.311 48.4839C218.972 47.9804 218.551 47.602 218.049 47.3502C217.547 47.0985 216.989 46.9718 216.379 46.9718C215.672 46.9718 215.039 47.1245 214.475 47.4298C213.911 47.7352 213.47 48.1688 213.151 48.7324C212.832 49.296 212.672 49.9425 212.672 50.6717C212.672 51.401 212.832 52.0669 213.151 52.6305C213.47 53.1941 213.911 53.6278 214.475 53.9331C215.039 54.2385 215.672 54.3911 216.379 54.3911C216.989 54.3911 217.547 54.2661 218.049 54.0127C218.551 53.7609 218.972 53.3825 219.311 52.879L220.798 53.7934C220.377 54.5227 219.784 55.083 219.017 55.4745C218.25 55.8659 217.377 56.0608 216.401 56.0608C215.301 56.0608 214.32 55.8285 213.459 55.364V55.3656Z" fill="white"/>
<path d="M232.102 51.3084H223.346C223.467 52.2358 223.885 52.983 224.598 53.5449C225.312 54.1085 226.197 54.3895 227.256 54.3895C228.545 54.3895 229.584 53.9656 230.371 53.1161L231.45 54.3489C230.961 54.906 230.354 55.3299 229.628 55.6223C228.901 55.9146 228.091 56.0592 227.194 56.0592C226.054 56.0592 225.042 55.8302 224.161 55.3738C223.278 54.9158 222.596 54.2774 222.114 53.454C221.631 52.6321 221.39 51.7047 221.39 50.6701C221.39 49.6355 221.625 48.7276 222.092 47.9057C222.561 47.0839 223.205 46.4439 224.026 45.9859C224.848 45.5279 225.774 45.3005 226.805 45.3005C227.836 45.3005 228.756 45.5295 229.564 45.9859C230.373 46.4439 231.003 47.0839 231.459 47.9057C231.913 48.7276 232.141 49.6696 232.141 50.7302C232.141 50.8764 232.127 51.068 232.101 51.3068L232.102 51.3084ZM224.455 47.7482C223.823 48.3053 223.454 49.0345 223.346 49.936H230.27C230.162 49.0475 229.791 48.3215 229.16 47.7579C228.528 47.1943 227.745 46.9133 226.809 46.9133C225.872 46.9133 225.087 47.1911 224.457 47.7482H224.455Z" fill="white"/>
<path d="M239.789 55.6141C238.792 55.2893 238.008 54.8686 237.438 54.3521L238.191 52.801C238.733 53.2785 239.43 53.6667 240.278 53.964C241.127 54.2628 242 54.4106 242.894 54.4106C244.075 54.4106 244.958 54.2157 245.542 53.8243C246.126 53.4329 246.419 52.9131 246.419 52.2634C246.419 51.7859 246.259 51.3977 245.94 51.1005C245.62 50.8016 245.226 50.5743 244.759 50.4151C244.29 50.2559 243.63 50.0773 242.773 49.8775C241.7 49.6257 240.836 49.374 240.177 49.1222C239.518 48.8705 238.955 48.4823 238.487 47.9593C238.018 47.4363 237.785 46.7298 237.785 45.8413C237.785 45.0991 237.985 44.4299 238.386 43.8322C238.787 43.2361 239.394 42.7586 240.209 42.3997C241.023 42.0423 242.035 41.8621 243.242 41.8621C244.084 41.8621 244.912 41.9676 245.727 42.1804C246.542 42.3932 247.24 42.6969 247.824 43.0948L247.152 44.6865C246.555 44.3162 245.916 44.0336 245.238 43.842C244.559 43.6503 243.894 43.5529 243.242 43.5529C242.088 43.5529 241.223 43.7591 240.646 44.17C240.069 44.581 239.781 45.1121 239.781 45.7618C239.781 46.2393 239.944 46.6275 240.27 46.9247C240.596 47.2235 241 47.4558 241.481 47.6215C241.963 47.7871 242.618 47.9626 243.447 48.1477C244.519 48.3995 245.381 48.6512 246.033 48.903C246.685 49.1547 247.245 49.5396 247.713 50.0561C248.182 50.5726 248.414 51.2694 248.414 52.1449C248.414 52.8741 248.21 53.54 247.804 54.1442C247.397 54.7484 246.78 55.2243 245.951 55.5768C245.123 55.9276 244.105 56.103 242.896 56.103C241.823 56.103 240.789 55.9406 239.791 55.6158L239.789 55.6141Z" fill="white"/>
<path d="M260.223 45.4012V55.9406H258.37V54.3489C257.976 54.893 257.457 55.3137 256.812 55.6109C256.166 55.9097 255.465 56.0592 254.705 56.0592C253.266 56.0592 252.132 55.671 251.303 54.8962C250.475 54.1199 250.061 52.9764 250.061 51.4659V45.4012H252.015V51.2483C252.015 52.2699 252.266 53.0414 252.769 53.5644C253.271 54.089 253.991 54.3505 254.927 54.3505C255.959 54.3505 256.773 54.0452 257.371 53.4361C257.968 52.827 258.267 51.9646 258.267 50.8504V45.4012H260.221H260.223Z" fill="white"/>
<path d="M279.741 46.4553C280.535 47.2252 280.932 48.3637 280.932 49.8759V55.9406H278.978V50.0935C278.978 49.0735 278.737 48.3036 278.255 47.7871C277.772 47.2706 277.084 47.0108 276.187 47.0108C275.196 47.0108 274.409 47.3129 273.826 47.9155C273.242 48.5197 272.949 49.3837 272.949 50.5109V55.9406H270.995V50.0935C270.995 49.0735 270.754 48.3036 270.272 47.7871C269.789 47.2706 269.101 47.0108 268.204 47.0108C267.213 47.0108 266.426 47.3129 265.843 47.9155C265.259 48.5197 264.966 49.3837 264.966 50.5109V55.9406H263.012V45.4012H264.885V46.9718C265.279 46.4277 265.794 46.0135 266.433 45.7293C267.072 45.445 267.797 45.3021 268.612 45.3021C269.427 45.3021 270.2 45.4678 270.852 45.7991C271.504 46.1305 272.006 46.6145 272.359 47.2512C272.766 46.6421 273.333 46.1646 274.059 45.8186C274.785 45.4743 275.602 45.3021 276.512 45.3021C277.869 45.3021 278.945 45.6871 279.74 46.4553H279.741Z" fill="white"/>
<path d="M300.329 46.4553C301.123 47.2252 301.52 48.3637 301.52 49.8759V55.9406H299.566V50.0935C299.566 49.0735 299.325 48.3036 298.843 47.7871C298.36 47.2706 297.672 47.0108 296.775 47.0108C295.784 47.0108 294.997 47.3129 294.414 47.9155C293.83 48.5197 293.537 49.3837 293.537 50.5109V55.9406H291.583V50.0935C291.583 49.0735 291.342 48.3036 290.859 47.7871C290.377 47.2706 289.689 47.0108 288.792 47.0108C287.801 47.0108 287.014 47.3129 286.431 47.9155C285.847 48.5197 285.554 49.3837 285.554 50.5109V55.9406H283.6V45.4012H285.473V46.9718C285.867 46.4277 286.382 46.0135 287.021 45.7293C287.66 45.445 288.385 45.3021 289.2 45.3021C290.015 45.3021 290.788 45.4678 291.44 45.7991C292.092 46.1305 292.594 46.6145 292.947 47.2512C293.354 46.6421 293.921 46.1646 294.646 45.8186C295.373 45.4743 296.19 45.3021 297.1 45.3021C298.457 45.3021 299.533 45.6871 300.328 46.4553H300.329Z" fill="white"/>
<path d="M304.218 43.0152C303.967 42.7765 303.842 42.4858 303.842 42.1398C303.842 41.7939 303.967 41.4999 304.218 41.2546C304.469 41.0094 304.785 40.8859 305.164 40.8859C305.543 40.8859 305.859 41.0029 306.111 41.2335C306.362 41.4658 306.486 41.7532 306.486 42.0992C306.486 42.4452 306.36 42.7586 306.111 43.0039C305.859 43.2491 305.543 43.3709 305.164 43.3709C304.785 43.3709 304.469 43.2524 304.218 43.0136V43.0152ZM304.188 45.4012H306.142V55.9406H304.188V45.4012Z" fill="white"/>
<path d="M315 55.3251C314.716 55.5638 314.361 55.7457 313.941 55.8724C313.52 55.9975 313.086 56.0608 312.637 56.0608C311.551 56.0608 310.709 55.7766 310.112 55.2065C309.515 54.6364 309.216 53.821 309.216 52.7604V46.9734H307.383V45.4028H309.216V43.0965H311.17V45.4028H314.265V46.9734H311.17V52.6809C311.17 53.251 311.316 53.6879 311.607 53.9932C311.898 54.2986 312.316 54.4512 312.86 54.4512C313.457 54.4512 313.966 54.2856 314.386 53.9542L314.997 55.3267L315 55.3251Z" fill="white"/>
<path d="M0 17.0086V43.9979C0 50.1357 3.24811 55.632 8.68823 58.6985C14.1317 61.7666 20.6296 61.7666 26.0714 58.6985L50.0006 45.2063C50.5794 44.8831 51.1531 44.5144 51.7136 44.1067C56.1525 40.8957 58.6971 35.9386 58.6971 30.5057C58.6971 25.0727 56.1875 20.1758 51.8068 16.9647L39.0106 9.59901L26.073 2.30799C23.397 0.797481 20.3917 0 17.3831 0C17.0688 0 16.7229 0.00974519 16.327 0.0292356C13.646 0.198152 11.0765 0.966398 8.68657 2.30961C3.24811 5.37447 0 10.8708 0 17.0086ZM8.72649 17.0086C8.72649 12.6119 11.7484 10.4257 13.049 9.68997C13.3533 9.51455 13.6876 9.35376 14.0302 9.21408C14.8086 8.89086 15.9961 8.53029 17.4214 8.53029C18.7003 8.53029 20.1705 8.8194 21.7089 9.68672L45.6382 23.1789C49.5499 25.3895 49.9706 29.0407 49.9706 30.5073C49.9706 31.974 49.5482 35.6268 45.6365 37.8292L21.7073 51.3198C20.3402 52.0897 18.8966 52.4795 17.4147 52.4795C15.3907 52.4795 13.8074 51.7502 13.0423 51.3165C11.7467 50.5824 8.72482 48.3962 8.72482 43.9995V17.0086H8.72649Z" fill="white"/>
<path d="M80.0318 43.9914V17.0021C80.0318 10.8643 76.7837 5.36797 71.3436 2.30148C65.9002 -0.766631 59.4023 -0.766631 53.9605 2.30148L30.0313 15.7937C29.4525 16.1169 28.8787 16.4856 28.3182 16.8933C23.8793 20.1043 21.3347 25.0614 21.3347 30.4943C21.3347 35.9273 23.8444 40.8242 28.2251 44.0352L41.0213 51.401L53.9588 58.6936C56.6348 60.2041 59.6385 61.0016 62.6471 61.0016C62.9614 61.0016 63.3073 60.9919 63.7032 60.9724C66.3841 60.8035 68.9537 60.0352 71.3436 58.692C76.7821 55.6255 80.0302 50.1309 80.0302 43.993L80.0318 43.9914ZM71.3054 43.9914C71.3054 48.3881 68.2834 50.5743 66.9829 51.31C66.6785 51.4854 66.3442 51.6462 66.0016 51.7859C65.2233 52.1091 64.0358 52.4697 62.6105 52.4697C61.3315 52.4697 59.8613 52.1806 58.3229 51.3133L34.3937 37.8211C30.482 35.6105 30.0612 31.9593 30.0612 30.4927C30.0612 29.026 30.4836 25.3732 34.3953 23.1708L58.3246 9.68021C59.6917 8.91034 61.1353 8.52053 62.6171 8.52053C64.6412 8.52053 66.2245 9.2498 66.9895 9.68346C68.2851 10.4176 71.307 12.6038 71.307 17.0005V43.9898L71.3054 43.9914Z" fill="white"/>
<g opacity="0.2">
<path d="M32.255 14.5382L21.709 8.59201C20.1706 7.72469 18.7004 7.43558 17.4214 7.43558C15.9961 7.43558 14.8087 7.79615 14.0303 8.11937C13.6877 8.25905 13.3534 8.41984 13.0491 8.59525C11.7501 9.33102 8.72656 11.5172 8.72656 15.9139V17.0086C8.72656 12.6119 11.7485 10.4257 13.0491 9.68996C13.3534 9.51455 13.6877 9.35376 14.0303 9.21407C14.8087 8.89086 15.9961 8.53029 17.4214 8.53029C18.7004 8.53029 20.1706 8.81939 21.709 9.68672L31.2837 15.0855L32.255 14.5382Z" fill="white"/>
<path d="M45.6381 22.0842L40.9813 19.4579L40.01 20.0052L45.6381 23.1789C49.1273 25.1507 49.8392 28.2675 49.9522 29.9599C49.9656 29.7553 49.9705 29.5701 49.9705 29.4126C49.9705 27.9459 49.5481 24.2947 45.6381 22.0842Z" fill="white"/>
<path d="M51.7153 43.012C51.1548 43.4197 50.581 43.7884 50.0022 44.1116L26.073 57.6038C20.6296 60.6719 14.1317 60.6719 8.6899 57.6038C3.24811 54.5373 0 49.041 0 42.9032V43.9979C0 50.1357 3.24811 55.632 8.68823 58.6985C14.1317 61.7666 20.6296 61.7666 26.0714 58.6985L50.0006 45.2063C50.5794 44.8831 51.1531 44.5144 51.7136 44.1067C56.1525 40.8957 58.6971 35.9386 58.6971 30.5057C58.6971 30.3221 58.6938 30.1402 58.6872 29.9583C58.5225 35.1752 56.0028 39.9082 51.7136 43.012H51.7153Z" fill="white"/>
<path d="M66.9879 8.59039C66.2245 8.15672 64.6412 7.42746 62.6155 7.42746C61.1336 7.42746 59.69 7.81727 58.3229 8.58714L34.3937 22.0777C30.482 24.2801 30.0596 27.9313 30.0596 29.3996C30.0596 29.5572 30.0646 29.7423 30.0779 29.947C30.191 28.2545 30.9028 25.1377 34.392 23.1724L58.3213 9.68185C59.6884 8.91198 61.132 8.52217 62.6138 8.52217C64.6395 8.52217 66.2212 9.25143 66.9862 9.68509C68.2818 10.4192 71.3037 12.6054 71.3037 17.0021V15.9074C71.3037 11.5107 68.2818 9.32452 66.9862 8.59039H66.9879Z" fill="white"/>
<path d="M32.3563 45.3168L28.2251 42.9389C23.9924 39.8383 21.5076 35.1314 21.343 29.9453C21.338 30.1273 21.333 30.3092 21.333 30.4927C21.333 35.8932 23.8427 40.8226 28.2234 44.0336L31.3933 45.8576L32.3546 45.3168H32.3563Z" fill="white"/>
<path d="M71.3453 57.5957C68.957 58.9389 66.3858 59.7071 63.7048 59.8761C63.3074 59.8956 62.9614 59.9053 62.6488 59.9053C59.6401 59.9053 56.6348 59.1078 53.9605 57.5973L41.023 50.3047L40.993 50.2868L40.0317 50.8293L41.023 51.3994L53.9605 58.692C56.6365 60.2025 59.6401 61 62.6488 61C62.9631 61 63.309 60.9903 63.7048 60.9708C66.3858 60.8019 68.9554 60.0336 71.3453 58.6904C76.7838 55.6239 80.0319 50.1293 80.0319 43.9914V42.8967C80.0319 49.0345 76.7838 54.5308 71.3453 57.5957Z" fill="white"/>
</g>
<path style="mix-blend-mode:multiply" opacity="0.8" d="M40.0017 10.1707L39.0105 9.60065L30.1194 4.59C29.6321 5.43133 29.0483 6.19958 28.4063 6.82652C27.44 7.84164 26.2958 8.55954 24.9753 8.9802C24.0339 9.46259 23.0377 9.7517 21.9883 9.84753L31.2836 15.0888L39.7955 10.2893L40.0017 10.174V10.1707Z" fill="url(#paint0_linear_7259_1297)"/>
<path style="mix-blend-mode:multiply" opacity="0.8" d="M49.8325 28.9903C49.9938 28.9822 50.1552 28.9741 50.3165 28.9643C50.6441 28.8945 50.9701 28.8133 51.2911 28.7207C51.7385 28.4965 52.2008 28.2968 52.6665 28.1067C54.4377 27.2833 56.2023 26.4452 57.9985 25.6818C56.9707 22.2304 54.8352 19.1866 51.8066 16.9664L48.6367 15.1424L40.01 20.0069L45.6381 23.1805C48.5369 24.8194 49.5182 27.2475 49.8325 28.9919V28.9903Z" fill="url(#paint1_linear_7259_1297)"/>
<path style="mix-blend-mode:multiply" opacity="0.8" d="M31.7825 35.6024C30.482 36.46 29.1381 37.2542 27.6945 37.9543C26.4888 38.539 25.2597 39.0863 24.0173 39.6044C25.115 41.2904 26.5287 42.7911 28.2251 44.0336L31.395 45.8576L40.0217 40.9931L34.3937 37.8195C33.2494 37.173 32.4062 36.4032 31.7825 35.6008V35.6024Z" fill="url(#paint2_linear_7259_1297)"/>
<path style="mix-blend-mode:multiply" opacity="0.8" d="M55.0964 53.2769C55.7151 52.3463 56.3588 51.4367 57.2286 50.6945L48.7499 45.9145L40.0317 50.8293L41.023 51.3994L51.8666 57.5112C52.5169 55.9341 53.7277 54.3717 55.0964 53.2769Z" fill="url(#paint3_linear_7259_1297)"/>
<defs>
<linearGradient id="paint0_linear_7259_1297" x1="33.3192" y1="14.2767" x2="29.9331" y2="7.75564" gradientUnits="userSpaceOnUse">
<stop stop-color="#1F0060"/>
<stop offset="0.35" stop-color="#1D4596" stop-opacity="0.1681"/>
<stop offset="0.61" stop-color="#1C75BC" stop-opacity="0"/>
</linearGradient>
<linearGradient id="paint1_linear_7259_1297" x1="45.4185" y1="17.0996" x2="51.0039" y2="25.1894" gradientUnits="userSpaceOnUse">
<stop stop-color="#1F0060"/>
<stop offset="0.35" stop-color="#1D4596" stop-opacity="0.1681"/>
<stop offset="0.61" stop-color="#1C75BC" stop-opacity="0"/>
</linearGradient>
<linearGradient id="paint2_linear_7259_1297" x1="34.6165" y1="44.2123" x2="30.2069" y2="37.2433" gradientUnits="userSpaceOnUse">
<stop stop-color="#1F0060"/>
<stop offset="0.45" stop-color="#1D4596" stop-opacity="0.1681"/>
<stop offset="0.79" stop-color="#1C75BC" stop-opacity="0"/>
</linearGradient>
<linearGradient id="paint3_linear_7259_1297" x1="46.6111" y1="47.2739" x2="50.5637" y2="54.434" gradientUnits="userSpaceOnUse">
<stop stop-color="white"/>
<stop offset="0.47" stop-color="white" stop-opacity="0.1681"/>
<stop offset="0.82" stop-color="white" stop-opacity="0"/>
</linearGradient>
</defs>
</svg>
