<?xml version="1.0" encoding="UTF-8"?>
<svg xmlns="http://www.w3.org/2000/svg" xmlns:xlink="http://www.w3.org/1999/xlink" width="100px" height="56px" viewBox="0 0 99 56" version="1.1">
<g id="surface1">
<path style=" stroke:none;fill-rule:nonzero;fill:rgb(97.254902%,50.980392%,6.27451%);fill-opacity:1;" d="M 84.640625 54.28125 L 13.652344 54.28125 L 13.652344 49.894531 L 84.640625 49.894531 Z M 84.640625 54.28125 "/>
<path style=" stroke:none;fill-rule:nonzero;fill:rgb(97.254902%,50.980392%,6.27451%);fill-opacity:1;" d="M 50.75 1.71875 L 24.085938 32.457031 L 35.847656 32.457031 L 50.109375 15.703125 L 55.210938 21.042969 L 50.097656 27.109375 L 60.488281 27.046875 L 65.414062 32.457031 L 77.175781 32.457031 Z M 50.75 1.71875 "/>
<path style=" stroke:none;fill-rule:nonzero;fill:rgb(100%,99.215686%,99.215686%);fill-opacity:1;" d="M 19.996094 43.210938 L 19.546875 40.035156 L 18.117188 43.210938 Z M 20.246094 44.890625 L 17.363281 45.023438 L 16.480469 46.679688 L 14.226562 46.679688 L 18.867188 37.71875 L 21.085938 37.71875 L 22.761719 46.679688 L 20.558594 46.679688 Z M 20.246094 44.890625 "/>
<path style=" stroke:none;fill-rule:nonzero;fill:rgb(100%,99.215686%,99.215686%);fill-opacity:1;" d="M 24.378906 42.027344 L 28.125 42.027344 L 27.78125 43.722656 L 24.085938 43.722656 Z M 24.378906 42.027344 "/>
<path style=" stroke:none;fill-rule:nonzero;fill:rgb(100%,99.215686%,99.215686%);fill-opacity:1;" d="M 33.820312 46.679688 L 31.539062 46.679688 L 29.988281 37.71875 L 32.132812 37.71875 L 32.859375 44.5 L 35.820312 37.71875 L 38.199219 37.71875 Z M 33.820312 46.679688 "/>
<path style=" stroke:none;fill-rule:nonzero;fill:rgb(100%,99.215686%,99.215686%);fill-opacity:1;" d="M 37.457031 46.679688 L 39.097656 37.71875 L 45.035156 37.71875 L 44.753906 39.328125 L 40.785156 39.371094 L 40.425781 41.367188 L 43.960938 41.40625 L 43.808594 42.902344 L 40.226562 42.90625 L 39.871094 45.015625 L 43.859375 45.113281 L 43.523438 46.667969 Z M 37.457031 46.679688 "/>
<path style=" stroke:none;fill-rule:nonzero;fill:rgb(100%,99.215686%,99.215686%);fill-opacity:1;" d="M 51.972656 46.679688 L 49.957031 46.679688 L 47.628906 40.707031 L 46.644531 46.679688 L 44.585938 46.679688 L 46.085938 37.71875 L 48.316406 37.71875 L 50.390625 43.714844 L 51.339844 37.71875 L 53.488281 37.71875 Z M 51.972656 46.679688 "/>
<path style=" stroke:none;fill-rule:nonzero;fill:rgb(100%,99.215686%,99.215686%);fill-opacity:1;" d="M 57.484375 46.679688 L 55.484375 46.679688 L 56.710938 39.367188 L 54.109375 39.273438 L 54.417969 37.71875 L 61.699219 37.71875 L 61.421875 39.335938 L 58.738281 39.390625 Z M 57.484375 46.679688 "/>
<path style=" stroke:none;fill-rule:nonzero;fill:rgb(100%,99.215686%,99.215686%);fill-opacity:1;" d="M 62.675781 37.710938 L 64.625 37.71875 L 63.867188 42.433594 L 63.742188 43.523438 C 63.726562 43.628906 63.773438 43.933594 63.773438 44.019531 C 63.773438 44.375 63.773438 44.539062 64.023438 44.769531 C 64.273438 45 64.382812 45.019531 64.859375 45.019531 C 65.285156 45.019531 65.726562 44.875 66.003906 44.707031 C 66.285156 44.539062 66.285156 44.226562 66.4375 43.898438 C 66.59375 43.566406 66.621094 43.222656 66.78125 42.433594 L 67.460938 37.71875 L 69.597656 37.71875 L 68.851562 42.476562 C 68.640625 43.507812 68.402344 44.296875 68.128906 44.84375 C 67.859375 45.386719 67.449219 45.832031 66.898438 46.175781 C 66.347656 46.515625 65.652344 46.6875 64.8125 46.6875 C 63.804688 46.6875 63.035156 46.433594 62.5 45.921875 C 61.964844 45.410156 61.699219 44.753906 61.699219 43.949219 C 61.699219 43.78125 61.710938 43.601562 61.742188 43.40625 C 61.757812 43.273438 61.824219 42.90625 61.945312 42.292969 Z M 62.675781 37.710938 "/>
<path style=" stroke:none;fill-rule:nonzero;fill:rgb(100%,99.215686%,99.215686%);fill-opacity:1;" d="M 72.585938 41.625 L 73.371094 41.625 C 74.328125 41.625 74.46875 41.675781 74.78125 41.558594 C 75.09375 41.4375 74.972656 41.4375 75.148438 41.183594 C 75.324219 40.929688 75.332031 40.429688 75.332031 40.152344 C 75.332031 39.828125 75.863281 40.796875 75.585938 40.675781 C 75.214844 40.515625 75.417969 39.375 74.894531 39.375 L 72.890625 39.332031 Z M 76.742188 46.679688 L 74.632812 46.679688 C 74.476562 46.175781 74.574219 46.304688 74.125 45.230469 C 73.882812 44.652344 73.804688 43.777344 73.53125 43.578125 C 73.363281 43.460938 73.28125 43.484375 72.863281 43.484375 L 72.238281 43.460938 L 71.660156 46.679688 L 69.628906 46.679688 L 71.175781 37.71875 L 75.277344 37.71875 C 75.992188 37.722656 76.652344 38.085938 76.929688 38.367188 C 77.277344 38.722656 77.421875 38.875 77.554688 39.304688 C 77.617188 39.523438 77.628906 39.464844 77.589844 40.285156 C 77.535156 41.386719 77.425781 41.53125 76.984375 42.027344 C 76.542969 42.523438 76.28125 42.753906 75.390625 42.871094 "/>
<path style=" stroke:none;fill-rule:nonzero;fill:rgb(97.647059%,97.647059%,97.647059%);fill-opacity:1;" d="M 77.785156 46.683594 L 79.425781 37.722656 L 85.367188 37.722656 L 85.082031 39.332031 L 81.117188 39.375 L 80.777344 41.464844 L 84.289062 41.410156 L 84.136719 42.90625 L 80.558594 42.910156 L 80.199219 45.015625 L 84.300781 45.105469 L 83.855469 46.667969 Z M 77.785156 46.683594 "/>
<path style=" stroke:none;fill-rule:nonzero;fill:rgb(0%,0%,0%);fill-opacity:1;" d="M 18.429688 52.34375 L 19.117188 52.34375 L 18.90625 51.761719 C 18.839844 51.585938 18.792969 51.441406 18.761719 51.328125 C 18.734375 51.460938 18.699219 51.59375 18.652344 51.726562 Z M 17.84375 53.207031 L 18.625 51.105469 L 18.914062 51.105469 L 19.742188 53.207031 L 19.4375 53.207031 L 19.199219 52.570312 L 18.351562 52.570312 L 18.128906 53.207031 Z M 17.84375 53.207031 "/>
<path style=" stroke:none;fill-rule:nonzero;fill:rgb(0%,0%,0%);fill-opacity:1;" d="M 22.519531 53.207031 L 22.519531 51.105469 L 22.789062 51.105469 L 22.789062 52.960938 L 23.785156 52.960938 L 23.785156 53.207031 Z M 22.519531 53.207031 "/>
<path style=" stroke:none;fill-rule:nonzero;fill:rgb(0%,0%,0%);fill-opacity:1;" d="M 27.628906 52.382812 L 27.628906 52.136719 L 28.488281 52.136719 L 28.488281 52.914062 C 28.355469 53.023438 28.21875 53.105469 28.078125 53.160156 C 27.9375 53.21875 27.792969 53.246094 27.648438 53.246094 C 27.449219 53.246094 27.265625 53.199219 27.105469 53.113281 C 26.941406 53.023438 26.820312 52.894531 26.734375 52.726562 C 26.652344 52.5625 26.609375 52.375 26.609375 52.167969 C 26.609375 51.960938 26.652344 51.769531 26.734375 51.59375 C 26.816406 51.417969 26.9375 51.285156 27.089844 51.199219 C 27.246094 51.113281 27.425781 51.070312 27.625 51.070312 C 27.773438 51.070312 27.90625 51.09375 28.023438 51.144531 C 28.144531 51.191406 28.234375 51.261719 28.304688 51.347656 C 28.371094 51.4375 28.421875 51.550781 28.457031 51.695312 L 28.214844 51.761719 C 28.183594 51.65625 28.144531 51.570312 28.101562 51.511719 C 28.054688 51.449219 27.992188 51.398438 27.90625 51.363281 C 27.824219 51.324219 27.730469 51.308594 27.628906 51.308594 C 27.503906 51.308594 27.398438 51.328125 27.308594 51.367188 C 27.21875 51.40625 27.148438 51.457031 27.09375 51.519531 C 27.039062 51.582031 26.996094 51.652344 26.964844 51.726562 C 26.914062 51.855469 26.886719 51.996094 26.886719 52.148438 C 26.886719 52.335938 26.917969 52.492188 26.980469 52.621094 C 27.042969 52.746094 27.132812 52.839844 27.253906 52.902344 C 27.371094 52.960938 27.5 52.992188 27.632812 52.992188 C 27.75 52.992188 27.863281 52.96875 27.972656 52.921875 C 28.082031 52.878906 28.167969 52.828125 28.222656 52.773438 L 28.222656 52.382812 Z M 27.628906 52.382812 "/>
<path style=" stroke:none;fill-rule:nonzero;fill:rgb(0%,0%,0%);fill-opacity:1;" d="M 31.460938 53.207031 L 31.460938 51.105469 L 32.925781 51.105469 L 32.925781 51.351562 L 31.730469 51.351562 L 31.730469 51.996094 L 32.851562 51.996094 L 32.851562 52.246094 L 31.730469 52.246094 L 31.730469 52.960938 L 32.976562 52.960938 L 32.976562 53.207031 Z M 31.460938 53.207031 "/>
<path style=" stroke:none;fill-rule:nonzero;fill:rgb(0%,0%,0%);fill-opacity:1;" d="M 36.191406 52.035156 L 36.769531 52.035156 C 36.890625 52.035156 36.988281 52.019531 37.054688 51.992188 C 37.125 51.96875 37.175781 51.925781 37.214844 51.867188 C 37.25 51.808594 37.265625 51.746094 37.265625 51.679688 C 37.265625 51.578125 37.230469 51.496094 37.164062 51.433594 C 37.09375 51.371094 36.984375 51.335938 36.832031 51.335938 L 36.191406 51.335938 Z M 35.921875 53.207031 L 35.921875 51.105469 L 36.820312 51.105469 C 37.003906 51.105469 37.140625 51.125 37.234375 51.160156 C 37.328125 51.199219 37.402344 51.265625 37.460938 51.363281 C 37.515625 51.457031 37.542969 51.5625 37.542969 51.679688 C 37.542969 51.828125 37.496094 51.953125 37.402344 52.054688 C 37.3125 52.160156 37.167969 52.222656 36.972656 52.25 C 37.042969 52.285156 37.097656 52.320312 37.132812 52.355469 C 37.210938 52.429688 37.285156 52.523438 37.355469 52.636719 L 37.710938 53.207031 L 37.371094 53.207031 L 37.105469 52.769531 C 37.027344 52.644531 36.960938 52.546875 36.910156 52.480469 C 36.859375 52.414062 36.8125 52.367188 36.773438 52.339844 C 36.734375 52.3125 36.691406 52.296875 36.652344 52.285156 C 36.621094 52.277344 36.570312 52.273438 36.503906 52.273438 L 36.191406 52.273438 L 36.191406 53.207031 Z M 35.921875 53.207031 "/>
<path style=" stroke:none;fill-rule:nonzero;fill:rgb(0%,0%,0%);fill-opacity:1;" d="M 40.582031 51.105469 L 40.851562 51.105469 L 40.851562 53.207031 L 40.582031 53.207031 Z M 40.582031 51.105469 "/>
<path style=" stroke:none;fill-rule:nonzero;fill:rgb(0%,0%,0%);fill-opacity:1;" d="M 44.261719 52.34375 L 44.949219 52.34375 L 44.734375 51.761719 C 44.671875 51.585938 44.625 51.441406 44.59375 51.328125 C 44.566406 51.460938 44.53125 51.59375 44.484375 51.726562 Z M 43.675781 53.207031 L 44.453125 51.105469 L 44.742188 51.105469 L 45.574219 53.207031 L 45.265625 53.207031 L 45.03125 52.570312 L 44.183594 52.570312 L 43.960938 53.207031 Z M 43.675781 53.207031 "/>
<path style=" stroke:none;fill-rule:nonzero;fill:rgb(0%,0%,0%);fill-opacity:1;" d="M 52.144531 53.207031 L 51.359375 51.105469 L 51.648438 51.105469 L 52.175781 52.632812 C 52.21875 52.753906 52.253906 52.871094 52.28125 52.976562 C 52.3125 52.863281 52.351562 52.75 52.390625 52.632812 L 52.9375 51.105469 L 53.214844 51.105469 L 52.417969 53.207031 Z M 52.144531 53.207031 "/>
<path style=" stroke:none;fill-rule:nonzero;fill:rgb(0%,0%,0%);fill-opacity:1;" d="M 56.03125 53.207031 L 56.03125 51.105469 L 57.5 51.105469 L 57.5 51.351562 L 56.300781 51.351562 L 56.300781 51.996094 L 57.421875 51.996094 L 57.421875 52.246094 L 56.300781 52.246094 L 56.300781 52.960938 L 57.546875 52.960938 L 57.546875 53.207031 Z M 56.03125 53.207031 "/>
<path style=" stroke:none;fill-rule:nonzero;fill:rgb(0%,0%,0%);fill-opacity:1;" d="M 60.488281 53.207031 L 60.488281 51.105469 L 60.761719 51.105469 L 61.828125 52.757812 L 61.828125 51.105469 L 62.085938 51.105469 L 62.085938 53.207031 L 61.808594 53.207031 L 60.742188 51.554688 L 60.742188 53.207031 Z M 60.488281 53.207031 "/>
<path style=" stroke:none;fill-rule:nonzero;fill:rgb(0%,0%,0%);fill-opacity:1;" d="M 65.625 53.207031 L 65.625 51.351562 L 64.957031 51.351562 L 64.957031 51.105469 L 66.5625 51.105469 L 66.5625 51.351562 L 65.894531 51.351562 L 65.894531 53.207031 Z M 65.625 53.207031 "/>
<path style=" stroke:none;fill-rule:nonzero;fill:rgb(0%,0%,0%);fill-opacity:1;" d="M 70.742188 51.105469 L 71.011719 51.105469 L 71.011719 52.320312 C 71.011719 52.53125 70.988281 52.699219 70.941406 52.824219 C 70.894531 52.949219 70.8125 53.050781 70.691406 53.128906 C 70.570312 53.207031 70.414062 53.246094 70.21875 53.246094 C 70.027344 53.246094 69.871094 53.210938 69.753906 53.140625 C 69.632812 53.074219 69.546875 52.976562 69.492188 52.847656 C 69.441406 52.71875 69.414062 52.542969 69.414062 52.320312 L 69.414062 51.105469 L 69.683594 51.105469 L 69.683594 52.320312 C 69.683594 52.5 69.699219 52.636719 69.734375 52.722656 C 69.765625 52.808594 69.824219 52.875 69.902344 52.921875 C 69.980469 52.96875 70.078125 52.992188 70.195312 52.992188 C 70.390625 52.992188 70.53125 52.945312 70.617188 52.855469 C 70.699219 52.761719 70.742188 52.582031 70.742188 52.320312 Z M 70.742188 51.105469 "/>
<path style=" stroke:none;fill-rule:nonzero;fill:rgb(0%,0%,0%);fill-opacity:1;" d="M 74.304688 52.035156 L 74.878906 52.035156 C 75.003906 52.035156 75.097656 52.019531 75.167969 51.992188 C 75.238281 51.96875 75.289062 51.925781 75.324219 51.867188 C 75.363281 51.808594 75.378906 51.746094 75.378906 51.679688 C 75.378906 51.578125 75.34375 51.496094 75.273438 51.433594 C 75.207031 51.371094 75.097656 51.335938 74.945312 51.335938 L 74.304688 51.335938 Z M 74.035156 53.207031 L 74.035156 51.105469 L 74.933594 51.105469 C 75.113281 51.105469 75.253906 51.125 75.347656 51.160156 C 75.441406 51.199219 75.515625 51.265625 75.570312 51.363281 C 75.628906 51.457031 75.65625 51.5625 75.65625 51.679688 C 75.65625 51.828125 75.609375 51.953125 75.515625 52.054688 C 75.421875 52.160156 75.28125 52.222656 75.085938 52.25 C 75.15625 52.285156 75.210938 52.320312 75.246094 52.355469 C 75.324219 52.429688 75.398438 52.523438 75.46875 52.636719 L 75.824219 53.207031 L 75.484375 53.207031 L 75.214844 52.769531 C 75.136719 52.644531 75.074219 52.546875 75.023438 52.480469 C 74.972656 52.414062 74.925781 52.367188 74.886719 52.339844 C 74.847656 52.3125 74.804688 52.296875 74.765625 52.285156 C 74.734375 52.277344 74.683594 52.273438 74.613281 52.273438 L 74.304688 52.273438 L 74.304688 53.207031 Z M 74.035156 53.207031 "/>
<path style=" stroke:none;fill-rule:nonzero;fill:rgb(0%,0%,0%);fill-opacity:1;" d="M 78.65625 53.207031 L 78.65625 51.105469 L 80.121094 51.105469 L 80.121094 51.351562 L 78.921875 51.351562 L 78.921875 51.996094 L 80.046875 51.996094 L 80.046875 52.246094 L 78.921875 52.246094 L 78.921875 52.960938 L 80.167969 52.960938 L 80.167969 53.207031 Z M 78.65625 53.207031 "/>
</g>
</svg>
