<svg width="146" height="38" viewBox="0 0 146 38" fill="none" xmlns="http://www.w3.org/2000/svg">
<g id="Group 4">
<g id="Group 2">
<path id="Vector" d="M16.9379 10.3627C17.1769 9.88473 17.4159 9.40672 17.6622 8.91422C19.2874 8.91422 20.9127 8.91422 22.5872 8.91422C22.6003 11.4403 22.6109 13.9663 22.6172 16.4923C22.6202 17.6655 22.6242 18.8386 22.6309 20.0117C22.6367 21.0354 22.6404 22.059 22.6417 23.0826C22.6424 23.6236 22.6442 24.1646 22.6484 24.7055C22.675 28.2214 22.5873 31.5604 20.0164 34.255C17.9283 36.3393 15.2065 37.2009 12.2976 37.2285C12.117 37.227 11.9364 37.2255 11.7503 37.224C11.56 37.2227 11.3697 37.2214 11.1737 37.22C8.24294 37.1679 5.47425 36.358 3.32168 34.2635C2.21629 33.1085 1.44213 31.7529 1.13778 30.1762C1.09985 29.9814 1.09985 29.9814 1.06115 29.7826C1.0423 29.6839 1.02345 29.5851 1.00403 29.4834C1.98358 29.4614 2.96308 29.4461 3.94282 29.4356C4.27612 29.4313 4.60941 29.4253 4.94265 29.4178C5.42162 29.4073 5.90038 29.4023 6.37944 29.3985C6.52854 29.394 6.67764 29.3895 6.83125 29.3849C7.22557 29.3847 7.57345 29.3915 7.95698 29.4834C8.32845 29.9087 8.32845 29.9087 8.5364 30.3525C9.54101 31.222 10.7362 31.4393 12.031 31.4123C13.145 31.2897 14.1363 30.8742 14.9099 30.0628C15.5298 29.1749 15.6391 28.5183 15.6342 27.4554C15.5029 27.5148 15.3717 27.5742 15.2364 27.6354C15.0582 27.7143 14.88 27.7931 14.7017 27.8719C14.5286 27.9492 14.3555 28.0265 14.1772 28.1061C11.6836 29.1153 8.62619 28.8431 6.18649 27.8436C3.69008 26.6885 2.03126 24.7492 1.00403 22.2407C0.0131867 19.4088 0.225442 16.3145 1.46914 13.6004C2.6899 11.3135 4.63073 9.6063 7.06976 8.7241C10.591 7.66452 13.9395 8.25576 16.9379 10.3627ZM8.24669 15.8672C7.52255 16.9563 7.40745 18.0647 7.52243 19.3437C7.87692 20.6588 8.49271 21.6261 9.65335 22.3482C10.66 22.9014 11.7523 22.9884 12.8588 22.7205C14.2155 22.2739 14.9764 21.6357 15.6421 20.3791C16.1361 19.2565 16.1103 17.8122 15.6885 16.6729C15.0954 15.4166 14.3126 14.7872 13.0269 14.2738C11.1388 13.7045 9.50547 14.445 8.24669 15.8672Z" fill="black"/>
<path id="Vector_2" d="M96.1724 1.67157C98.5147 1.67157 100.857 1.67157 103.27 1.67157C103.27 10.7539 103.27 19.8362 103.27 29.1937C101.502 29.1937 99.7329 29.1937 97.9107 29.1937C97.7195 28.8113 97.5283 28.4289 97.3313 28.0349C96.9726 28.2142 96.6164 28.3987 96.2647 28.5911C93.5922 30.028 90.7108 30.3338 87.7709 29.4834C86.3337 29.0044 85.1188 28.3486 84.0048 27.3106C83.8937 27.2143 83.7826 27.1179 83.6681 27.0186C81.5675 25.0928 80.668 22.2296 80.5096 19.4506C80.4408 16.6741 81.1892 13.8811 83.0451 11.766C83.2656 11.537 83.4889 11.3105 83.7151 11.087C83.8146 10.9843 83.9141 10.8816 84.0166 10.7758C85.6599 9.18437 88.108 8.28457 90.3783 8.18997C90.5068 8.1825 90.6352 8.17503 90.7676 8.16734C92.6973 8.10575 94.2464 8.60663 96.0276 9.3488C96.0754 6.81531 96.1232 4.28183 96.1724 1.67157ZM88.6401 16.1569C87.8026 17.5243 87.5144 18.8848 87.8598 20.4776C88.2942 21.6947 89.0985 22.6577 90.2425 23.2638C91.3862 23.7168 92.5918 23.7617 93.7648 23.3888C95.0311 22.8103 95.8455 22.043 96.3807 20.756C96.7935 19.4621 96.7473 18.2244 96.2273 16.9689C95.6545 15.8865 94.8686 15.1379 93.7286 14.6812C91.7672 14.1719 89.9685 14.623 88.6401 16.1569Z" fill="black"/>
<path id="Vector_3" d="M71.9823 1.67157C74.2767 1.67157 76.5712 1.67157 78.9352 1.67157C78.9352 10.7539 78.9352 19.8362 78.9352 29.1937C77.2144 29.1937 75.4935 29.1937 73.7205 29.1937C73.5293 28.8113 73.3381 28.4289 73.1411 28.0349C72.7968 28.207 72.4535 28.3811 72.1124 28.5594C69.3895 29.9631 66.5588 30.3494 63.5808 29.4834C62.2183 29.0224 61.041 28.4122 59.9594 27.4555C59.8418 27.3664 59.7242 27.2773 59.603 27.1856C57.6943 25.5793 56.7497 23.0396 56.3743 20.6383C56.1591 17.2483 56.7496 14.1745 59.0184 11.534C61.1911 9.23804 63.9284 8.24494 67.0482 8.1447C68.8015 8.18206 70.2156 8.67304 71.8374 9.3488C71.8852 6.81531 71.933 4.28183 71.9823 1.67157ZM64.4499 16.1569C63.5854 17.4268 63.4652 18.5426 63.5808 20.0679C63.8671 21.3305 64.6105 22.2382 65.6178 23.0193C66.7799 23.6622 68.0638 23.7449 69.3534 23.4499C70.5383 23.0226 71.3952 22.321 71.9732 21.1996C72.5485 19.9612 72.6168 18.6582 72.1905 17.3519C71.6551 16.0645 70.8409 15.2995 69.5758 14.7186C67.6093 14.0971 65.7995 14.6514 64.4499 16.1569Z" fill="black"/>
<path id="Vector_4" d="M133.332 10.0546C134.835 11.3484 135.565 13.2289 135.862 15.1425C135.898 15.628 135.899 16.1102 135.895 16.5968C135.895 16.734 135.895 16.8713 135.895 17.0127C135.895 17.461 135.893 17.9093 135.891 18.3576C135.89 18.6705 135.89 18.9835 135.889 19.2964C135.888 20.1161 135.885 20.9357 135.882 21.7554C135.879 22.741 135.877 23.7266 135.876 24.7122C135.873 26.2059 135.867 27.6996 135.862 29.1933C133.52 29.1933 131.178 29.1933 128.765 29.1933C128.759 28.297 128.754 27.4007 128.748 26.4773C128.744 25.9083 128.739 25.3392 128.734 24.7702C128.726 23.8677 128.719 22.9652 128.714 22.0627C128.711 21.3348 128.705 20.6069 128.697 19.8791C128.695 19.6019 128.693 19.3247 128.692 19.0475C128.691 18.6581 128.687 18.2688 128.682 17.8795C128.683 17.7658 128.683 17.6521 128.683 17.535C128.666 16.5599 128.471 15.7604 127.814 15.0067C127.066 14.3738 126.231 14.4858 125.288 14.5631C124.495 14.7722 124.012 15.1902 123.551 15.856C123.146 16.6892 123.072 17.4791 123.069 18.3892C123.067 18.5654 123.067 18.5654 123.065 18.745C123.06 19.1299 123.058 19.5147 123.055 19.8995C123.053 20.1676 123.05 20.4357 123.047 20.7038C123.039 21.407 123.034 22.1102 123.028 22.8134C123.021 23.6585 123.012 24.5035 123.004 25.3485C122.991 26.6301 122.981 27.9117 122.97 29.1933C120.628 29.1933 118.286 29.1933 115.873 29.1933C115.873 22.5011 115.873 15.8089 115.873 8.91383C117.546 8.91383 119.219 8.91383 120.942 8.91383C121.667 10.5072 121.667 10.5072 121.667 10.7969C121.751 10.7234 121.836 10.6498 121.922 10.574C125.264 7.76818 129.785 7.42752 133.332 10.0546Z" fill="black"/>
<path id="Vector_5" d="M25.1943 8.91486C27.5365 8.91486 29.8788 8.91486 32.2921 8.91486C32.3002 10.2122 32.3002 10.2122 32.3085 11.5358C32.3129 12.085 32.3174 12.6343 32.3223 13.1835C32.3302 14.0545 32.3376 14.9255 32.3423 15.7965C32.346 16.4991 32.3519 17.2016 32.3592 17.9041C32.3616 18.1716 32.3633 18.4391 32.3642 18.7066C32.3656 19.0825 32.3696 19.4582 32.3743 19.834C32.3741 19.9436 32.3739 20.0532 32.3737 20.1662C32.3901 21.1056 32.6025 21.8854 33.1793 22.6488C33.9156 23.209 34.6597 23.4563 35.5875 23.3821C36.1148 23.3002 36.4865 23.1281 36.9274 22.8208C37.023 22.8208 37.1186 22.8208 37.2171 22.8208C37.7572 21.8236 38.0061 20.9559 38.004 19.834C38.0055 19.7152 38.0069 19.5963 38.0085 19.4739C38.0128 19.0851 38.0142 18.6964 38.0155 18.3077C38.0179 18.0365 38.0206 17.7654 38.0234 17.4942C38.0302 16.7837 38.0346 16.0731 38.0383 15.3625C38.0434 14.5082 38.0517 13.654 38.0594 12.7998C38.0708 11.5048 38.0781 10.2099 38.0862 8.91486C40.4285 8.91486 42.7708 8.91486 45.184 8.91486C45.2073 12.0754 45.2073 12.0754 45.2123 13.4359C45.2158 14.3596 45.2198 15.2832 45.2277 16.2069C45.2341 16.9526 45.2375 17.6983 45.239 18.4441C45.2401 18.7268 45.2421 19.0095 45.2453 19.2922C45.2774 22.2864 44.8328 25.0079 42.6678 27.2609C40.4728 29.221 37.6843 30.011 34.7619 29.9452C31.8473 29.7698 29.2624 28.8956 27.2222 26.7318C25.7788 24.9724 25.1679 22.9109 25.1778 20.6562C25.1778 20.529 25.1778 20.4017 25.1778 20.2705C25.1779 19.852 25.179 19.4335 25.1801 19.015C25.1804 18.7239 25.1806 18.4329 25.1807 18.1418C25.1813 17.3774 25.1827 16.613 25.1843 15.8486C25.1861 14.9306 25.1867 14.0125 25.1876 13.0945C25.189 11.7013 25.1918 10.3081 25.1943 8.91486Z" fill="black"/>
<path id="Vector_6" d="M138.469 8.91486C140.812 8.91486 143.154 8.91486 145.567 8.91486C145.567 15.6071 145.567 22.2993 145.567 29.1943C143.225 29.1943 140.883 29.1943 138.469 29.1943C138.469 22.5021 138.469 15.8099 138.469 8.91486Z" fill="black"/>
<path id="Vector_7" d="M106.022 8.91486C108.365 8.91486 110.707 8.91486 113.12 8.91486C113.12 15.6071 113.12 22.2993 113.12 29.1943C110.778 29.1943 108.436 29.1943 106.022 29.1943C106.022 22.5021 106.022 15.8099 106.022 8.91486Z" fill="black"/>
<path id="Vector_8" d="M47.6459 8.91486C49.9882 8.91486 52.3304 8.91486 54.7437 8.91486C54.7437 15.6071 54.7437 22.2993 54.7437 29.1943C52.4014 29.1943 50.0591 29.1943 47.6459 29.1943C47.6459 22.5021 47.6459 15.8099 47.6459 8.91486Z" fill="black"/>
<path id="Vector_9" d="M53.1505 0.51359C53.9867 1.05469 54.4411 1.73538 54.7439 2.68639C54.8763 3.64638 54.8857 4.60953 54.3761 5.46067C53.7004 6.31527 52.9538 7.01582 51.8468 7.17684C50.7222 7.26754 49.7343 7.06052 48.8321 6.35299C48.0353 5.60059 47.698 4.72511 47.6331 3.63925C47.6709 2.55359 48.0404 1.68564 48.7936 0.904015C50.0503 -0.121219 51.7323 -0.239902 53.1505 0.51359Z" fill="#0F6EFF"/>
<path id="Vector_10" d="M144.264 0.803091C145.035 1.47337 145.466 2.28018 145.614 3.28823C145.669 4.30056 145.393 5.25128 144.733 6.02969C143.939 6.77131 143.125 7.17882 142.037 7.24001C140.903 7.18928 140.039 6.7922 139.267 5.96349C138.475 4.97993 138.337 4.07312 138.47 2.83104C138.737 1.71496 139.441 1.02522 140.353 0.368531C141.642 -0.304207 143.116 0.0052696 144.264 0.803091Z" fill="#0F6EFF"/>
<path id="Vector_11" d="M111.659 0.694709C112.49 1.34227 112.906 1.99854 113.041 3.04744C113.098 4.30388 112.947 5.20315 112.107 6.16235C111.359 6.8826 110.549 7.13842 109.517 7.22159C108.584 7.19266 107.634 6.90249 106.943 6.25232C106.159 5.31206 105.899 4.36198 105.954 3.14703C106.106 2.13049 106.512 1.37213 107.317 0.730356C108.681 -0.168724 110.285 -0.207546 111.659 0.694709Z" fill="#0F6EFF"/>
<path id="Vector_12" d="M61.843 33.6839C63.7677 33.6304 63.7677 33.6304 64.224 33.8666C64.4504 34.1184 64.4504 34.1184 64.507 34.3991C64.4969 34.547 64.4969 34.547 64.4866 34.6978C64.4814 34.7964 64.4761 34.895 64.4707 34.9966C64.4607 35.1355 64.4607 35.1355 64.4504 35.2772C64.4504 35.6799 64.4812 36.0631 64.5228 36.4632C64.5362 36.5937 64.5497 36.7243 64.5635 36.8587C64.574 36.9583 64.5845 37.0578 64.5952 37.1603C64.404 37.1125 64.2128 37.0647 64.0158 37.0155C63.9949 36.8512 63.974 36.6868 63.9524 36.5175C63.9272 36.0293 63.9272 36.0293 63.7261 35.8567C63.2932 35.7904 62.8585 35.7548 62.4224 35.7118C62.4224 36.1898 62.4224 36.6678 62.4224 37.1603C62.2312 37.1603 62.04 37.1603 61.843 37.1603C61.843 36.0131 61.843 34.8659 61.843 33.6839ZM62.4224 34.1184C62.4224 34.5008 62.4224 34.8832 62.4224 35.2772C62.6336 35.2851 62.8449 35.2907 63.0562 35.2953C63.2326 35.3004 63.2326 35.3004 63.4126 35.3055C63.757 35.3082 63.757 35.3082 64.0158 34.9875C63.9738 34.5085 63.9738 34.5085 63.7261 34.1184C63.506 34.108 63.2855 34.1063 63.0652 34.1094C62.8857 34.1113 62.8857 34.1113 62.7025 34.1133C62.5639 34.1158 62.5639 34.1158 62.4224 34.1184Z" fill="#0F6EFF"/>
<path id="Vector_13" d="M87.7715 33.6838C89.5098 33.6838 89.5098 33.6838 90.2341 34.1183C90.7008 34.9119 90.7337 35.4235 90.5238 36.2911C90.2089 36.7845 90.0671 36.9745 89.5098 37.1603C88.9362 37.1603 88.3625 37.1603 87.7715 37.1603C87.7715 36.013 87.7715 34.8658 87.7715 33.6838ZM88.351 34.1183C88.351 34.9788 88.351 35.8392 88.351 36.7257C89.2902 36.7973 89.2902 36.7973 89.7904 36.5265C90.1858 36.0233 90.1931 35.6662 90.1588 35.0384C90.1089 34.6643 90.1089 34.6643 89.7904 34.3175C89.2902 34.0467 89.2902 34.0467 88.351 34.1183Z" fill="#0F6EFF"/>
<path id="Vector_14" d="M142.816 33.6838C143.007 33.6838 143.198 33.6838 143.395 33.6838C143.607 33.8965 143.607 33.8965 143.8 34.1908C143.87 34.2953 143.94 34.3999 144.012 34.5076C144.119 34.6734 144.119 34.6734 144.228 34.8426C144.338 35.0084 144.338 35.0084 144.45 35.1776C144.631 35.451 144.81 35.7261 144.988 36.0014C145.036 35.2366 145.084 34.4718 145.133 33.6838C145.277 33.6838 145.42 33.6838 145.568 33.6838C145.568 34.831 145.568 35.9783 145.568 37.1603C145.377 37.1603 145.185 37.1603 144.988 37.1603C144.776 36.9475 144.776 36.9475 144.583 36.6533C144.513 36.5487 144.443 36.4441 144.371 36.3364C144.3 36.2259 144.229 36.1153 144.155 36.0014C144.045 35.8356 144.045 35.8356 143.933 35.6665C143.752 35.393 143.573 35.118 143.395 34.8426C143.347 35.6074 143.299 36.3723 143.25 37.1603C143.107 37.1603 142.963 37.1603 142.816 37.1603C142.816 36.013 142.816 34.8658 142.816 33.6838Z" fill="#0F6EFF"/>
<path id="Vector_15" d="M98.0556 33.6848C98.4992 34.0198 98.4992 34.0198 98.7799 34.4091C98.7799 34.5525 98.7799 34.6959 98.7799 34.8437C98.6365 34.8437 98.4931 34.8437 98.3453 34.8437C98.2856 34.7481 98.2258 34.6525 98.1643 34.554C97.9184 34.2081 97.9184 34.2081 97.4038 34.2009C96.9193 34.2287 96.9193 34.2287 96.6252 34.4182C96.3748 34.8493 96.3426 35.2175 96.3174 35.7128C96.4379 36.1959 96.4379 36.1959 96.6071 36.5819C96.8183 36.5897 97.0295 36.5954 97.2408 36.6C97.3585 36.6034 97.4761 36.6067 97.5973 36.6102C97.9417 36.6129 97.9417 36.6129 98.2005 36.2922C98.2935 35.9925 98.2935 35.9925 98.3453 35.7128C98.0107 35.7128 97.6761 35.7128 97.3314 35.7128C97.3314 35.5694 97.3314 35.426 97.3314 35.2782C97.8094 35.2782 98.2874 35.2782 98.7799 35.2782C98.7799 35.8997 98.7799 36.5211 98.7799 37.1613C98.6843 37.1613 98.5887 37.1613 98.4902 37.1613C98.4424 37.0657 98.3946 36.9701 98.3453 36.8716C98.2019 36.9672 98.0585 37.0628 97.9108 37.1613C96.9496 37.2716 96.9496 37.2716 96.4883 37.0142C96.0997 36.7026 95.8966 36.4783 95.738 36.0025C95.6879 35.2272 95.6691 34.7487 96.1725 34.1194C96.6782 33.5554 97.3466 33.5473 98.0556 33.6848Z" fill="#0F6EFF"/>
<path id="Vector_16" d="M48.9503 33.6838C49.6021 33.8467 49.6021 33.8467 49.9031 34.3181C49.9666 34.4156 50.0301 34.5132 50.0955 34.6137C50.1919 34.7674 50.1919 34.7674 50.2901 34.9241C50.3566 35.0271 50.4231 35.13 50.4916 35.2361C50.6553 35.4903 50.817 35.7457 50.9782 36.0014C51.026 35.2366 51.0738 34.4718 51.1231 33.6838C51.2665 33.6838 51.4099 33.6838 51.5576 33.6838C51.5576 34.831 51.5576 35.9783 51.5576 37.1603C50.9058 36.9973 50.9058 36.9973 50.6048 36.5576C50.5413 36.4666 50.4778 36.3756 50.4124 36.2818C50.3481 36.1863 50.2839 36.0908 50.2177 35.9924C50.1512 35.8963 50.0848 35.8002 50.0163 35.7013C49.8526 35.4643 49.691 35.226 49.5297 34.9875C49.4819 35.7045 49.4341 36.4215 49.3848 37.1603C49.2414 37.1603 49.098 37.1603 48.9503 37.1603C48.9503 36.013 48.9503 34.8658 48.9503 33.6838Z" fill="#0F6EFF"/>
<path id="Vector_17" d="M34.7546 33.6832C35.0533 33.6773 35.3521 33.6713 35.6599 33.6651C35.912 33.6601 35.912 33.6601 36.1692 33.6549C36.6163 33.6819 36.8591 33.7092 37.2171 33.9729C37.4413 34.8376 37.4413 34.8376 37.208 35.2766C36.9896 35.7427 37.21 36.1075 37.3619 36.5803C37.3619 36.7715 37.3619 36.9627 37.3619 37.1597C37.2185 37.1597 37.0751 37.1597 36.9274 37.1597C36.8318 36.6817 36.7362 36.2037 36.6377 35.7112C36.1597 35.7112 35.6816 35.7112 35.1891 35.7112C35.1891 36.1892 35.1891 36.6672 35.1891 37.1597C35.0457 37.1597 34.9023 37.1597 34.7546 37.1597C34.7546 36.0125 34.7546 34.8652 34.7546 33.6832ZM35.1891 34.1178C35.1891 34.5002 35.1891 34.8826 35.1891 35.2766C35.4003 35.2844 35.6116 35.2901 35.8229 35.2947C35.9993 35.2998 35.9993 35.2998 36.1793 35.3049C36.5237 35.3076 36.5237 35.3076 36.7825 34.9869C36.8067 34.6127 36.8067 34.6127 36.7825 34.2626C36.4341 34.0884 36.2104 34.1032 35.8229 34.1087C35.7045 34.11 35.5861 34.1114 35.4641 34.1127C35.3734 34.1144 35.2826 34.1161 35.1891 34.1178Z" fill="#0F6EFF"/>
<path id="Vector_18" d="M139.628 33.6833C140.027 33.9993 140.271 34.2442 140.497 34.6973C140.574 35.3944 140.621 36.0574 140.226 36.6619C139.914 37.0198 139.801 37.1455 139.335 37.1841C139.167 37.1855 139.167 37.1855 138.995 37.187C138.883 37.189 138.771 37.1911 138.656 37.1932C138.285 37.1558 138.06 37.0693 137.745 36.8701C137.303 36.2065 137.196 35.6179 137.311 34.8422C137.599 34.0638 137.599 34.0638 138.011 33.8084C138.547 33.5949 139.063 33.5815 139.628 33.6833ZM138.125 34.3895C137.734 34.9008 137.695 35.2127 137.745 35.8561C138.001 36.3938 138.001 36.3938 138.469 36.7252C138.924 36.7648 139.249 36.7616 139.674 36.5894C140.064 36.1123 140.094 35.5919 140.063 34.987C139.897 34.6262 139.76 34.3946 139.483 34.1179C138.748 34.0426 138.748 34.0426 138.125 34.3895Z" fill="#0F6EFF"/>
<path id="Vector_19" d="M122.068 33.6234C122.587 33.7224 122.815 33.9925 123.115 34.4093C123.115 34.5527 123.115 34.6961 123.115 34.8439C122.844 34.7986 122.844 34.7986 122.536 34.699C122.44 34.5556 122.345 34.4122 122.246 34.2644C121.799 34.2282 121.799 34.2282 121.377 34.2644C121.329 34.4557 121.281 34.6469 121.232 34.8439C121.332 34.8702 121.431 34.8965 121.534 34.9236C121.664 34.9601 121.795 34.9965 121.929 35.034C122.059 35.0693 122.188 35.1046 122.321 35.1409C122.696 35.2844 122.877 35.3931 123.115 35.713C123.179 36.22 123.179 36.22 123.115 36.727C122.701 37.1354 122.386 37.224 121.812 37.2249C121.321 37.209 121.128 37.1874 120.707 36.9171C120.476 36.5286 120.459 36.3024 120.508 35.8578C120.651 35.8578 120.795 35.8578 120.942 35.8578C120.99 36.0968 121.038 36.3358 121.087 36.5821C121.518 36.5821 121.948 36.5821 122.391 36.5821C122.439 36.3909 122.487 36.1997 122.536 36.0027C122.271 35.9086 122.271 35.9086 122.002 35.8126C120.978 35.4179 120.978 35.4179 120.653 35.1336C120.531 34.2827 120.531 34.2827 120.835 33.8752C121.235 33.5738 121.582 33.6083 122.068 33.6234Z" fill="#0F6EFF"/>
<path id="Vector_20" d="M74.8795 33.6838C76.7177 33.6838 76.7177 33.6838 77.1972 34.1183C77.6248 34.6345 77.7012 35.072 77.673 35.7225C77.5885 36.2934 77.3245 36.6103 76.9075 36.9882C76.4729 37.1603 76.4729 37.1603 74.8795 37.1603C74.8795 36.013 74.8795 34.8658 74.8795 33.6838ZM75.3141 34.1183C75.3141 34.9788 75.3141 35.8392 75.3141 36.7257C76.2144 36.7984 76.2144 36.7984 76.9075 36.436C77.1392 35.8039 77.229 35.4491 77.1066 34.7883C76.9385 34.4067 76.9385 34.4067 76.663 34.2089C76.2227 34.0742 76.2227 34.0742 75.3141 34.1183Z" fill="#0F6EFF"/>
<path id="Vector_21" d="M44.1704 33.6838C44.9831 33.6838 45.7957 33.6838 46.6329 33.6838C46.6329 33.8272 46.6329 33.9706 46.6329 34.1183C45.9637 34.1183 45.2945 34.1183 44.605 34.1183C44.605 34.4529 44.605 34.7876 44.605 35.1323C45.2264 35.1323 45.8478 35.1323 46.4881 35.1323C46.4881 35.2757 46.4881 35.4191 46.4881 35.5669C45.8667 35.5669 45.2453 35.5669 44.605 35.5669C44.605 35.9493 44.605 36.3317 44.605 36.7257C45.2742 36.7257 45.9434 36.7257 46.6329 36.7257C46.6329 36.8691 46.6329 37.0125 46.6329 37.1603C45.8203 37.1603 45.0077 37.1603 44.1704 37.1603C44.1704 36.013 44.1704 34.8658 44.1704 33.6838Z" fill="#0F6EFF"/>
<path id="Vector_22" d="M66.9119 33.6838C67.6768 33.6838 68.4416 33.6838 69.2296 33.6838C69.2296 33.8272 69.2296 33.9706 69.2296 34.1183C68.6082 34.1183 67.9867 34.1183 67.3465 34.1183C67.3465 34.4529 67.3465 34.7876 67.3465 35.1323C67.9679 35.1323 68.5893 35.1323 69.2296 35.1323C69.2296 35.2757 69.2296 35.4191 69.2296 35.5669C68.6082 35.5669 67.9867 35.5669 67.3465 35.5669C67.3465 35.9493 67.3465 36.3317 67.3465 36.7257C68.0157 36.7257 68.6849 36.7257 69.3744 36.7257C69.3744 36.8691 69.3744 37.0125 69.3744 37.1603C68.5618 37.1603 67.7492 37.1603 66.9119 37.1603C66.9119 36.013 66.9119 34.8658 66.9119 33.6838Z" fill="#0F6EFF"/>
<path id="Vector_23" d="M126.447 33.6838C126.639 33.6838 126.83 33.6838 127.027 33.6838C127.221 34.1813 127.414 34.6794 127.606 35.1776C127.662 35.319 127.717 35.4605 127.774 35.6062C127.826 35.742 127.878 35.8779 127.932 36.0178C127.981 36.143 128.029 36.2682 128.079 36.3971C128.186 36.7257 128.186 36.7257 128.186 37.1603C127.994 37.1125 127.803 37.0647 127.606 37.0154C127.558 36.7286 127.511 36.4418 127.461 36.1463C126.965 36.1481 126.495 36.1678 126.013 36.2911C125.689 36.7093 125.689 36.7093 125.578 37.1603C125.435 37.1603 125.291 37.1603 125.144 37.1603C125.23 36.6627 125.357 36.2271 125.556 35.7632C125.608 35.6414 125.66 35.5195 125.713 35.394C125.794 35.2062 125.794 35.2062 125.877 35.0146C125.959 34.8226 125.959 34.8226 126.043 34.6267C126.177 34.3121 126.312 33.9978 126.447 33.6838ZM126.592 34.408C126.449 34.8383 126.305 35.2685 126.158 35.7117C126.492 35.7117 126.827 35.7117 127.172 35.7117C127.028 35.2815 126.885 34.8513 126.737 34.408C126.689 34.408 126.642 34.408 126.592 34.408Z" fill="#0F6EFF"/>
<path id="Vector_24" d="M109.355 33.6838C109.546 33.6838 109.737 33.6838 109.934 33.6838C110.128 34.1813 110.321 34.6794 110.513 35.1776C110.569 35.319 110.624 35.4605 110.681 35.6062C110.733 35.742 110.786 35.8779 110.839 36.0178C110.888 36.143 110.936 36.2682 110.987 36.3971C111.093 36.7257 111.093 36.7257 111.093 37.1603C110.902 37.1125 110.71 37.0647 110.513 37.0154C110.466 36.7286 110.418 36.4418 110.369 36.1463C109.873 36.1481 109.402 36.1678 108.92 36.2911C108.596 36.7093 108.596 36.7093 108.486 37.1603C108.342 37.1603 108.199 37.1603 108.051 37.1603C108.138 36.6627 108.265 36.2271 108.463 35.7632C108.515 35.6414 108.567 35.5195 108.62 35.394C108.702 35.2062 108.702 35.2062 108.784 35.0146C108.866 34.8226 108.866 34.8226 108.95 34.6267C109.084 34.3121 109.219 33.9978 109.355 33.6838ZM109.499 34.408C109.356 34.8383 109.213 35.2685 109.065 35.7117C109.4 35.7117 109.734 35.7117 110.079 35.7117C109.936 35.2815 109.792 34.8513 109.644 34.408C109.597 34.408 109.549 34.408 109.499 34.408Z" fill="#0F6EFF"/>
<path id="Vector_25" d="M79.9491 33.6838C80.714 33.6838 81.4788 33.6838 82.2668 33.6838C82.2668 33.8272 82.2668 33.9706 82.2668 34.1183C81.6454 34.1183 81.0239 34.1183 80.3837 34.1183C80.3837 34.4529 80.3837 34.7876 80.3837 35.1323C80.9573 35.1323 81.5309 35.1323 82.1219 35.1323C82.1219 35.2757 82.1219 35.4191 82.1219 35.5669C81.5483 35.5669 80.9747 35.5669 80.3837 35.5669C80.3837 35.9493 80.3837 36.3317 80.3837 36.7257C81.0051 36.7257 81.6265 36.7257 82.2668 36.7257C82.2668 36.8691 82.2668 37.0125 82.2668 37.1603C81.502 37.1603 80.7371 37.1603 79.9491 37.1603C79.9491 36.013 79.9491 34.8658 79.9491 33.6838Z" fill="#0F6EFF"/>
<path id="Vector_26" d="M55.0344 33.6838C55.3138 33.7076 55.3138 33.7076 55.6138 33.8286C55.786 34.1041 55.786 34.1041 55.9239 34.4612C55.9995 34.6537 55.9995 34.6537 56.0767 34.85C56.1271 34.985 56.1775 35.12 56.2295 35.2591C56.2821 35.3929 56.3348 35.5268 56.389 35.6648C56.7727 36.6585 56.7727 36.6585 56.7727 37.1603C56.5011 37.1331 56.5011 37.1331 56.1932 37.0154C56.0122 36.6442 56.0122 36.6442 55.9035 36.2911C55.4733 36.2911 55.0431 36.2911 54.5999 36.2911C54.4565 36.5779 54.3131 36.8648 54.1653 37.1603C54.0219 37.1603 53.8785 37.1603 53.7307 37.1603C53.8373 36.4322 54.1138 35.7761 54.3826 35.0961C54.4523 34.9163 54.4523 34.9163 54.5235 34.7328C54.8701 33.8481 54.8701 33.8481 55.0344 33.6838ZM55.1793 34.408C55.0359 34.8383 54.8925 35.2685 54.7447 35.7117C55.0793 35.7117 55.4139 35.7117 55.7587 35.7117C55.6153 35.2815 55.4719 34.8513 55.3241 34.408C55.2763 34.408 55.2285 34.408 55.1793 34.408Z" fill="#0F6EFF"/>
<path id="Vector_27" d="M30.8442 33.6838C31.1236 33.7053 31.1236 33.7053 31.4236 33.8286C31.5958 34.1197 31.5958 34.1197 31.7337 34.498C31.7841 34.6335 31.8345 34.7689 31.8865 34.9085C31.9369 35.0511 31.9873 35.1937 32.0392 35.3405C32.0919 35.4825 32.1446 35.6245 32.1988 35.7709C32.5824 36.8186 32.5824 36.8186 32.5824 37.1603C32.3108 37.1331 32.3108 37.1331 32.003 37.0154C31.822 36.6442 31.822 36.6442 31.7133 36.2911C31.2353 36.2433 30.7573 36.1955 30.2648 36.1463C30.2439 36.2598 30.223 36.3733 30.2014 36.4903C30.1199 36.8705 30.1199 36.8705 29.9751 37.1603C29.8317 37.1603 29.6883 37.1603 29.5405 37.1603C29.6299 36.382 29.8892 35.7287 30.1924 35.0146C30.2621 34.8461 30.2621 34.8461 30.3333 34.6743C30.678 33.85 30.678 33.85 30.8442 33.6838ZM30.9891 34.408C30.8457 34.8383 30.7023 35.2685 30.5545 35.7117C30.8891 35.7117 31.2237 35.7117 31.5685 35.7117C31.4251 35.2815 31.2817 34.8513 31.1339 34.408C31.0861 34.408 31.0383 34.408 30.9891 34.408Z" fill="#0F6EFF"/>
<path id="Vector_28" d="M25.3398 33.6838C27.0791 33.5959 27.0791 33.5959 27.7118 33.9825C27.9471 34.408 27.9471 34.408 27.9471 34.9422C27.8023 35.422 27.8023 35.422 27.3677 35.7117C26.9767 35.74 26.9767 35.74 26.5439 35.7298C26.3279 35.7259 26.3279 35.7259 26.1076 35.7219C25.9976 35.7185 25.8877 35.7152 25.7743 35.7117C25.7743 36.1897 25.7743 36.6677 25.7743 37.1602C25.6309 37.1602 25.4875 37.1602 25.3398 37.1602C25.3398 36.013 25.3398 34.8658 25.3398 33.6838ZM25.7743 34.1183C25.7743 34.5007 25.7743 34.8831 25.7743 35.2771C26.0127 35.281 26.2511 35.2839 26.4896 35.2862C26.6887 35.2887 26.6887 35.2887 26.8919 35.2913C27.2179 35.3147 27.2179 35.3147 27.3677 35.1323C27.404 34.7762 27.404 34.7762 27.3677 34.408C27.1089 34.0874 27.1089 34.0874 26.7646 34.09C26.6469 34.0934 26.5293 34.0968 26.4081 34.1002C26.2305 34.1041 26.2305 34.1041 26.0493 34.1081C25.9132 34.1132 25.9132 34.1132 25.7743 34.1183Z" fill="#0F6EFF"/>
<path id="Vector_29" d="M129.634 33.6838C130.542 33.6838 131.45 33.6838 132.386 33.6838C132.386 33.8272 132.386 33.9706 132.386 34.1183C132.003 34.1183 131.621 34.1183 131.227 34.1183C131.227 35.1222 131.227 36.126 131.227 37.1603C131.084 37.1603 130.94 37.1603 130.792 37.1603C130.792 36.1564 130.792 35.1526 130.792 34.1183C130.41 34.1183 130.028 34.1183 129.634 34.1183C129.634 33.9749 129.634 33.8315 129.634 33.6838Z" fill="#0F6EFF"/>
<path id="Vector_30" d="M103.849 33.6838C104.758 33.6838 105.666 33.6838 106.602 33.6838C106.602 33.8272 106.602 33.9706 106.602 34.1183C106.219 34.1183 105.837 34.1183 105.443 34.1183C105.443 35.1222 105.443 36.126 105.443 37.1603C105.299 37.1603 105.156 37.1603 105.008 37.1603C105.008 36.1564 105.008 35.1526 105.008 34.1183C104.626 34.1183 104.243 34.1183 103.849 34.1183C103.849 33.9749 103.849 33.8315 103.849 33.6838Z" fill="#0F6EFF"/>
<path id="Vector_31" d="M39.39 33.6838C40.2982 33.6838 41.2064 33.6838 42.1422 33.6838C42.1422 33.8272 42.1422 33.9706 42.1422 34.1183C41.7598 34.1183 41.3773 34.1183 40.9833 34.1183C40.9833 35.1222 40.9833 36.126 40.9833 37.1603C40.8399 37.1603 40.6965 37.1603 40.5488 37.1603C40.5488 36.1564 40.5488 35.1526 40.5488 34.1183C40.1664 34.1183 39.784 34.1183 39.39 34.1183C39.39 33.9749 39.39 33.8315 39.39 33.6838Z" fill="#0F6EFF"/>
<path id="Vector_32" d="M113.265 33.6838C113.408 33.6838 113.551 33.6838 113.699 33.6838C113.699 34.6876 113.699 35.6914 113.699 36.7257C114.321 36.7257 114.942 36.7257 115.582 36.7257C115.582 36.8691 115.582 37.0125 115.582 37.1603C114.817 37.1603 114.053 37.1603 113.265 37.1603C113.265 36.013 113.265 34.8658 113.265 33.6838Z" fill="#0F6EFF"/>
<path id="Vector_33" d="M134.558 33.6838C134.701 33.6838 134.845 33.6838 134.992 33.6838C134.992 34.831 134.992 35.9783 134.992 37.1603C134.849 37.1603 134.706 37.1603 134.558 37.1603C134.558 36.013 134.558 34.8658 134.558 33.6838Z" fill="#0F6EFF"/>
<path id="Vector_34" d="M117.756 33.6838C117.899 33.6838 118.043 33.6838 118.191 33.6838C118.191 34.831 118.191 35.9783 118.191 37.1603C118.047 37.1603 117.904 37.1603 117.756 37.1603C117.756 36.013 117.756 34.8658 117.756 33.6838Z" fill="#0F6EFF"/>
<path id="Vector_35" d="M101.243 33.6838C101.386 33.6838 101.529 33.6838 101.677 33.6838C101.677 34.831 101.677 35.9783 101.677 37.1603C101.534 37.1603 101.39 37.1603 101.243 37.1603C101.243 36.013 101.243 34.8658 101.243 33.6838Z" fill="#0F6EFF"/>
<path id="Vector_36" d="M92.9856 33.6838C93.129 33.6838 93.2724 33.6838 93.4202 33.6838C93.4202 34.831 93.4202 35.9783 93.4202 37.1603C93.2768 37.1603 93.1333 37.1603 92.9856 37.1603C92.9856 36.013 92.9856 34.8658 92.9856 33.6838Z" fill="#0F6EFF"/>
<path id="Vector_37" d="M58.9452 33.6838C59.0886 33.6838 59.232 33.6838 59.3798 33.6838C59.3798 34.831 59.3798 35.9783 59.3798 37.1603C59.2363 37.1603 59.0929 37.1603 58.9452 37.1603C58.9452 36.013 58.9452 34.8658 58.9452 33.6838Z" fill="#0F6EFF"/>
</g>
</g>
</svg>
