<svg width="220" height="95" viewBox="0 0 220 95" fill="none" xmlns="http://www.w3.org/2000/svg">
<g id="eventily  blanc">
<path id="Vector" d="M31.2316 69.8849C29.4877 76.8206 24.33 82.6285 15.8908 82.6285C5.4942 82.6285 0 74.4719 0 64.7526C0 54.3194 5.78892 48.1406 13.3624 47.0302C14.9672 46.7942 16.753 46.7988 18.36 46.9942C25.8929 47.9092 31.6714 53.1892 31.7782 64.4387H13.1524V63.3143C24.048 63.3143 20.0727 47.8441 16.1159 47.4721C14.0911 47.2814 12.0559 50.7917 12.0559 62.8957C12.0559 68.4199 12.6477 78.4112 18.3241 80.1705C22.2089 81.3739 27.8516 76.7253 29.9123 69.8849H31.2316Z" fill="white"/>
<path id="Vector_2" d="M43.0613 82.1007L32.8225 49.3709C32.4048 48.0337 31.8107 47.8024 30.8441 47.8024V46.6466H46.9844V47.8024C45.8566 47.8024 44.7484 48.1419 45.1383 49.3732C49.7878 64.1178 50.2357 65.8119 54.8852 80.5566C59.19 66.6235 59.4546 65.7399 63.7594 51.8068C65.1054 47.4477 60.2842 47.8024 57.3752 47.8024V46.6466H73.0688V47.8024C69.857 47.8024 65.7076 48.7244 64.6262 52.2254L55.405 82.1018H43.0602L43.0613 82.1007Z" fill="white"/>
<path id="Vector_3" d="M70.27 64.7527C70.27 54.3195 76.0589 48.1407 83.6325 47.0303C85.2372 46.7942 87.023 46.8001 88.6312 46.9942C96.163 47.9093 101.943 53.1893 102.048 64.4387H83.4236V63.3144C94.3192 63.3144 90.3439 47.8442 86.3871 47.4721C84.3623 47.2814 82.3271 50.7929 82.3271 62.8958C82.3271 68.3897 82.9293 78.3915 88.6904 80.1705C101.205 84.0354 114.566 60.0064 120.126 52.1719C127.759 41.2282 138.932 47.8779 138.383 60.5529V79.4589C138.383 80.7379 139.395 81.0275 140.36 81.0275V82.1844H124.665V81.0275C125.793 81.0275 126.644 80.5938 126.644 79.4589C126.644 74.8092 126.644 68.9746 126.642 64.3248V63.2504C126.642 54.3009 126.163 51.5405 124.487 51.2289C122.238 50.8103 118.508 56.7752 118.508 61.0005V79.0403C118.508 80.2263 118.866 81.0019 120.485 81.0019V82.1844H104.791V81.0019C106.408 81.0019 106.768 80.2263 106.768 79.0403V73.5708C103.777 77.0614 99.9004 80.167 96.0005 81.5867C92.7957 82.7553 89.3994 83.0297 86.0135 82.8716C75.7225 82.3902 70.2712 74.215 70.2712 64.7527H70.27ZM106.767 46.7291H107.454L108.446 48.136L111.715 52.7765L114.209 56.3159L115.034 57.4879C112.7 61.0122 109.867 65.148 106.767 68.8664V46.7291Z" fill="white"/>
<path id="Vector_4" d="M154.482 32.7996H155.524V46.6454H166.152V47.8337H155.524C155.524 55.6566 155.497 63.4562 155.497 71.2674C155.497 76.0428 155.947 78.4601 157.432 79.4333C158.987 80.453 162.327 80.0949 166.3 77.0509L166.689 77.9101C162.911 81.4646 157.495 83.1494 152.595 82.6053C145.918 81.8623 143.289 76.9381 143.541 71.0047V47.8337H139.642V46.6454H143.971C152.663 45.6059 154.482 41.0829 154.482 32.7996Z" fill="white"/>
<path id="Vector_5" d="M181.783 79.0414C181.783 80.2274 182.143 81.003 183.76 81.003V82.1855H168.067V81.003C169.684 81.003 170.045 80.2274 170.045 79.0414V48.5278C170.045 47.672 168.399 47.8499 168.067 47.8499V46.6453H183.76V47.8499C182.085 47.8499 181.783 48.6964 181.783 49.7487V79.0414ZM175.914 31.8705C179.277 31.8705 182.002 34.6017 182.002 37.9702C182.002 41.3386 179.277 44.0699 175.914 44.0699C172.551 44.0699 169.827 41.3386 169.827 37.9702C169.827 34.6017 172.553 31.8705 175.914 31.8705Z" fill="white"/>
<path id="Vector_6" d="M218.023 79.0414C218.023 80.2274 218.382 81.003 220 81.003V82.1855H204.306V81.003C205.924 81.003 206.285 80.2274 206.285 79.0414V48.5278C206.285 47.672 204.638 47.8499 204.306 47.8499V46.6453H220V47.8499C218.324 47.8499 218.023 48.6964 218.023 49.7487V79.0414ZM212.154 31.8705C215.516 31.8705 218.242 34.6017 218.242 37.9702C218.242 41.3386 215.516 44.0699 212.154 44.0699C208.791 44.0699 206.067 41.3386 206.067 37.9702C206.067 34.6017 208.792 31.8705 212.154 31.8705Z" fill="white"/>
<path id="Vector_7" d="M201.88 34.8832V33.6786H186.187V34.8832C186.517 34.8832 188.164 34.7064 188.164 35.5622V46.7024C188.261 46.6477 188.373 46.614 188.493 46.614C188.867 46.614 189.171 46.9175 189.171 47.293C189.171 47.6686 188.868 47.9721 188.493 47.9721C188.374 47.9721 188.262 47.9384 188.164 47.8837V47.9721H188.148V79.431C188.064 80.3937 187.62 81.0042 186.187 81.0042V82.1867H201.88V81.0042C200.364 81.0042 199.953 80.3228 199.908 79.2601V47.9721H199.903V47.9267C199.829 47.9546 199.75 47.9721 199.666 47.9721C199.293 47.9721 198.989 47.6686 198.989 47.293C198.989 46.9175 199.291 46.614 199.666 46.614C199.75 46.614 199.83 46.6314 199.903 46.6594V36.7831C199.903 35.7308 200.203 34.8832 201.88 34.8832ZM191.202 47.9709C190.828 47.9709 190.524 47.6674 190.524 47.2919C190.524 46.9163 190.827 46.6128 191.202 46.6128C191.576 46.6128 191.879 46.9163 191.879 47.2919C191.879 47.6674 191.576 47.9709 191.202 47.9709ZM194.024 47.9709C193.65 47.9709 193.346 47.6674 193.346 47.2919C193.346 46.9163 193.649 46.6128 194.024 46.6128C194.398 46.6128 194.701 46.9163 194.701 47.2919C194.701 47.6674 194.398 47.9709 194.024 47.9709ZM196.845 47.9709C196.472 47.9709 196.168 47.6674 196.168 47.2919C196.168 46.9163 196.471 46.6128 196.845 46.6128C197.22 46.6128 197.523 46.9163 197.523 47.2919C197.523 47.6674 197.22 47.9709 196.845 47.9709Z" fill="white"/>
<g id="Group" opacity="0.4">
<path id="Vector_8" d="M96.7257 15.6818C95.57 15.4877 94.3876 15.29 93.2134 15.0935C93.073 15.9249 92.9291 16.7713 92.7841 17.6225C93.9444 17.8097 95.1152 17.9992 96.315 18.1922C96.4542 17.3411 96.59 16.5086 96.7257 15.6818Z" fill="#59EFB2"/>
<path id="Vector_9" d="M85.3683 32.5333C85.5563 30.8497 85.7222 29.1637 85.9044 27.4789C86.0738 25.9081 86.256 24.3372 86.4254 22.7664C86.6157 21.0025 86.7979 19.2386 86.9928 17.3853C87.9071 17.5225 88.7716 17.6515 89.6964 17.7899C89.8159 16.8795 89.9238 16.0516 90.041 15.1482C89.1708 14.9493 88.2576 14.9482 87.269 14.7854C87.392 13.8366 87.5208 12.889 87.6356 11.939C87.7807 10.7426 87.9292 9.5461 88.0464 8.34616C88.1729 7.05436 88.2413 5.75559 88.3841 4.46612C88.4444 3.92312 88.6196 3.40454 89.1232 3.04874C89.5954 2.71388 90.1199 2.68365 90.6479 2.69527C91.1549 2.7069 91.6597 2.78946 92.1656 2.85108C92.8571 2.9348 93.5487 3.02898 94.2356 3.11735C94.5861 5.58118 97.35 8.36244 99.6892 8.98334C102.22 9.6554 104.561 9.15775 106.366 7.97525C107.137 6.90321 107.924 5.84163 108.67 4.75331C109.351 3.75918 110.239 3.00456 111.288 2.45924C111.374 2.41505 111.465 2.3825 111.559 2.35576C110.907 2.28599 110.258 2.20809 109.609 2.11507C108.324 1.93136 107.267 2.66155 106.781 3.6522C106.435 4.35566 105.988 4.90331 105.317 5.37537C104.557 6.15324 103.552 6.46253 102.437 6.58694C101.563 6.68461 100.746 6.49392 99.9747 6.19278C99.391 5.96488 98.8445 5.56374 98.3769 5.13353C97.7805 4.58355 97.2676 3.92196 97.0831 3.10456C96.909 2.3325 96.5621 1.67439 96.0249 1.11512C95.671 0.746532 95.244 0.510497 94.7137 0.457011C93.3491 0.320971 91.9892 0.130283 90.6223 0.0209858C89.4852 -0.0697074 88.4003 0.122144 87.5068 0.930244C87.2295 1.18139 86.8663 1.37092 86.6691 1.67323C86.1318 2.49761 85.7965 3.40803 85.7083 4.40682C85.6074 5.54746 85.4623 6.68461 85.3358 7.82409C84.534 15.0482 83.7334 22.2722 82.9316 29.4963C82.4849 33.5193 82.0358 37.5412 81.5914 41.5643H82.2354C83.0662 40.4062 83.8993 39.2481 84.7301 38.0901C84.9402 36.2378 85.1618 34.3867 85.3672 32.5345L85.3683 32.5333Z" fill="#59EFB2"/>
<g id="Group_2">
<path id="Vector_10" d="M100.387 16.3237C99.9874 16.2551 99.5871 16.1865 99.1833 16.1167C99.0928 16.9353 98.8468 17.7376 98.8213 18.5038C99.3434 17.7771 99.8656 17.0504 100.388 16.3237H100.387Z" fill="#59EFB2"/>
<path id="Vector_11" d="M102.372 19.1294C102.356 19.1526 102.341 19.1747 102.324 19.1968C102.349 19.1829 102.368 19.1643 102.386 19.1399C102.381 19.1364 102.377 19.1329 102.372 19.1294Z" fill="#59EFB2"/>
</g>
<path id="Vector_12" d="M92.574 27.1976C91.792 27.1546 91.2536 27.572 91.17 28.3696C91.1457 28.6057 91.1631 28.8464 91.235 29.0615C91.6817 28.4406 92.1273 27.8185 92.574 27.1976Z" fill="#59EFB2"/>
</g>
<g id="Group_3">
<path id="Vector_13" d="M102.59 33.0611C101.682 32.4065 100.765 32.5239 100.2 33.4239C99.7937 34.0704 99.702 34.918 100.457 35.4575C102.082 36.6168 103.706 37.7748 105.325 38.9399C106.539 39.8131 107.75 40.6887 108.963 41.563H114.377C113.551 40.97 112.725 40.3736 111.9 39.7782C108.797 37.5388 105.695 35.2971 102.59 33.0611Z" fill="#59EFB2"/>
<path id="Vector_14" d="M96.5436 37.9086C96.1375 38.555 96.0458 39.4027 96.8012 39.9422C97.5577 40.4817 98.3119 41.0235 99.0685 41.5642H104.502C102.647 40.2247 100.792 38.8841 98.9339 37.547C98.0253 36.8923 97.1087 37.0098 96.5436 37.9097V37.9086Z" fill="#59EFB2"/>
<path id="Vector_15" d="M113.449 27.1103C114.481 27.887 115.437 28.6021 116.388 29.323C116.935 29.7392 116.993 29.7334 117.381 29.152C117.403 29.1195 117.429 29.0892 117.453 29.059C117.91 28.4742 118.368 27.8893 118.839 27.287C117.563 26.3615 116.384 25.5069 115.161 24.6185C114.608 25.4906 113.877 26.2533 113.449 27.1103Z" fill="#59EFB2"/>
<path id="Vector_16" d="M119.425 31.5275C120.665 32.4089 121.847 33.2495 123.116 34.153C123.715 33.2553 124.285 32.4031 124.91 31.4671C123.724 30.6497 122.506 29.8113 121.275 28.9625C120.68 29.7892 120.054 30.6566 119.425 31.5287V31.5275Z" fill="#59EFB2"/>
<path id="Vector_17" d="M109.257 20.3455C108.666 21.1675 108.063 22.0058 107.458 22.8477C108.611 23.6662 109.775 24.4906 110.967 25.3371C111.568 24.4918 112.154 23.6662 112.737 22.8453C111.593 22.0233 110.421 21.1815 109.257 20.3455Z" fill="#59EFB2"/>
<path id="Vector_18" d="M140.573 21.5245C140.241 20.6059 139.6 19.7676 138.733 19.1676C137.488 18.3084 136.252 17.4363 135.053 16.5143C133.816 15.562 132.278 15.7015 131.185 16.4515C130.409 16.984 129.617 17.2921 128.636 17.3898C127.383 17.7549 126.147 17.484 124.906 16.9549C123.933 16.541 123.19 15.8573 122.558 15.0853C122.081 14.5016 121.745 13.7574 121.509 13.0307C121.208 12.1017 121.062 11.1052 121.35 10.1413C121.623 9.22974 121.647 8.3356 121.414 7.43099C121.261 6.83567 120.954 6.33569 120.429 5.96711C119.08 5.01715 117.768 4.01255 116.402 3.0905C115.263 2.3231 114.015 1.88126 112.604 2.19985C112.165 2.29868 111.673 2.2824 111.289 2.4824C110.24 3.02772 109.353 3.78233 108.671 4.77647C107.893 5.9113 107.071 7.01706 106.268 8.13444C101.173 15.2271 96.0783 22.3186 90.9821 29.4113C88.072 33.4623 85.1607 37.5121 82.2517 41.563H86.3083C86.6273 41.1131 86.9464 40.6619 87.269 40.2143C88.7542 38.1493 90.2592 36.0994 91.7444 34.0332C92.9326 32.3809 94.0999 30.7136 95.2835 29.0567C96.3869 27.5114 97.502 25.9743 98.6055 24.429C99.8436 22.6942 101.074 20.9547 102.37 19.1281C103.247 19.8129 104.075 20.4583 104.963 21.1501C105.624 20.2664 106.225 19.4641 106.881 18.5874C106.087 17.8642 105.131 17.3235 104.191 16.5678C104.879 15.6457 105.572 14.7295 106.252 13.8039C107.108 12.6365 107.969 11.4715 108.799 10.2843C109.693 9.00533 110.529 7.68679 111.439 6.41941C111.822 5.88572 112.31 5.44737 113.047 5.37179C113.74 5.30086 114.306 5.57876 114.851 5.90432C115.376 6.21593 115.856 6.60196 116.348 6.9659C117.024 7.46355 117.692 7.96934 118.359 8.46931C117.274 11.2575 118.531 15.8062 120.615 17.8398C124.401 21.5338 129.567 21.464 133.043 19.0514C133.474 19.3525 133.927 19.663 134.373 19.9839C134.788 20.2827 135.189 20.6036 135.606 20.8989C136.316 21.3977 137.103 21.8477 137.494 22.6477C137.895 23.4663 137.674 24.2918 137.158 25.0162C135.881 26.8091 134.59 28.5916 133.305 30.3787C132.296 31.7833 131.286 33.1879 130.275 34.5901C130.163 34.7448 130.043 34.8936 129.875 35.111C128.954 34.4541 128.069 33.8216 127.262 33.246C126.593 34.0878 125.954 34.8901 125.308 35.7005C126.244 36.3842 127.112 37.0191 128.025 37.6876C127.721 38.1306 127.464 38.5202 127.193 38.8981C126.555 39.7864 125.915 40.6747 125.277 41.563H129.19C132.244 37.3144 135.297 33.0658 138.344 28.8125C139.05 27.8265 139.744 26.8242 140.36 25.7801C141.163 24.4197 141.072 22.914 140.569 21.5233L140.573 21.5245Z" fill="#59EFB2"/>
</g>
</g>
</svg>
