<svg width="1896" height="818" viewBox="0 0 1896 818" fill="none" xmlns="http://www.w3.org/2000/svg">
<g clip-path="url(#clip0_4002_27)">
<path d="M269.16 601.54C254.13 661.19 209.68 711.14 136.95 711.14C47.35 711.14 0 640.99 0 557.4C0 467.67 49.89 414.53 115.16 404.98C128.99 402.95 144.38 402.99 158.23 404.67C223.15 412.54 272.95 457.95 273.87 554.7H113.35V545.03C207.25 545.03 172.99 411.98 138.89 408.78C121.44 407.14 103.9 437.33 103.9 541.43C103.9 588.94 109 674.87 157.92 690C191.4 700.35 240.03 660.37 257.79 601.54H269.16Z" fill="black"/>
<path d="M371.11 706.6L282.87 425.11C279.27 413.61 274.15 411.62 265.82 411.62V401.68H404.92V411.62C395.2 411.62 385.65 414.54 389.01 425.13C429.08 551.94 432.94 566.51 473.01 693.32C510.11 573.49 512.39 565.89 549.49 446.06C561.09 408.57 519.54 411.62 494.47 411.62V401.68H629.72V411.62C602.04 411.62 566.28 419.55 556.96 449.66L477.49 706.61H371.1L371.11 706.6Z" fill="black"/>
<path d="M605.602 557.4C605.602 467.67 655.492 414.53 720.762 404.98C734.592 402.95 749.982 403 763.842 404.67C828.752 412.54 878.562 457.95 879.472 554.7H718.962V545.03C812.862 545.03 778.602 411.98 744.502 408.78C727.052 407.14 709.512 437.34 709.512 541.43C709.512 588.68 714.702 674.7 764.352 690C872.202 723.24 987.352 516.58 1035.27 449.2C1101.05 355.08 1197.34 412.27 1192.61 521.28V683.88C1192.61 694.88 1201.33 697.37 1209.65 697.37V707.32H1074.39V697.37C1084.11 697.37 1091.44 693.64 1091.44 683.88C1091.44 643.89 1091.44 593.71 1091.42 553.72V544.48C1091.42 467.51 1087.3 443.77 1072.85 441.09C1053.47 437.49 1021.32 488.79 1021.32 525.13V680.28C1021.32 690.48 1024.41 697.15 1038.36 697.15V707.32H903.112V697.15C917.042 697.15 920.152 690.48 920.152 680.28V633.24C894.372 663.26 860.962 689.97 827.352 702.18C799.732 712.23 770.462 714.59 741.282 713.23C652.592 709.09 605.612 638.78 605.612 557.4H605.602ZM920.142 402.39H926.062L934.612 414.49L962.782 454.4L984.272 484.84L991.382 494.92C971.272 525.23 946.852 560.8 920.142 592.78V402.39Z" fill="black"/>
<path d="M1331.35 282.59H1340.33V401.67H1431.93V411.89H1340.33C1340.33 479.17 1340.1 546.25 1340.1 613.43C1340.1 654.5 1343.98 675.29 1356.78 683.66C1370.18 692.43 1398.96 689.35 1433.2 663.17L1436.56 670.56C1404 701.13 1357.32 715.62 1315.09 710.94C1257.55 704.55 1234.89 662.2 1237.06 611.17V411.89H1203.46V401.67H1240.77C1315.68 392.73 1331.35 353.83 1331.35 282.59Z" fill="black"/>
<path d="M1566.64 680.29C1566.64 690.49 1569.74 697.16 1583.68 697.16V707.33H1448.43V697.16C1462.37 697.16 1465.48 690.49 1465.48 680.29V417.86C1465.48 410.5 1451.29 412.03 1448.43 412.03V401.67H1583.68V412.03C1569.24 412.03 1566.64 419.31 1566.64 428.36V680.29ZM1516.06 274.6C1545.04 274.6 1568.53 298.09 1568.53 327.06C1568.53 356.03 1545.04 379.52 1516.06 379.52C1487.08 379.52 1463.6 356.03 1463.6 327.06C1463.6 298.09 1487.09 274.6 1516.06 274.6Z" fill="black"/>
<path d="M1878.96 680.29C1878.96 690.49 1882.06 697.16 1896 697.16V707.33H1760.75V697.16C1774.69 697.16 1777.8 690.49 1777.8 680.29V417.86C1777.8 410.5 1763.61 412.03 1760.75 412.03V401.67H1896V412.03C1881.56 412.03 1878.96 419.31 1878.96 428.36V680.29ZM1828.38 274.6C1857.36 274.6 1880.85 298.09 1880.85 327.06C1880.85 356.03 1857.36 379.52 1828.38 379.52C1799.4 379.52 1775.92 356.03 1775.92 327.06C1775.92 298.09 1799.41 274.6 1828.38 274.6Z" fill="black"/>
<path d="M1739.84 300.51V290.15H1604.59V300.51C1607.44 300.51 1621.63 298.99 1621.63 306.35V402.16C1622.47 401.69 1623.43 401.4 1624.47 401.4C1627.69 401.4 1630.31 404.01 1630.31 407.24C1630.31 410.47 1627.7 413.08 1624.47 413.08C1623.44 413.08 1622.48 412.79 1621.63 412.32V413.08H1621.49V683.64C1620.77 691.92 1616.94 697.17 1604.59 697.17V707.34H1739.84V697.17C1726.77 697.17 1723.23 691.31 1722.84 682.17V413.08H1722.8V412.69C1722.16 412.93 1721.48 413.08 1720.76 413.08C1717.54 413.08 1714.92 410.47 1714.92 407.24C1714.92 404.01 1717.53 401.4 1720.76 401.4C1721.48 401.4 1722.17 401.55 1722.8 401.79V316.85C1722.8 307.8 1725.39 300.51 1739.84 300.51ZM1647.81 413.07C1644.59 413.07 1641.97 410.46 1641.97 407.23C1641.97 404 1644.58 401.39 1647.81 401.39C1651.04 401.39 1653.65 404 1653.65 407.23C1653.65 410.46 1651.04 413.07 1647.81 413.07ZM1672.13 413.07C1668.91 413.07 1666.29 410.46 1666.29 407.23C1666.29 404 1668.9 401.39 1672.13 401.39C1675.36 401.39 1677.97 404 1677.97 407.23C1677.97 410.46 1675.36 413.07 1672.13 413.07ZM1696.45 413.07C1693.23 413.07 1690.61 410.46 1690.61 407.23C1690.61 404 1693.22 401.39 1696.45 401.39C1699.68 401.39 1702.29 404 1702.29 407.23C1702.29 410.46 1699.68 413.07 1696.45 413.07Z" fill="black"/>
<g opacity="0.4">
<path d="M833.603 135.37C823.643 133.7 813.453 132 803.333 130.31C802.123 137.46 800.883 144.74 799.633 152.06C809.633 153.67 819.723 155.3 830.063 156.96C831.263 149.64 832.433 142.48 833.603 135.37Z" fill="#59EFB2"/>
<path d="M735.722 280.3C737.342 265.82 738.772 251.32 740.342 236.83C741.802 223.32 743.372 209.81 744.832 196.3C746.472 181.13 748.042 165.96 749.722 150.02C757.602 151.2 765.052 152.31 773.022 153.5C774.052 145.67 774.982 138.55 775.992 130.78C768.492 129.07 760.622 129.06 752.102 127.66C753.162 119.5 754.272 111.35 755.262 103.18C756.512 92.89 757.792 82.6 758.802 72.28C759.892 61.17 760.482 50 761.712 38.91C762.232 34.24 763.742 29.78 768.082 26.72C772.152 23.84 776.672 23.58 781.222 23.68C785.592 23.78 789.942 24.49 794.302 25.02C800.262 25.74 806.222 26.55 812.142 27.31C815.162 48.5 838.982 72.42 859.142 77.76C880.952 83.54 901.132 79.26 916.682 69.09C923.332 59.87 930.112 50.74 936.542 41.38C942.412 32.83 950.062 26.34 959.102 21.65C959.842 21.27 960.632 20.99 961.442 20.76C955.822 20.16 950.222 19.49 944.632 18.69C933.562 17.11 924.452 23.39 920.262 31.91C917.282 37.96 913.422 42.67 907.642 46.73C901.092 53.42 892.432 56.08 882.822 57.15C875.292 57.99 868.252 56.35 861.602 53.76C856.572 51.8 851.862 48.35 847.832 44.65C842.692 39.92 838.272 34.23 836.682 27.2C835.182 20.56 832.192 14.9 827.562 10.09C824.512 6.92002 820.832 4.89002 816.262 4.43002C804.502 3.26002 792.782 1.62002 781.002 0.680023C771.202 -0.0999774 761.852 1.55002 754.152 8.50002C751.762 10.66 748.632 12.29 746.932 14.89C742.302 21.98 739.412 29.81 738.652 38.4C737.782 48.21 736.532 57.99 735.442 67.79C728.532 129.92 721.632 192.05 714.722 254.18C710.872 288.78 707.002 323.37 703.172 357.97H708.722C715.882 348.01 723.062 338.05 730.222 328.09C732.032 312.16 733.942 296.24 735.712 280.31L735.722 280.3Z" fill="#59EFB2"/>
<path d="M865.15 140.89C861.71 140.3 858.26 139.71 854.78 139.11C854 146.15 851.88 153.05 851.66 159.64C856.16 153.39 860.66 147.14 865.16 140.89H865.15Z" fill="#59EFB2"/>
<path d="M882.262 165.02C882.122 165.22 881.992 165.41 881.852 165.6C882.062 165.48 882.232 165.32 882.382 165.11C882.342 165.08 882.302 165.05 882.262 165.02Z" fill="#59EFB2"/>
<path d="M797.822 234.41C791.082 234.04 786.442 237.63 785.722 244.49C785.512 246.52 785.662 248.59 786.282 250.44C790.132 245.1 793.972 239.75 797.822 234.41Z" fill="#59EFB2"/>
</g>
<path d="M884.138 284.84C876.308 279.21 868.408 280.22 863.538 287.96C860.038 293.52 859.248 300.81 865.758 305.45C879.758 315.42 893.758 325.38 907.708 335.4C918.168 342.91 928.608 350.44 939.058 357.96H985.718C978.598 352.86 971.478 347.73 964.368 342.61C937.628 323.35 910.898 304.07 884.138 284.84Z" fill="#59EFB2"/>
<path d="M832.03 326.53C828.53 332.09 827.74 339.38 834.25 344.02C840.77 348.66 847.27 353.32 853.79 357.97H900.62C884.63 346.45 868.64 334.92 852.63 323.42C844.8 317.79 836.9 318.8 832.03 326.54V326.53Z" fill="#59EFB2"/>
<path d="M977.719 233.66C986.619 240.34 994.859 246.49 1003.05 252.69C1007.77 256.27 1008.27 256.22 1011.61 251.22C1011.8 250.94 1012.02 250.68 1012.23 250.42C1016.17 245.39 1020.12 240.36 1024.18 235.18C1013.18 227.22 1003.02 219.87 992.479 212.23C987.709 219.73 981.409 226.29 977.719 233.66Z" fill="#59EFB2"/>
<path d="M1029.23 271.65C1039.91 279.23 1050.1 286.46 1061.04 294.23C1066.2 286.51 1071.11 279.18 1076.5 271.13C1066.28 264.1 1055.78 256.89 1045.17 249.59C1040.04 256.7 1034.65 264.16 1029.23 271.66V271.65Z" fill="#59EFB2"/>
<path d="M941.6 175.48C936.5 182.55 931.31 189.76 926.09 197C936.03 204.04 946.06 211.13 956.33 218.41C961.51 211.14 966.56 204.04 971.59 196.98C961.73 189.91 951.63 182.67 941.6 175.48Z" fill="#59EFB2"/>
<path d="M1211.48 185.62C1208.62 177.72 1203.1 170.51 1195.63 165.35C1184.9 157.96 1174.24 150.46 1163.91 142.53C1153.25 134.34 1140 135.54 1130.58 141.99C1123.89 146.57 1117.06 149.22 1108.61 150.06C1097.81 153.2 1087.16 150.87 1076.46 146.32C1068.08 142.76 1061.67 136.88 1056.23 130.24C1052.12 125.22 1049.22 118.82 1047.19 112.57C1044.59 104.58 1043.33 96.0101 1045.82 87.7201C1048.17 79.8801 1048.38 72.1901 1046.37 64.4101C1045.05 59.2901 1042.4 54.9901 1037.88 51.8201C1026.25 43.6501 1014.95 35.0101 1003.17 27.0801C993.359 20.4801 982.599 16.6801 970.439 19.4201C966.659 20.2701 962.419 20.1301 959.109 21.8501C950.069 26.5401 942.419 33.0301 936.549 41.5801C929.839 51.3401 922.759 60.8501 915.839 70.4601C871.929 131.46 828.019 192.45 784.099 253.45C759.019 288.29 733.929 323.12 708.859 357.96H743.819C746.569 354.09 749.319 350.21 752.099 346.36C764.899 328.6 777.869 310.97 790.669 293.2C800.909 278.99 810.969 264.65 821.169 250.4C830.679 237.11 840.289 223.89 849.799 210.6C860.469 195.68 871.069 180.72 882.239 165.01C889.799 170.9 896.939 176.45 904.589 182.4C910.289 174.8 915.469 167.9 921.119 160.36C914.279 154.14 906.039 149.49 897.939 142.99C903.869 135.06 909.839 127.18 915.699 119.22C923.079 109.18 930.499 99.1601 937.649 88.9501C945.349 77.9501 952.559 66.6101 960.399 55.7101C963.699 51.1201 967.909 47.3501 974.259 46.7001C980.229 46.0901 985.109 48.4801 989.809 51.2801C994.329 53.9601 998.469 57.2801 1002.71 60.4101C1008.53 64.6901 1014.29 69.0401 1020.04 73.3401C1010.69 97.3201 1021.52 136.44 1039.48 153.93C1072.11 185.7 1116.63 185.1 1146.59 164.35C1150.3 166.94 1154.21 169.61 1158.05 172.37C1161.63 174.94 1165.08 177.7 1168.68 180.24C1174.8 184.53 1181.58 188.4 1184.95 195.28C1188.4 202.32 1186.5 209.42 1182.05 215.65C1171.05 231.07 1159.92 246.4 1148.85 261.77C1140.15 273.85 1131.45 285.93 1122.73 297.99C1121.77 299.32 1120.73 300.6 1119.29 302.47C1111.35 296.82 1103.72 291.38 1096.77 286.43C1091 293.67 1085.49 300.57 1079.93 307.54C1087.99 313.42 1095.47 318.88 1103.34 324.63C1100.72 328.44 1098.51 331.79 1096.17 335.04C1090.67 342.68 1085.16 350.32 1079.66 357.96H1113.38C1139.7 321.42 1166.01 284.88 1192.27 248.3C1198.36 239.82 1204.34 231.2 1209.65 222.22C1216.57 210.52 1215.78 197.57 1211.45 185.61L1211.48 185.62Z" fill="#59EFB2"/>
</g>
<defs>
<clipPath id="clip0_4002_27">
<rect width="1896" height="817.04" fill="white" transform="translate(0 0.5)"/>
</clipPath>
</defs>
</svg>
