<?xml version="1.0" encoding="utf-8"?>
<!-- Generator: Adobe Illustrator 28.3.0, SVG Export Plug-In . SVG Version: 6.00 Build 0)  -->
<svg version="1.1" id="Calque_1" xmlns="http://www.w3.org/2000/svg" xmlns:xlink="http://www.w3.org/1999/xlink" x="0px" y="0px"
	 viewBox="0 0 1157.4 1058.2" style="enable-background:new 0 0 1157.4 1058.2;" xml:space="preserve">
<style type="text/css">
	.st0{fill:#59EFB2;}
	.st1{opacity:0.2;fill:#59EFB2;}
	.st2{opacity:0.2;}
	.st3{fill:#FFFFFF;}
</style>
<g>
	<g>
		<path class="st0" d="M411.5,648.4c-17.6-12.6-35.3-10.4-46.3,7c-7.9,12.5-9.6,28.9,5,39.3c31.4,22.4,62.9,44.8,94.2,67.3
			c23.5,16.9,46.9,33.8,70.4,50.7h104.8c-16-11.5-32-23-48-34.5C531.6,734.9,471.6,691.6,411.5,648.4z"/>
		<path class="st0" d="M294.4,742c-7.9,12.5-9.6,28.9,5,39.3c14.6,10.4,29.2,20.9,43.9,31.3h105.2c-35.9-25.9-71.8-51.8-107.8-77.6
			C323.1,722.3,305.3,724.6,294.4,742z"/>
		<path class="st0" d="M621.6,533.4c20,15,38.5,28.8,56.9,42.7c10.6,8,11.7,7.9,19.2-3.3c0.4-0.6,0.9-1.2,1.4-1.8
			c8.9-11.3,17.7-22.6,26.8-34.2c-24.7-17.9-47.5-34.4-71.2-51.5C644,502.1,629.9,516.8,621.6,533.4z"/>
		<path class="st0" d="M737.3,618.7c24,17,46.9,33.3,71.4,50.7c11.6-17.3,22.6-33.8,34.7-51.9c-23-15.8-46.5-32-70.4-48.4
			C761.6,585.1,749.5,601.9,737.3,618.7z"/>
		<path class="st0" d="M540.5,402.8c-11.5,15.9-23.1,32.1-34.8,48.3c22.3,15.8,44.8,31.7,67.9,48.1c11.6-16.3,23-32.3,34.3-48.1
			C585.7,435.2,563,418.9,540.5,402.8z"/>
		<g>
			<path class="st1" d="M297.9,312.7c-22.4-3.7-45.2-7.6-68-11.4c-2.7,16.1-5.5,32.4-8.3,48.9c22.5,3.6,45.1,7.3,68.3,11
				C292.7,344.7,295.3,328.7,297.9,312.7z"/>
			<path class="st1" d="M78.1,638.2c3.6-32.5,6.8-65.1,10.4-97.6c3.3-30.4,6.8-60.7,10.1-91c3.7-34.1,7.2-68.1,11-103.9
				c17.7,2.6,34.4,5.1,52.3,7.8c2.3-17.6,4.4-33.6,6.7-51c-16.8-3.8-34.5-3.9-53.6-7c2.4-18.3,4.9-36.6,7.1-55
				c2.8-23.1,5.7-46.2,8-69.4c2.5-25,3.8-50,6.5-75c1.2-10.5,4.5-20.5,14.3-27.4c9.2-6.5,19.3-7,29.5-6.8c9.8,0.2,19.6,1.8,29.4,3
				c13.4,1.6,26.8,3.4,40.1,5.1c6.8,47.6,60.3,101.3,105.6,113.3c49,13,94.3,3.4,129.2-19.5c14.9-20.7,30.2-41.2,44.6-62.2
				c13.2-19.2,30.4-33.8,50.7-44.3c1.7-0.9,3.4-1.5,5.3-2c-12.6-1.4-25.2-2.9-37.8-4.6c-24.9-3.5-45.3,10.6-54.7,29.7
				c-6.7,13.6-15.4,24.2-28.3,33.3c-14.7,15-34.2,21-55.7,23.4c-16.9,1.9-32.7-1.8-47.7-7.6c-11.3-4.4-21.9-12.2-30.9-20.5
				c-11.6-10.6-21.5-23.4-25-39.2c-3.4-14.9-10.1-27.6-20.5-38.4c-6.8-7.1-15.1-11.7-25.4-12.7c-26.4-2.6-52.7-6.3-79.2-8.4
				c-22-1.7-43,2-60.3,17.6c-5.4,4.9-12.4,8.5-16.2,14.3C92.9,58,86.4,75.6,84.7,94.9c-2,22-4.8,44-7.2,66
				C62,300.4,46.5,439.9,30.9,579.5C22.3,657.2,13.6,734.9,5,812.6h12.5c16.1-22.4,32.2-44.7,48.3-67.1
				C69.8,709.7,74.1,673.9,78.1,638.2z"/>
			<g class="st2">
				<path class="st0" d="M368.8,325.1c-7.7-1.3-15.5-2.7-23.3-4c-1.8,15.8-6.5,31.3-7,46.1C348.6,353.1,358.7,339.1,368.8,325.1z"/>
				<path class="st0" d="M407.2,379.3c-0.3,0.4-0.6,0.9-0.9,1.3c0.5-0.3,0.9-0.6,1.2-1.1C407.4,379.4,407.3,379.3,407.2,379.3z"/>
			</g>
			<path class="st1" d="M217.6,535.1c-15.1-0.8-25.6,7.2-27.2,22.6c-0.5,4.6-0.1,9.2,1.3,13.4C200.3,559.1,208.9,547.1,217.6,535.1z
				"/>
		</g>
		<path class="st0" d="M1146.6,425.5c-6.4-17.7-18.8-33.9-35.6-45.5c-24.1-16.6-48-33.5-71.2-51.3c-23.9-18.4-53.7-15.7-74.9-1.2
			c-15,10.3-30.4,16.2-49.3,18.1c-24.3,7-48.2,1.8-72.2-8.4c-18.8-8-33.2-21.2-45.4-36.1c-9.2-11.3-15.7-25.7-20.3-39.7
			c-5.8-17.9-8.7-37.2-3.1-55.8c5.3-17.6,5.7-34.9,1.2-52.3c-3-11.5-8.9-21.2-19.1-28.3c-26.1-18.3-51.5-37.8-78-55.6
			c-22-14.8-46.2-23.4-73.5-17.2c-8.5,1.9-18,1.6-25.4,5.5c-20.3,10.5-37.5,25.1-50.7,44.3c-15.1,21.9-31,43.3-46.5,64.9
			c-98.6,137-197.2,274-295.9,411c-56.3,78.2-112.7,156.5-169,234.7h78.5c6.2-8.7,12.4-17.4,18.6-26.1
			c28.7-39.9,57.9-79.5,86.6-119.4c23-31.9,45.6-64.1,68.5-96.1c21.4-29.8,42.9-59.5,64.3-89.4c24-33.5,47.8-67.1,72.9-102.4
			c17,13.2,33,25.7,50.2,39.1c12.8-17.1,24.4-32.6,37.1-49.5c-15.4-14-33.9-24.4-52.1-39c13.3-17.8,26.7-35.5,39.9-53.4
			c16.6-22.6,33.2-45.1,49.3-68c17.3-24.7,33.5-50.2,51.1-74.6c7.4-10.3,16.9-18.8,31.1-20.2c13.4-1.4,24.4,4,34.9,10.3
			c10.1,6,19.4,13.5,29,20.5c13.1,9.6,26,19.4,38.9,29c-21,53.9,3.3,141.7,43.7,181c73.3,71.4,173.3,70,240.6,23.4
			c8.3,5.8,17.1,11.8,25.7,18c8,5.8,15.8,12,23.9,17.7c13.7,9.6,29,18.3,36.5,33.8c7.8,15.8,3.5,31.8-6.5,45.8
			c-24.7,34.6-49.7,69.1-74.6,103.6c-19.6,27.1-39.1,54.3-58.7,81.4c-2.2,3-4.5,5.9-7.7,10.1c-17.8-12.7-35-24.9-50.6-36
			c-13,16.3-25.3,31.8-37.8,47.4c18.1,13.2,34.9,25.5,52.6,38.4c-5.9,8.6-10.9,16.1-16.1,23.4c-10,13.9-20,27.8-30,41.6
			c9-5.9,19.7-9.4,31.3-9.4c15.4,0,29.3,6.2,39.6,16c58.4-81,116.7-162,174.9-243.1c13.7-19,27.1-38.4,39-58.6
			C1158.1,481.5,1156.3,452.4,1146.6,425.5z"/>
	</g>
	<g>
		<path class="st3" d="M142.8,995.2c-7.2,28.5-28.5,52.4-63.3,52.4c-42.9,0-65.5-33.6-65.5-73.5c0-42.9,23.9-68.3,55.1-72.9
			c6.6-1,14-0.9,20.6-0.1c31.1,3.8,54.9,25.5,55.3,71.8H68.3v-4.6c44.9,0,28.5-63.6,12.2-65.2c-8.4-0.8-16.7,13.7-16.7,63.5
			c0,22.7,2.4,63.9,25.8,71.1c16,5,39.3-14.2,47.8-42.3H142.8z"/>
		<path class="st3" d="M191.6,1045.5l-42.2-134.7c-1.7-5.5-4.2-6.4-8.2-6.4v-4.8h66.5v4.8c-4.7,0-9.2,1.4-7.6,6.5
			c19.2,60.7,21,67.6,40.2,128.3c17.8-57.3,18.8-61,36.6-118.3c5.6-17.9-14.3-16.5-26.3-16.5v-4.8h64.7v4.8
			c-13.2,0-30.4,3.8-34.8,18.2l-38,122.9H191.6z"/>
		<path class="st3" d="M303.8,974.1c0-42.9,23.9-68.3,55.1-72.9c6.6-1,14-0.9,20.6-0.1c31.1,3.8,54.9,25.5,55.3,71.8h-76.8v-4.6
			c44.9,0,28.5-63.7,12.2-65.2c-8.4-0.8-16.7,13.7-16.7,63.5c0,22.6,2.5,63.8,26.2,71.1c51.6,15.9,106.7-83,129.6-115.2
			c31.5-45,77.5-17.7,75.3,34.5c0,20.6,0,57.2,0,77.8c0,5.3,4.2,6.4,8.2,6.4v4.8h-64.7v-4.8c4.6,0,8.2-1.8,8.2-6.4
			c0-19.1,0-43.1,0-62.3v-4.4c0-36.8-2-48.2-8.9-49.5c-9.3-1.7-24.7,22.8-24.7,40.2c0,23.5,0,50.8,0,74.2c0,4.9,1.5,8.1,8.2,8.1v4.9
			h-64.7v-4.9c6.7,0,8.2-3.2,8.2-8.1v-22.5c-12.3,14.4-28.3,27.1-44.4,33c-13.2,4.8-27.2,5.9-41.2,5.3
			C326.3,1046.7,303.8,1013.1,303.8,974.1z M454.3,900h2.8l4.1,5.8l13.5,19.1l10.3,14.6l3.4,4.8c-9.6,14.5-21.3,31.5-34.1,46.8V900z
			"/>
		<path class="st3" d="M651.1,842.7h4.3v57h43.8v4.9h-43.8c0,32.2-0.1,64.3-0.1,96.4c0,19.7,1.9,29.6,8,33.6
			c6.4,4.2,20.2,2.7,36.6-9.8l1.6,3.5c-15.6,14.6-37.9,21.6-58.1,19.3c-27.5-3.1-38.4-23.3-37.3-47.7v-95.3h-16.1v-4.9h17.9
			C643.6,895.3,651.1,876.7,651.1,842.7z"/>
		<path class="st3" d="M763.7,1032.9c0,4.9,1.5,8.1,8.2,8.1v4.9h-64.7v-4.9c6.7,0,8.2-3.2,8.2-8.1c0-59.6,0-65.9,0-125.6
			c0-3.5-6.8-2.8-8.2-2.8v-5c21.6,0,43.1,0,64.7,0v5c-6.9,0-8.2,3.5-8.2,7.8C763.7,970.4,763.7,975,763.7,1032.9z M739.5,838.8
			c13.9,0,25.1,11.2,25.1,25.1c0,13.9-11.2,25.1-25.1,25.1c-13.9,0-25.1-11.2-25.1-25.1C714.4,850.1,725.7,838.8,739.5,838.8z"/>
		<path class="st3" d="M846.6,1041v4.9h-64.7v-4.9c6.7,0,8.2-3.2,8.2-8.1c0-59.6,0-119.3,0-178.9c0-3.5-6.8-2.8-8.2-2.8v-5
			c21.6,0,43.1,0,64.7,0v5c-6.9,0-8.2,3.5-8.2,7.8c0,58,0,115.9,0,173.9C838.5,1037.8,839.9,1041,846.6,1041z"/>
		<path class="st3" d="M913.2,1032.9c0,4.9,1.5,8.1,8.2,8.1v4.9h-64.7v-4.9c6.7,0,8.2-3.2,8.2-8.1c0-59.6,0-65.9,0-125.6
			c0-3.5-6.8-2.8-8.2-2.8v-5c21.6,0,43.1,0,64.7,0v5c-6.9,0-8.2,3.5-8.2,7.8C913.2,970.4,913.2,975,913.2,1032.9z M889,838.8
			c13.9,0,25.1,11.2,25.1,25.1c0,13.9-11.2,25.1-25.1,25.1s-25.1-11.2-25.1-25.1C863.9,850.1,875.1,838.8,889,838.8z"/>
	</g>
</g>
</svg>
