<svg width="426" height="122" viewBox="0 0 426 122" fill="none" xmlns="http://www.w3.org/2000/svg">
<path d="M72.6136 46.5268C72.0792 46.9363 62.6443 52.187 62.6443 63.8623C62.6443 77.3667 74.6499 82.1442 75.0092 82.2625C74.9539 82.5537 73.102 88.8054 68.6794 95.1754C64.7359 100.781 60.6173 106.377 54.352 106.377C48.0866 106.377 46.4742 102.783 39.2414 102.783C32.1929 102.783 29.6867 106.496 23.9558 106.496C18.2248 106.496 14.226 101.309 9.62838 94.9388C4.30283 87.4586 0 75.8379 0 64.8087C0 47.1183 11.6462 37.7362 23.1081 37.7362C29.1984 37.7362 34.2752 41.6856 38.0989 41.6856C41.7383 41.6856 47.414 37.4996 54.3428 37.4996C56.9687 37.4996 66.4036 37.7362 72.6136 46.5268ZM51.0534 30.0103C53.9189 26.6524 55.9459 21.9932 55.9459 17.334C55.9459 16.6879 55.8907 16.0327 55.7709 15.5049C51.1087 15.6778 45.562 18.5716 42.2174 22.4027C39.5915 25.3511 37.1407 30.0103 37.1407 34.7332C37.1407 35.443 37.2604 36.1528 37.3157 36.3803C37.6106 36.4349 38.0897 36.4986 38.5688 36.4986C42.7518 36.4986 48.0129 33.7322 51.0534 30.0103Z" fill="black"/>
<path d="M103.708 34C103.467 34 103.261 33.9154 103.092 33.7461C102.923 33.5768 102.838 33.3713 102.838 33.1295V9.51696C102.838 9.25097 102.923 9.03334 103.092 8.86408C103.261 8.69481 103.467 8.61018 103.708 8.61018H112.559C115.001 8.61018 117.008 8.98498 118.58 9.73459C120.176 10.4842 121.373 11.5965 122.17 13.0715C122.993 14.5466 123.416 16.348 123.44 18.4759C123.488 19.5399 123.513 20.4829 123.513 21.3051C123.513 22.1272 123.488 23.0582 123.44 24.098C123.392 26.3468 122.981 28.2087 122.207 29.6837C121.433 31.1346 120.26 32.2227 118.688 32.9481C117.141 33.6494 115.158 34 112.74 34H103.708ZM107.88 29.8288H112.559C113.913 29.8288 115.013 29.6354 115.859 29.2485C116.706 28.8616 117.322 28.245 117.709 27.3986C118.12 26.5281 118.338 25.3916 118.362 23.9892C118.386 23.2637 118.398 22.635 118.398 22.1031C118.422 21.5469 118.422 21.0028 118.398 20.4709C118.398 19.9147 118.386 19.286 118.362 18.5848C118.314 16.6019 117.818 15.139 116.875 14.1959C115.932 13.2529 114.433 12.7814 112.377 12.7814H107.88V29.8288ZM136.248 34.3627C134.314 34.3627 132.682 34.0242 131.352 33.3471C130.046 32.6701 129.042 31.7149 128.341 30.4817C127.664 29.2485 127.277 27.8097 127.18 26.1654C127.156 25.7302 127.144 25.1982 127.144 24.5695C127.144 23.9408 127.156 23.4088 127.18 22.9736C127.277 21.3051 127.676 19.8663 128.377 18.6573C129.103 17.4241 130.118 16.4689 131.424 15.7919C132.754 15.1148 134.362 14.7763 136.248 14.7763C138.134 14.7763 139.73 15.1148 141.036 15.7919C142.366 16.4689 143.382 17.4241 144.083 18.6573C144.808 19.8663 145.219 21.3051 145.316 22.9736C145.34 23.4088 145.352 23.9408 145.352 24.5695C145.352 25.1982 145.34 25.7302 145.316 26.1654C145.219 27.8097 144.82 29.2485 144.119 30.4817C143.442 31.7149 142.439 32.6701 141.109 33.3471C139.803 34.0242 138.183 34.3627 136.248 34.3627ZM136.248 30.7719C137.53 30.7719 138.521 30.3729 139.222 29.5749C139.924 28.7528 140.311 27.5558 140.383 25.9841C140.407 25.6214 140.419 25.1498 140.419 24.5695C140.419 23.9892 140.407 23.5176 140.383 23.1549C140.311 21.6073 139.924 20.4225 139.222 19.6003C138.521 18.7782 137.53 18.3671 136.248 18.3671C134.967 18.3671 133.975 18.7782 133.274 19.6003C132.573 20.4225 132.186 21.6073 132.113 23.1549C132.089 23.5176 132.077 23.9892 132.077 24.5695C132.077 25.1498 132.089 25.6214 132.113 25.9841C132.186 27.5558 132.573 28.7528 133.274 29.5749C133.975 30.3729 134.967 30.7719 136.248 30.7719ZM153.99 34C153.652 34 153.398 33.9154 153.229 33.7461C153.059 33.5768 152.914 33.3592 152.793 33.0932L147.606 16.2634C147.582 16.1425 147.57 16.0337 147.57 15.937C147.57 15.7193 147.643 15.538 147.788 15.3929C147.957 15.2236 148.138 15.139 148.332 15.139H151.016C151.306 15.139 151.536 15.2236 151.705 15.3929C151.874 15.538 151.971 15.6831 151.995 15.8281L155.55 27.8339L159.322 15.937C159.37 15.7677 159.479 15.5984 159.649 15.4292C159.818 15.2357 160.072 15.139 160.41 15.139H162.224C162.562 15.139 162.816 15.2357 162.985 15.4292C163.155 15.5984 163.264 15.7677 163.312 15.937L167.084 27.8339L170.639 15.8281C170.663 15.6831 170.747 15.538 170.893 15.3929C171.062 15.2236 171.292 15.139 171.582 15.139H174.266C174.483 15.139 174.665 15.2236 174.81 15.3929C174.979 15.538 175.064 15.7193 175.064 15.937C175.064 16.0337 175.04 16.1425 174.991 16.2634L169.804 33.0932C169.732 33.3592 169.599 33.5768 169.405 33.7461C169.236 33.9154 168.982 34 168.644 34H166.286C165.948 34 165.682 33.9154 165.488 33.7461C165.295 33.5768 165.162 33.3592 165.089 33.0932L161.317 21.6315L157.545 33.0932C157.448 33.3592 157.303 33.5768 157.11 33.7461C156.94 33.9154 156.674 34 156.312 34H153.99ZM179.464 34C179.222 34 179.017 33.9154 178.847 33.7461C178.678 33.5768 178.593 33.3713 178.593 33.1295V16.0095C178.593 15.7677 178.678 15.5622 178.847 15.3929C179.017 15.2236 179.222 15.139 179.464 15.139H182.438C182.68 15.139 182.885 15.2236 183.055 15.3929C183.224 15.5622 183.309 15.7677 183.309 16.0095V17.4966C183.937 16.7228 184.735 16.082 185.703 15.5742C186.694 15.0423 187.915 14.7763 189.366 14.7763C190.841 14.7763 192.123 15.1148 193.211 15.7919C194.299 16.4448 195.133 17.3757 195.713 18.5848C196.318 19.7938 196.62 21.2446 196.62 22.9373V33.1295C196.62 33.3713 196.536 33.5768 196.366 33.7461C196.197 33.9154 195.991 34 195.75 34H192.558C192.316 34 192.11 33.9154 191.941 33.7461C191.772 33.5768 191.687 33.3713 191.687 33.1295V23.1549C191.687 21.7524 191.337 20.6522 190.635 19.8542C189.958 19.0563 188.967 18.6573 187.661 18.6573C186.404 18.6573 185.4 19.0563 184.651 19.8542C183.901 20.6522 183.526 21.7524 183.526 23.1549V33.1295C183.526 33.3713 183.442 33.5768 183.272 33.7461C183.103 33.9154 182.898 34 182.656 34H179.464ZM202.134 34C201.892 34 201.687 33.9154 201.518 33.7461C201.348 33.5768 201.264 33.3713 201.264 33.1295V9.11797C201.264 8.87617 201.348 8.67063 201.518 8.50137C201.687 8.3321 201.892 8.24747 202.134 8.24747H205.145C205.387 8.24747 205.592 8.3321 205.761 8.50137C205.931 8.67063 206.015 8.87617 206.015 9.11797V33.1295C206.015 33.3713 205.931 33.5768 205.761 33.7461C205.592 33.9154 205.387 34 205.145 34H202.134ZM219.169 34.3627C217.234 34.3627 215.602 34.0242 214.272 33.3471C212.967 32.6701 211.963 31.7149 211.262 30.4817C210.585 29.2485 210.198 27.8097 210.101 26.1654C210.077 25.7302 210.065 25.1982 210.065 24.5695C210.065 23.9408 210.077 23.4088 210.101 22.9736C210.198 21.3051 210.597 19.8663 211.298 18.6573C212.024 17.4241 213.039 16.4689 214.345 15.7919C215.675 15.1148 217.283 14.7763 219.169 14.7763C221.055 14.7763 222.651 15.1148 223.957 15.7919C225.287 16.4689 226.302 17.4241 227.004 18.6573C227.729 19.8663 228.14 21.3051 228.237 22.9736C228.261 23.4088 228.273 23.9408 228.273 24.5695C228.273 25.1982 228.261 25.7302 228.237 26.1654C228.14 27.8097 227.741 29.2485 227.04 30.4817C226.363 31.7149 225.359 32.6701 224.029 33.3471C222.724 34.0242 221.103 34.3627 219.169 34.3627ZM219.169 30.7719C220.451 30.7719 221.442 30.3729 222.143 29.5749C222.844 28.7528 223.231 27.5558 223.304 25.9841C223.328 25.6214 223.34 25.1498 223.34 24.5695C223.34 23.9892 223.328 23.5176 223.304 23.1549C223.231 21.6073 222.844 20.4225 222.143 19.6003C221.442 18.7782 220.451 18.3671 219.169 18.3671C217.887 18.3671 216.896 18.7782 216.195 19.6003C215.493 20.4225 215.107 21.6073 215.034 23.1549C215.01 23.5176 214.998 23.9892 214.998 24.5695C214.998 25.1498 215.01 25.6214 215.034 25.9841C215.107 27.5558 215.493 28.7528 216.195 29.5749C216.896 30.3729 217.887 30.7719 219.169 30.7719ZM237.769 34.3627C236.511 34.3627 235.375 34.1209 234.359 33.6373C233.344 33.1295 232.534 32.4645 231.929 31.6424C231.349 30.796 231.059 29.853 231.059 28.8132C231.059 27.1206 231.736 25.7785 233.09 24.7871C234.468 23.7715 236.282 23.0945 238.53 22.7559L243.5 22.0305V21.2688C243.5 20.2532 243.246 19.4674 242.738 18.9112C242.23 18.355 241.36 18.077 240.126 18.077C239.256 18.077 238.542 18.2583 237.986 18.621C237.454 18.9596 237.055 19.419 236.789 19.9993C236.596 20.3137 236.318 20.4709 235.955 20.4709H233.09C232.824 20.4709 232.618 20.3983 232.473 20.2532C232.352 20.1081 232.292 19.9147 232.292 19.6729C232.316 19.286 232.473 18.8145 232.763 18.2583C233.053 17.7022 233.513 17.1702 234.142 16.6624C234.77 16.1304 235.58 15.6831 236.572 15.3203C237.563 14.9576 238.76 14.7763 240.163 14.7763C241.686 14.7763 242.968 14.9697 244.007 15.3566C245.071 15.7193 245.918 16.215 246.546 16.8437C247.175 17.4724 247.634 18.2099 247.925 19.0563C248.215 19.9026 248.36 20.7973 248.36 21.7403V33.1295C248.36 33.3713 248.275 33.5768 248.106 33.7461C247.937 33.9154 247.731 34 247.489 34H244.551C244.285 34 244.068 33.9154 243.899 33.7461C243.753 33.5768 243.681 33.3713 243.681 33.1295V31.7149C243.367 32.1744 242.943 32.6096 242.411 33.0207C241.879 33.4076 241.227 33.734 240.453 34C239.703 34.2418 238.808 34.3627 237.769 34.3627ZM239.002 30.917C239.848 30.917 240.61 30.7356 241.287 30.3729C241.988 30.0102 242.532 29.454 242.919 28.7044C243.33 27.9306 243.536 26.9634 243.536 25.8027V25.041L239.909 25.6214C238.482 25.839 237.418 26.1896 236.717 26.6732C236.016 27.1568 235.665 27.7493 235.665 28.4505C235.665 28.9825 235.822 29.4419 236.136 29.8288C236.475 30.1915 236.898 30.4696 237.406 30.6631C237.914 30.8323 238.446 30.917 239.002 30.917ZM260.013 34.3627C258.756 34.3627 257.644 34.1572 256.676 33.7461C255.733 33.3108 254.948 32.7063 254.319 31.9325C253.69 31.1588 253.206 30.252 252.868 29.2122C252.529 28.1483 252.336 26.9876 252.288 25.7302C252.263 25.2949 252.251 24.908 252.251 24.5695C252.251 24.2068 252.263 23.8078 252.288 23.3725C252.336 22.1635 252.517 21.0391 252.832 19.9993C253.17 18.9596 253.654 18.0528 254.283 17.279C254.935 16.481 255.733 15.8644 256.676 15.4292C257.644 14.9939 258.756 14.7763 260.013 14.7763C261.319 14.7763 262.419 15.006 263.314 15.4654C264.233 15.9007 264.995 16.4689 265.599 17.1702V9.11797C265.599 8.87617 265.672 8.67063 265.817 8.50137C265.986 8.3321 266.204 8.24747 266.47 8.24747H269.553C269.795 8.24747 270 8.3321 270.169 8.50137C270.339 8.67063 270.423 8.87617 270.423 9.11797V33.1295C270.423 33.3713 270.339 33.5768 270.169 33.7461C270 33.9154 269.795 34 269.553 34H266.687C266.421 34 266.204 33.9154 266.034 33.7461C265.889 33.5768 265.817 33.3713 265.817 33.1295V31.7875C265.212 32.5371 264.438 33.1537 263.495 33.6373C262.577 34.1209 261.416 34.3627 260.013 34.3627ZM261.355 30.4817C262.371 30.4817 263.181 30.252 263.786 29.7925C264.39 29.3331 264.837 28.7528 265.128 28.0515C265.418 27.3261 265.575 26.5886 265.599 25.839C265.623 25.4037 265.635 24.9443 265.635 24.4607C265.635 23.9529 265.623 23.4814 265.599 23.0461C265.575 22.3207 265.406 21.6315 265.091 20.9786C264.777 20.3016 264.318 19.7454 263.713 19.3102C263.109 18.8749 262.323 18.6573 261.355 18.6573C260.34 18.6573 259.53 18.887 258.925 19.3464C258.345 19.7817 257.922 20.362 257.656 21.0875C257.39 21.8129 257.233 22.6109 257.184 23.4814C257.16 24.2068 257.16 24.9322 257.184 25.6576C257.233 26.5281 257.39 27.3261 257.656 28.0515C257.922 28.777 258.345 29.3694 258.925 29.8288C259.53 30.2641 260.34 30.4817 261.355 30.4817ZM291.888 34.3627C289.954 34.3627 288.322 34.0242 286.992 33.3471C285.686 32.6701 284.683 31.7149 283.981 30.4817C283.304 29.2485 282.917 27.8097 282.821 26.1654C282.796 25.7302 282.784 25.1982 282.784 24.5695C282.784 23.9408 282.796 23.4088 282.821 22.9736C282.917 21.3051 283.316 19.8663 284.018 18.6573C284.743 17.4241 285.759 16.4689 287.064 15.7919C288.394 15.1148 290.002 14.7763 291.888 14.7763C293.774 14.7763 295.37 15.1148 296.676 15.7919C298.006 16.4689 299.022 17.4241 299.723 18.6573C300.448 19.8663 300.859 21.3051 300.956 22.9736C300.98 23.4088 300.992 23.9408 300.992 24.5695C300.992 25.1982 300.98 25.7302 300.956 26.1654C300.859 27.8097 300.46 29.2485 299.759 30.4817C299.082 31.7149 298.079 32.6701 296.749 33.3471C295.443 34.0242 293.823 34.3627 291.888 34.3627ZM291.888 30.7719C293.17 30.7719 294.161 30.3729 294.863 29.5749C295.564 28.7528 295.951 27.5558 296.023 25.9841C296.047 25.6214 296.06 25.1498 296.06 24.5695C296.06 23.9892 296.047 23.5176 296.023 23.1549C295.951 21.6073 295.564 20.4225 294.863 19.6003C294.161 18.7782 293.17 18.3671 291.888 18.3671C290.607 18.3671 289.615 18.7782 288.914 19.6003C288.213 20.4225 287.826 21.6073 287.753 23.1549C287.729 23.5176 287.717 23.9892 287.717 24.5695C287.717 25.1498 287.729 25.6214 287.753 25.9841C287.826 27.5558 288.213 28.7528 288.914 29.5749C289.615 30.3729 290.607 30.7719 291.888 30.7719ZM305.882 34C305.64 34 305.434 33.9154 305.265 33.7461C305.096 33.5768 305.011 33.3713 305.011 33.1295V16.0095C305.011 15.7677 305.096 15.5622 305.265 15.3929C305.434 15.2236 305.64 15.139 305.882 15.139H308.856C309.098 15.139 309.303 15.2236 309.473 15.3929C309.642 15.5622 309.726 15.7677 309.726 16.0095V17.4966C310.355 16.7228 311.153 16.082 312.12 15.5742C313.112 15.0423 314.333 14.7763 315.784 14.7763C317.259 14.7763 318.54 15.1148 319.628 15.7919C320.717 16.4448 321.551 17.3757 322.131 18.5848C322.736 19.7938 323.038 21.2446 323.038 22.9373V33.1295C323.038 33.3713 322.953 33.5768 322.784 33.7461C322.615 33.9154 322.409 34 322.167 34H318.976C318.734 34 318.528 33.9154 318.359 33.7461C318.19 33.5768 318.105 33.3713 318.105 33.1295V23.1549C318.105 21.7524 317.754 20.6522 317.053 19.8542C316.376 19.0563 315.385 18.6573 314.079 18.6573C312.822 18.6573 311.818 19.0563 311.068 19.8542C310.319 20.6522 309.944 21.7524 309.944 23.1549V33.1295C309.944 33.3713 309.859 33.5768 309.69 33.7461C309.521 33.9154 309.315 34 309.074 34H305.882ZM343.714 34C342.263 34 341.042 33.7461 340.05 33.2383C339.059 32.7305 338.321 31.9809 337.838 30.9895C337.354 29.9739 337.112 28.7165 337.112 27.2173V18.9837H334.247C334.005 18.9837 333.8 18.8991 333.63 18.7298C333.461 18.5606 333.376 18.355 333.376 18.1132V16.0095C333.376 15.7677 333.461 15.5622 333.63 15.3929C333.8 15.2236 334.005 15.139 334.247 15.139H337.112V9.11797C337.112 8.87617 337.185 8.67063 337.33 8.50137C337.499 8.3321 337.717 8.24747 337.983 8.24747H340.921C341.163 8.24747 341.368 8.3321 341.537 8.50137C341.707 8.67063 341.791 8.87617 341.791 9.11797V15.139H346.325C346.567 15.139 346.773 15.2236 346.942 15.3929C347.111 15.5622 347.196 15.7677 347.196 16.0095V18.1132C347.196 18.355 347.111 18.5606 346.942 18.7298C346.773 18.8991 346.567 18.9837 346.325 18.9837H341.791V26.8546C341.791 27.846 341.961 28.6198 342.299 29.1759C342.662 29.7321 343.278 30.0102 344.149 30.0102H346.652C346.893 30.0102 347.099 30.0948 347.268 30.2641C347.437 30.4333 347.522 30.6389 347.522 30.8807V33.1295C347.522 33.3713 347.437 33.5768 347.268 33.7461C347.099 33.9154 346.893 34 346.652 34H343.714ZM351.647 34C351.405 34 351.199 33.9154 351.03 33.7461C350.861 33.5768 350.776 33.3713 350.776 33.1295V9.11797C350.776 8.87617 350.861 8.67063 351.03 8.50137C351.199 8.3321 351.405 8.24747 351.647 8.24747H354.875C355.141 8.24747 355.346 8.3321 355.491 8.50137C355.661 8.67063 355.745 8.87617 355.745 9.11797V17.3878C356.398 16.614 357.196 15.9853 358.139 15.5017C359.082 15.0181 360.243 14.7763 361.621 14.7763C363.096 14.7763 364.378 15.1148 365.466 15.7919C366.578 16.4448 367.437 17.3757 368.041 18.5848C368.646 19.7938 368.948 21.2446 368.948 22.9373V33.1295C368.948 33.3713 368.863 33.5768 368.694 33.7461C368.525 33.9154 368.319 34 368.077 34H364.813C364.571 34 364.366 33.9154 364.196 33.7461C364.027 33.5768 363.942 33.3713 363.942 33.1295V23.1549C363.942 21.7524 363.592 20.6522 362.891 19.8542C362.214 19.0563 361.222 18.6573 359.916 18.6573C358.659 18.6573 357.643 19.0563 356.87 19.8542C356.12 20.6522 355.745 21.7524 355.745 23.1549V33.1295C355.745 33.3713 355.661 33.5768 355.491 33.7461C355.346 33.9154 355.141 34 354.875 34H351.647ZM381.676 34.3627C378.992 34.3627 376.864 33.5889 375.292 32.0414C373.72 30.4938 372.874 28.2933 372.753 25.44C372.729 25.1982 372.717 24.8959 372.717 24.5332C372.717 24.1463 372.729 23.8441 372.753 23.6264C372.85 21.8129 373.261 20.2411 373.986 18.9112C374.736 17.5812 375.763 16.5657 377.069 15.8644C378.375 15.139 379.91 14.7763 381.676 14.7763C383.634 14.7763 385.279 15.1874 386.609 16.0095C387.939 16.8075 388.942 17.9319 389.619 19.3827C390.296 20.8094 390.635 22.4658 390.635 24.3519V25.1136C390.635 25.3554 390.55 25.5609 390.381 25.7302C390.211 25.8994 389.994 25.9841 389.728 25.9841H377.686C377.686 25.9841 377.686 26.0203 377.686 26.0929C377.686 26.1654 377.686 26.2259 377.686 26.2742C377.71 27.1206 377.867 27.9064 378.157 28.6319C378.472 29.3331 378.919 29.9014 379.499 30.3366C380.104 30.7719 380.817 30.9895 381.639 30.9895C382.316 30.9895 382.885 30.8928 383.344 30.6993C383.804 30.4817 384.178 30.2399 384.469 29.9739C384.759 29.7079 384.964 29.4903 385.085 29.321C385.303 29.0308 385.472 28.8616 385.593 28.8132C385.738 28.7407 385.944 28.7044 386.21 28.7044H389.329C389.571 28.7044 389.764 28.777 389.909 28.922C390.079 29.0671 390.151 29.2485 390.127 29.4661C390.103 29.853 389.897 30.3245 389.51 30.8807C389.148 31.4368 388.616 31.9809 387.914 32.5129C387.213 33.0449 386.33 33.4922 385.267 33.8549C384.227 34.1934 383.03 34.3627 381.676 34.3627ZM377.686 22.9373H385.702V22.8285C385.702 21.8854 385.545 21.0633 385.23 20.362C384.916 19.6608 384.456 19.1046 383.852 18.6936C383.247 18.2825 382.522 18.077 381.676 18.077C380.829 18.077 380.104 18.2825 379.499 18.6936C378.895 19.1046 378.435 19.6608 378.121 20.362C377.831 21.0633 377.686 21.8854 377.686 22.8285V22.9373Z" fill="black"/>
<path d="M102.699 103C102.289 103 101.905 102.846 101.546 102.539C101.239 102.231 101.085 101.847 101.085 101.386C101.085 101.181 101.136 100.95 101.239 100.694L119.765 51.1099C119.919 50.5974 120.201 50.1618 120.611 49.8031C121.072 49.3931 121.687 49.1881 122.456 49.1881H130.835C131.604 49.1881 132.193 49.3931 132.603 49.8031C133.013 50.1618 133.321 50.5974 133.526 51.1099L152.053 100.694C152.104 100.95 152.129 101.181 152.129 101.386C152.129 101.847 151.976 102.231 151.668 102.539C151.361 102.846 151.002 103 150.592 103H143.904C143.186 103 142.648 102.846 142.29 102.539C141.982 102.18 141.777 101.847 141.675 101.539L138.062 92.1607H115.23L111.617 101.539C111.514 101.847 111.284 102.18 110.925 102.539C110.617 102.846 110.105 103 109.387 103H102.699ZM117.92 83.3202H135.371L126.607 59.5661L117.92 83.3202ZM154.925 117.606C154.412 117.606 153.976 117.427 153.618 117.068C153.259 116.709 153.08 116.274 153.08 115.761V64.8704C153.08 64.3579 153.259 63.9223 153.618 63.5635C153.976 63.2048 154.412 63.0254 154.925 63.0254H160.998C161.561 63.0254 161.997 63.2048 162.305 63.5635C162.663 63.9223 162.843 64.3579 162.843 64.8704V67.9454C164.073 66.3054 165.687 64.9473 167.686 63.871C169.684 62.7948 172.17 62.2567 175.142 62.2567C177.859 62.2567 180.216 62.6923 182.215 63.5635C184.214 64.4348 185.879 65.6904 187.212 67.3304C188.544 68.9191 189.569 70.8153 190.287 73.0191C191.004 75.2228 191.414 77.6571 191.517 80.3221C191.568 81.1934 191.594 82.0902 191.594 83.0127C191.594 83.9352 191.568 84.8577 191.517 85.7802C191.465 88.3427 191.081 90.7258 190.364 92.9295C189.646 95.082 188.595 96.9782 187.212 98.6182C185.879 100.207 184.214 101.463 182.215 102.385C180.216 103.307 177.859 103.769 175.142 103.769C172.375 103.769 170.018 103.282 168.07 102.308C166.123 101.283 164.534 99.9507 163.304 98.3107V115.761C163.304 116.274 163.124 116.709 162.766 117.068C162.458 117.427 162.023 117.606 161.459 117.606H154.925ZM172.298 95.5432C174.502 95.5432 176.219 95.082 177.449 94.1595C178.679 93.1857 179.55 91.9301 180.062 90.3926C180.626 88.8551 180.959 87.1639 181.062 85.3189C181.164 83.7815 181.164 82.244 181.062 80.7065C180.959 78.8615 180.626 77.1703 180.062 75.6328C179.55 74.0953 178.679 72.8653 177.449 71.9428C176.219 70.9691 174.502 70.4822 172.298 70.4822C170.197 70.4822 168.48 70.9691 167.148 71.9428C165.866 72.9166 164.918 74.1722 164.303 75.7097C163.739 77.1959 163.406 78.7334 163.304 80.3221C163.253 81.2446 163.227 82.2183 163.227 83.2433C163.227 84.2683 163.253 85.2677 163.304 86.2414C163.355 87.7789 163.714 89.2651 164.38 90.7001C165.046 92.0839 166.02 93.237 167.301 94.1595C168.583 95.082 170.248 95.5432 172.298 95.5432ZM196.764 117.606C196.251 117.606 195.816 117.427 195.457 117.068C195.098 116.709 194.919 116.274 194.919 115.761V64.8704C194.919 64.3579 195.098 63.9223 195.457 63.5635C195.816 63.2048 196.251 63.0254 196.764 63.0254H202.837C203.401 63.0254 203.836 63.2048 204.144 63.5635C204.503 63.9223 204.682 64.3579 204.682 64.8704V67.9454C205.912 66.3054 207.526 64.9473 209.525 63.871C211.524 62.7948 214.009 62.2567 216.982 62.2567C219.698 62.2567 222.056 62.6923 224.054 63.5635C226.053 64.4348 227.719 65.6904 229.051 67.3304C230.384 68.9191 231.409 70.8153 232.126 73.0191C232.844 75.2228 233.254 77.6571 233.356 80.3221C233.407 81.1934 233.433 82.0902 233.433 83.0127C233.433 83.9352 233.407 84.8577 233.356 85.7802C233.305 88.3427 232.92 90.7258 232.203 92.9295C231.485 95.082 230.435 96.9782 229.051 98.6182C227.719 100.207 226.053 101.463 224.054 102.385C222.056 103.307 219.698 103.769 216.982 103.769C214.214 103.769 211.857 103.282 209.909 102.308C207.962 101.283 206.373 99.9507 205.143 98.3107V115.761C205.143 116.274 204.964 116.709 204.605 117.068C204.298 117.427 203.862 117.606 203.298 117.606H196.764ZM214.138 95.5432C216.341 95.5432 218.058 95.082 219.288 94.1595C220.518 93.1857 221.389 91.9301 221.902 90.3926C222.466 88.8551 222.799 87.1639 222.901 85.3189C223.004 83.7815 223.004 82.244 222.901 80.7065C222.799 78.8615 222.466 77.1703 221.902 75.6328C221.389 74.0953 220.518 72.8653 219.288 71.9428C218.058 70.9691 216.341 70.4822 214.138 70.4822C212.036 70.4822 210.319 70.9691 208.987 71.9428C207.706 72.9166 206.758 74.1722 206.143 75.7097C205.579 77.1959 205.246 78.7334 205.143 80.3221C205.092 81.2446 205.066 82.2183 205.066 83.2433C205.066 84.2683 205.092 85.2677 205.143 86.2414C205.194 87.7789 205.553 89.2651 206.219 90.7001C206.886 92.0839 207.859 93.237 209.141 94.1595C210.422 95.082 212.088 95.5432 214.138 95.5432ZM268.47 103.769C263.704 103.769 259.707 103.077 256.478 101.693C253.3 100.258 250.866 98.4132 249.175 96.1582C247.535 93.852 246.664 91.4432 246.561 88.932C246.561 88.4708 246.715 88.0864 247.022 87.7789C247.33 87.4714 247.714 87.3177 248.175 87.3177H255.017C255.683 87.3177 256.17 87.4714 256.478 87.7789C256.837 88.0352 257.144 88.3683 257.4 88.7783C257.708 89.752 258.297 90.7258 259.168 91.6995C260.04 92.622 261.218 93.3907 262.705 94.0057C264.242 94.6207 266.164 94.9282 268.47 94.9282C272.16 94.9282 274.902 94.3132 276.696 93.0832C278.541 91.8532 279.463 90.1876 279.463 88.0864C279.463 86.6002 278.976 85.4214 278.003 84.5502C277.029 83.6277 275.517 82.8077 273.467 82.0902C271.468 81.3215 268.803 80.5271 265.472 79.7071C261.628 78.7846 258.4 77.6828 255.786 76.4015C253.223 75.069 251.276 73.4034 249.943 71.4047C248.662 69.406 248.022 66.8691 248.022 63.7942C248.022 60.8217 248.816 58.1823 250.405 55.8761C252.045 53.5699 254.351 51.7505 257.323 50.4181C260.347 49.0856 263.935 48.4193 268.086 48.4193C271.417 48.4193 274.364 48.8806 276.926 49.8031C279.489 50.6743 281.616 51.853 283.307 53.3393C284.998 54.7743 286.279 56.3374 287.151 58.0286C288.073 59.6686 288.56 61.2829 288.611 62.8717C288.611 63.2817 288.457 63.666 288.15 64.0248C287.894 64.3323 287.509 64.486 286.997 64.486H279.848C279.438 64.486 279.028 64.3835 278.618 64.1785C278.208 63.9735 277.874 63.5892 277.618 63.0254C277.311 61.4367 276.311 60.0786 274.62 58.9511C272.929 57.8236 270.751 57.2599 268.086 57.2599C265.318 57.2599 263.089 57.7724 261.398 58.7973C259.707 59.8223 258.861 61.4111 258.861 63.5635C258.861 64.9985 259.271 66.2029 260.091 67.1766C260.962 68.0991 262.32 68.9191 264.165 69.6366C266.061 70.3541 268.547 71.1228 271.622 71.9428C275.978 72.9166 279.54 74.0441 282.308 75.3253C285.075 76.6065 287.099 78.2465 288.381 80.2452C289.662 82.1927 290.302 84.6783 290.302 87.702C290.302 91.0845 289.38 93.9801 287.535 96.3888C285.741 98.7463 283.204 100.566 279.924 101.847C276.644 103.128 272.826 103.769 268.47 103.769ZM310.874 103C307.799 103 305.211 102.462 303.11 101.386C301.009 100.309 299.445 98.7207 298.42 96.6194C297.395 94.467 296.883 91.802 296.883 88.6245V71.1741H290.81C290.297 71.1741 289.862 70.9947 289.503 70.636C289.144 70.2772 288.965 69.8416 288.965 69.3291V64.8704C288.965 64.3579 289.144 63.9223 289.503 63.5635C289.862 63.2048 290.297 63.0254 290.81 63.0254H296.883V50.2643C296.883 49.7518 297.037 49.3162 297.344 48.9574C297.703 48.5987 298.164 48.4193 298.728 48.4193H304.955C305.467 48.4193 305.903 48.5987 306.262 48.9574C306.62 49.3162 306.8 49.7518 306.8 50.2643V63.0254H316.409C316.922 63.0254 317.357 63.2048 317.716 63.5635C318.075 63.9223 318.254 64.3579 318.254 64.8704V69.3291C318.254 69.8416 318.075 70.2772 317.716 70.636C317.357 70.9947 316.922 71.1741 316.409 71.1741H306.8V87.8558C306.8 89.957 307.158 91.597 307.876 92.7757C308.645 93.9545 309.952 94.5438 311.797 94.5438H317.101C317.613 94.5438 318.049 94.7232 318.408 95.082C318.767 95.4407 318.946 95.8763 318.946 96.3888V101.155C318.946 101.668 318.767 102.103 318.408 102.462C318.049 102.821 317.613 103 317.101 103H310.874ZM338.065 103.769C333.965 103.769 330.506 103.051 327.687 101.616C324.92 100.181 322.793 98.1569 321.307 95.5432C319.872 92.9295 319.052 89.8801 318.847 86.3952C318.796 85.4727 318.77 84.3452 318.77 83.0127C318.77 81.6802 318.796 80.5527 318.847 79.6302C319.052 76.094 319.897 73.0447 321.384 70.4822C322.921 67.8685 325.074 65.8441 327.841 64.4092C330.66 62.9742 334.068 62.2567 338.065 62.2567C342.063 62.2567 345.445 62.9742 348.213 64.4092C351.031 65.8441 353.184 67.8685 354.67 70.4822C356.208 73.0447 357.079 76.094 357.284 79.6302C357.335 80.5527 357.361 81.6802 357.361 83.0127C357.361 84.3452 357.335 85.4727 357.284 86.3952C357.079 89.8801 356.233 92.9295 354.747 95.5432C353.312 98.1569 351.185 100.181 348.366 101.616C345.599 103.051 342.165 103.769 338.065 103.769ZM338.065 96.1582C340.782 96.1582 342.883 95.3126 344.369 93.6213C345.855 91.8789 346.675 89.342 346.829 86.0108C346.88 85.2421 346.906 84.2427 346.906 83.0127C346.906 81.7827 346.88 80.7834 346.829 80.0146C346.675 76.7347 345.855 74.2234 344.369 72.4809C342.883 70.7385 340.782 69.8672 338.065 69.8672C335.349 69.8672 333.248 70.7385 331.762 72.4809C330.275 74.2234 329.455 76.7347 329.302 80.0146C329.25 80.7834 329.225 81.7827 329.225 83.0127C329.225 84.2427 329.25 85.2421 329.302 86.0108C329.455 89.342 330.275 91.8789 331.762 93.6213C333.248 95.3126 335.349 96.1582 338.065 96.1582ZM362.342 103C361.829 103 361.394 102.821 361.035 102.462C360.676 102.103 360.497 101.668 360.497 101.155V64.9473C360.497 64.3835 360.676 63.9223 361.035 63.5635C361.394 63.2048 361.829 63.0254 362.342 63.0254H368.569C369.081 63.0254 369.517 63.2048 369.876 63.5635C370.286 63.9223 370.491 64.3835 370.491 64.9473V68.0991C371.669 66.4591 373.181 65.2035 375.026 64.3323C376.922 63.461 379.101 63.0254 381.56 63.0254H384.712C385.276 63.0254 385.712 63.2048 386.019 63.5635C386.378 63.9223 386.557 64.3579 386.557 64.8704V70.4053C386.557 70.9178 386.378 71.3535 386.019 71.7122C385.712 72.071 385.276 72.2503 384.712 72.2503H378.716C376.256 72.2503 374.334 72.9422 372.951 74.3259C371.618 75.7097 370.952 77.6059 370.952 80.0146V101.155C370.952 101.668 370.772 102.103 370.414 102.462C370.055 102.821 369.594 103 369.03 103H362.342ZM403.866 103.769C398.177 103.769 393.667 102.129 390.336 98.8488C387.005 95.5688 385.211 90.9051 384.955 84.8577C384.904 84.3452 384.878 83.7046 384.878 82.9358C384.878 82.1158 384.904 81.4752 384.955 81.014C385.16 77.1703 386.031 73.8391 387.569 71.0203C389.157 68.2016 391.336 66.0491 394.103 64.5629C396.87 63.0254 400.125 62.2567 403.866 62.2567C408.017 62.2567 411.502 63.1279 414.321 64.8704C417.14 66.5616 419.266 68.9447 420.701 72.0197C422.136 75.0434 422.854 78.554 422.854 82.5515V84.1658C422.854 84.6783 422.675 85.1139 422.316 85.4727C421.957 85.8314 421.496 86.0108 420.932 86.0108H395.41C395.41 86.0108 395.41 86.0877 395.41 86.2414C395.41 86.3952 395.41 86.5233 395.41 86.6258C395.461 88.4195 395.794 90.0851 396.409 91.6226C397.075 93.1089 398.024 94.3132 399.254 95.2357C400.535 96.1582 402.047 96.6194 403.789 96.6194C405.224 96.6194 406.428 96.4144 407.402 96.0044C408.376 95.5432 409.17 95.0307 409.785 94.467C410.4 93.9032 410.836 93.442 411.092 93.0832C411.553 92.4682 411.912 92.1095 412.168 92.007C412.476 91.8532 412.912 91.7764 413.475 91.7764H420.086C420.599 91.7764 421.009 91.9301 421.316 92.2376C421.675 92.5451 421.829 92.9295 421.778 93.3907C421.726 94.2107 421.291 95.2101 420.471 96.3888C419.702 97.5676 418.575 98.7207 417.088 99.8482C415.602 100.976 413.732 101.924 411.477 102.693C409.273 103.41 406.736 103.769 403.866 103.769ZM395.41 79.5534H412.399V79.3227C412.399 77.324 412.066 75.5815 411.4 74.0953C410.733 72.6091 409.76 71.4303 408.478 70.5591C407.197 69.6879 405.66 69.2522 403.866 69.2522C402.072 69.2522 400.535 69.6879 399.254 70.5591C397.972 71.4303 396.999 72.6091 396.332 74.0953C395.717 75.5815 395.41 77.324 395.41 79.3227V79.5534Z" fill="black"/>
</svg>
