<svg width="396" height="103" viewBox="0 0 396 103" fill="none" xmlns="http://www.w3.org/2000/svg">
<path d="M68.5458 36.8287C68.0465 37.2113 59.2313 42.1172 59.2313 53.0257C59.2313 65.6431 70.4483 70.1069 70.784 70.2174C70.7324 70.4895 69.002 76.3306 64.8699 82.2822C61.1854 87.5196 57.3374 92.7486 51.4835 92.7486C45.6296 92.7486 44.1231 89.3901 37.3654 89.3901C30.7798 89.3901 28.4382 92.8591 23.0837 92.8591C17.7291 92.8591 13.993 88.0128 9.69728 82.0611C4.7215 75.0722 0.701271 64.2147 0.701271 53.9099C0.701271 37.3814 11.5826 28.6155 22.2917 28.6155C27.982 28.6155 32.7253 32.3055 36.2979 32.3055C39.6983 32.3055 45.0012 28.3944 51.4749 28.3944C53.9284 28.3944 62.7436 28.6155 68.5458 36.8287ZM48.4016 21.397C51.0789 18.2596 52.9728 13.9065 52.9728 9.55326C52.9728 8.9496 52.9211 8.33743 52.8092 7.84429C48.4533 8.00584 43.2709 10.7096 40.146 14.2891C37.6925 17.0438 35.4026 21.397 35.4026 25.8097C35.4026 26.4729 35.5145 27.1361 35.5662 27.3486C35.8416 27.3997 36.2893 27.4592 36.7369 27.4592C40.6453 27.4592 45.5608 24.8745 48.4016 21.397Z" fill="black"/>
<path d="M95.3282 25.358C95.1475 25.358 94.978 25.2903 94.8199 25.1547C94.6843 25.0192 94.6165 24.8497 94.6165 24.6464C94.6165 24.556 94.6391 24.4543 94.6843 24.3414L102.852 2.483C102.919 2.25707 103.044 2.06503 103.224 1.90689C103.428 1.72614 103.699 1.63577 104.038 1.63577H107.732C108.07 1.63577 108.33 1.72614 108.511 1.90689C108.692 2.06503 108.827 2.25707 108.918 2.483L117.085 24.3414C117.107 24.4543 117.119 24.556 117.119 24.6464C117.119 24.8497 117.051 25.0192 116.915 25.1547C116.78 25.2903 116.622 25.358 116.441 25.358H113.493C113.176 25.358 112.939 25.2903 112.781 25.1547C112.645 24.9966 112.555 24.8497 112.51 24.7142L110.917 20.5797H100.852L99.2593 24.7142C99.2141 24.8497 99.1125 24.9966 98.9543 25.1547C98.8188 25.2903 98.5928 25.358 98.2765 25.358H95.3282ZM102.038 16.6825H109.731L105.868 6.21078L102.038 16.6825Z" fill="black"/>
<path d="M124.92 25.358C124.559 25.358 124.288 25.279 124.107 25.1208C123.949 24.9401 123.813 24.7367 123.7 24.5108L117.363 8.78634C117.318 8.67338 117.295 8.57171 117.295 8.48134C117.295 8.27801 117.363 8.10856 117.498 7.97301C117.657 7.81486 117.837 7.73579 118.041 7.73579H120.786C121.057 7.73579 121.26 7.81486 121.396 7.97301C121.531 8.10856 121.622 8.24412 121.667 8.37967L126.174 20.2747L130.681 8.37967C130.726 8.24412 130.817 8.10856 130.952 7.97301C131.088 7.81486 131.291 7.73579 131.562 7.73579H134.341C134.522 7.73579 134.68 7.81486 134.816 7.97301C134.974 8.10856 135.053 8.27801 135.053 8.48134C135.053 8.57171 135.042 8.67338 135.019 8.78634L128.648 24.5108C128.558 24.7367 128.422 24.9401 128.241 25.1208C128.061 25.279 127.789 25.358 127.428 25.358H124.92Z" fill="black"/>
<path d="M142.566 25.6969C141.392 25.6969 140.33 25.471 139.381 25.0192C138.432 24.5447 137.675 23.9234 137.11 23.1553C136.568 22.3645 136.297 21.4834 136.297 20.5119C136.297 18.9304 136.93 17.6765 138.195 16.7502C139.483 15.8014 141.177 15.1688 143.278 14.8525L147.921 14.1747V13.463C147.921 12.5141 147.684 11.7799 147.209 11.2602C146.735 10.7406 145.921 10.4808 144.769 10.4808C143.956 10.4808 143.289 10.6502 142.77 10.9891C142.273 11.3054 141.9 11.7347 141.651 12.2769C141.471 12.5706 141.211 12.7175 140.872 12.7175H138.195C137.946 12.7175 137.754 12.6497 137.619 12.5141C137.506 12.3786 137.449 12.1978 137.449 11.9719C137.472 11.6104 137.619 11.1699 137.89 10.6502C138.161 10.1306 138.59 9.63357 139.178 9.15912C139.765 8.66208 140.522 8.24412 141.448 7.90523C142.374 7.56634 143.493 7.3969 144.803 7.3969C146.226 7.3969 147.424 7.57764 148.395 7.93912C149.389 8.27801 150.18 8.74116 150.768 9.32857C151.355 9.91597 151.784 10.6051 152.055 11.3958C152.327 12.1865 152.462 13.0225 152.462 13.9036V24.5447C152.462 24.7706 152.383 24.9627 152.225 25.1208C152.067 25.279 151.875 25.358 151.649 25.358H148.904C148.655 25.358 148.452 25.279 148.294 25.1208C148.158 24.9627 148.09 24.7706 148.09 24.5447V23.223C147.797 23.6523 147.401 24.059 146.904 24.443C146.407 24.8045 145.797 25.1095 145.074 25.358C144.374 25.584 143.538 25.6969 142.566 25.6969ZM143.719 22.4775C144.509 22.4775 145.221 22.308 145.854 21.9691C146.509 21.6303 147.017 21.1106 147.379 20.4103C147.763 19.6873 147.955 18.7836 147.955 17.6991V16.9875L144.566 17.5297C143.233 17.733 142.239 18.0606 141.584 18.5125C140.929 18.9643 140.601 19.5178 140.601 20.173C140.601 20.6701 140.748 21.0993 141.041 21.4608C141.358 21.7997 141.753 22.0595 142.228 22.2403C142.702 22.3984 143.199 22.4775 143.719 22.4775Z" fill="black"/>
<path d="M157.623 25.358C157.397 25.358 157.205 25.279 157.047 25.1208C156.889 24.9627 156.81 24.7706 156.81 24.5447V8.54912C156.81 8.32319 156.889 8.13116 157.047 7.97301C157.205 7.81486 157.397 7.73579 157.623 7.73579H160.436C160.684 7.73579 160.876 7.81486 161.012 7.97301C161.17 8.13116 161.249 8.32319 161.249 8.54912V24.5447C161.249 24.7706 161.17 24.9627 161.012 25.1208C160.876 25.279 160.684 25.358 160.436 25.358H157.623ZM157.487 4.82134C157.239 4.82134 157.036 4.75356 156.877 4.618C156.742 4.45985 156.674 4.25652 156.674 4.008V1.568C156.674 1.34207 156.742 1.15003 156.877 0.991883C157.036 0.833735 157.239 0.754662 157.487 0.754662H160.571C160.82 0.754662 161.023 0.833735 161.181 0.991883C161.339 1.15003 161.419 1.34207 161.419 1.568V4.008C161.419 4.25652 161.339 4.45985 161.181 4.618C161.023 4.75356 160.82 4.82134 160.571 4.82134H157.487Z" fill="black"/>
<path d="M166.592 25.358C166.367 25.358 166.174 25.279 166.016 25.1208C165.858 24.9627 165.779 24.7706 165.779 24.5447V2.11022C165.779 1.88429 165.858 1.69226 166.016 1.53411C166.174 1.37596 166.367 1.29688 166.592 1.29688H169.405C169.631 1.29688 169.823 1.37596 169.981 1.53411C170.139 1.69226 170.219 1.88429 170.219 2.11022V24.5447C170.219 24.7706 170.139 24.9627 169.981 25.1208C169.823 25.279 169.631 25.358 169.405 25.358H166.592Z" fill="black"/>
<path d="M179.831 25.6969C178.656 25.6969 177.594 25.471 176.646 25.0192C175.697 24.5447 174.94 23.9234 174.375 23.1553C173.833 22.3645 173.562 21.4834 173.562 20.5119C173.562 18.9304 174.194 17.6765 175.459 16.7502C176.747 15.8014 178.442 15.1688 180.543 14.8525L185.186 14.1747V13.463C185.186 12.5141 184.948 11.7799 184.474 11.2602C183.999 10.7406 183.186 10.4808 182.034 10.4808C181.221 10.4808 180.554 10.6502 180.034 10.9891C179.537 11.3054 179.165 11.7347 178.916 12.2769C178.735 12.5706 178.476 12.7175 178.137 12.7175H175.459C175.211 12.7175 175.019 12.6497 174.883 12.5141C174.77 12.3786 174.714 12.1978 174.714 11.9719C174.736 11.6104 174.883 11.1699 175.154 10.6502C175.426 10.1306 175.855 9.63357 176.442 9.15912C177.03 8.66208 177.786 8.24412 178.713 7.90523C179.639 7.56634 180.757 7.3969 182.068 7.3969C183.491 7.3969 184.689 7.57764 185.66 7.93912C186.654 8.27801 187.445 8.74116 188.032 9.32857C188.62 9.91597 189.049 10.6051 189.32 11.3958C189.591 12.1865 189.727 13.0225 189.727 13.9036V24.5447C189.727 24.7706 189.648 24.9627 189.489 25.1208C189.331 25.279 189.139 25.358 188.913 25.358H186.168C185.92 25.358 185.716 25.279 185.558 25.1208C185.423 24.9627 185.355 24.7706 185.355 24.5447V23.223C185.061 23.6523 184.666 24.059 184.169 24.443C183.672 24.8045 183.062 25.1095 182.339 25.358C181.639 25.584 180.803 25.6969 179.831 25.6969ZM180.983 22.4775C181.774 22.4775 182.486 22.308 183.118 21.9691C183.774 21.6303 184.282 21.1106 184.643 20.4103C185.027 19.6873 185.219 18.7836 185.219 17.6991V16.9875L181.831 17.5297C180.498 17.733 179.504 18.0606 178.848 18.5125C178.193 18.9643 177.866 19.5178 177.866 20.173C177.866 20.6701 178.012 21.0993 178.306 21.4608C178.622 21.7997 179.018 22.0595 179.492 22.2403C179.967 22.3984 180.464 22.4775 180.983 22.4775Z" fill="black"/>
<path d="M203.834 25.6969C202.524 25.6969 201.428 25.471 200.547 25.0192C199.689 24.5673 198.977 23.9912 198.412 23.2908V24.5447C198.412 24.7706 198.333 24.9627 198.175 25.1208C198.039 25.279 197.847 25.358 197.599 25.358H194.921C194.696 25.358 194.504 25.279 194.345 25.1208C194.187 24.9627 194.108 24.7706 194.108 24.5447V2.11022C194.108 1.88429 194.187 1.69226 194.345 1.53411C194.504 1.37596 194.696 1.29688 194.921 1.29688H197.802C198.051 1.29688 198.243 1.37596 198.378 1.53411C198.536 1.69226 198.615 1.88429 198.615 2.11022V9.63357C199.18 8.97838 199.881 8.44745 200.716 8.04079C201.575 7.61153 202.614 7.3969 203.834 7.3969C205.032 7.3969 206.071 7.60023 206.952 8.0069C207.833 8.41357 208.567 8.98968 209.155 9.73523C209.765 10.4582 210.228 11.3054 210.544 12.2769C210.861 13.2484 211.03 14.2989 211.053 15.4286C211.075 15.8352 211.087 16.208 211.087 16.5469C211.087 16.8632 211.075 17.2247 211.053 17.6314C211.007 18.8062 210.827 19.8906 210.51 20.8847C210.194 21.8562 209.742 22.7034 209.155 23.4264C208.567 24.1493 207.833 24.7142 206.952 25.1208C206.071 25.5049 205.032 25.6969 203.834 25.6969ZM202.58 22.0708C203.552 22.0708 204.309 21.8675 204.851 21.4608C205.393 21.0316 205.777 20.478 206.003 19.8003C206.252 19.1225 206.399 18.3769 206.444 17.5636C206.489 16.8858 206.489 16.208 206.444 15.5302C206.399 14.7169 206.252 13.9714 206.003 13.2936C205.777 12.6158 205.393 12.0736 204.851 11.6669C204.309 11.2376 203.552 11.023 202.58 11.023C201.677 11.023 200.942 11.2263 200.378 11.633C199.813 12.0397 199.384 12.5593 199.09 13.1919C198.796 13.8019 198.638 14.4458 198.615 15.1236C198.593 15.5302 198.581 15.9708 198.581 16.4452C198.581 16.8971 198.593 17.3264 198.615 17.733C198.661 18.4334 198.807 19.1225 199.056 19.8003C199.327 20.4554 199.745 20.9977 200.31 21.4269C200.897 21.8562 201.654 22.0708 202.58 22.0708Z" fill="black"/>
<path d="M215.705 25.358C215.479 25.358 215.287 25.279 215.129 25.1208C214.971 24.9627 214.892 24.7706 214.892 24.5447V2.11022C214.892 1.88429 214.971 1.69226 215.129 1.53411C215.287 1.37596 215.479 1.29688 215.705 1.29688H218.518C218.744 1.29688 218.936 1.37596 219.094 1.53411C219.252 1.69226 219.331 1.88429 219.331 2.11022V24.5447C219.331 24.7706 219.252 24.9627 219.094 25.1208C218.936 25.279 218.744 25.358 218.518 25.358H215.705Z" fill="black"/>
<path d="M231.418 25.6969C228.91 25.6969 226.922 24.974 225.453 23.528C223.985 22.0821 223.194 20.0262 223.081 17.3602C223.058 17.1343 223.047 16.8519 223.047 16.513C223.047 16.1515 223.058 15.8691 223.081 15.6658C223.171 13.9714 223.555 12.5028 224.233 11.2602C224.933 10.0176 225.894 9.06875 227.114 8.41357C228.334 7.73579 229.768 7.3969 231.418 7.3969C233.248 7.3969 234.784 7.78097 236.026 8.54912C237.269 9.29468 238.207 10.3452 238.839 11.7008C239.472 13.0338 239.788 14.5814 239.788 16.3436V17.0552C239.788 17.2812 239.709 17.4732 239.551 17.6314C239.393 17.7895 239.189 17.8686 238.941 17.8686H227.69C227.69 17.8686 227.69 17.9025 227.69 17.9703C227.69 18.038 227.69 18.0945 227.69 18.1397C227.712 18.9304 227.859 19.6647 228.13 20.3425C228.424 20.9977 228.842 21.5286 229.384 21.9353C229.949 22.3419 230.615 22.5453 231.384 22.5453C232.016 22.5453 232.547 22.4549 232.976 22.2741C233.406 22.0708 233.756 21.8449 234.027 21.5964C234.298 21.3478 234.49 21.1445 234.603 20.9864C234.806 20.7153 234.965 20.5571 235.078 20.5119C235.213 20.4441 235.405 20.4103 235.654 20.4103H238.568C238.794 20.4103 238.975 20.478 239.11 20.6136C239.268 20.7491 239.336 20.9186 239.314 21.1219C239.291 21.4834 239.099 21.924 238.738 22.4436C238.399 22.9632 237.902 23.4716 237.246 23.9686C236.591 24.4656 235.767 24.8836 234.772 25.2225C233.801 25.5388 232.683 25.6969 231.418 25.6969ZM227.69 15.0219H235.179V14.9202C235.179 14.0391 235.032 13.271 234.739 12.6158C234.445 11.9606 234.016 11.441 233.451 11.0569C232.886 10.6728 232.208 10.4808 231.418 10.4808C230.627 10.4808 229.949 10.6728 229.384 11.0569C228.819 11.441 228.39 11.9606 228.096 12.6158C227.825 13.271 227.69 14.0391 227.69 14.9202V15.0219Z" fill="black"/>
<path d="M257.806 25.6969C256.45 25.6969 255.287 25.5388 254.315 25.2225C253.366 24.9062 252.587 24.5108 251.977 24.0364C251.367 23.5619 250.915 23.0875 250.621 22.613C250.327 22.1386 250.169 21.7432 250.147 21.4269C250.124 21.1784 250.192 20.9864 250.35 20.8508C250.531 20.6927 250.723 20.6136 250.926 20.6136H253.603C253.694 20.6136 253.773 20.6249 253.841 20.6475C253.908 20.6701 253.999 20.7378 254.112 20.8508C254.405 21.0993 254.71 21.3591 255.027 21.6303C255.366 21.9014 255.761 22.1386 256.213 22.3419C256.665 22.5227 257.229 22.613 257.907 22.613C258.788 22.613 259.523 22.4436 260.11 22.1047C260.72 21.7432 261.025 21.2349 261.025 20.5797C261.025 20.1053 260.889 19.7212 260.618 19.4275C260.37 19.1338 259.895 18.874 259.195 18.648C258.495 18.3995 257.501 18.1397 256.213 17.8686C254.948 17.5749 253.897 17.2021 253.061 16.7502C252.225 16.2984 251.604 15.7336 251.197 15.0558C250.791 14.378 250.587 13.5873 250.587 12.6836C250.587 11.8025 250.847 10.9665 251.367 10.1758C251.909 9.36246 252.7 8.69597 253.739 8.17634C254.801 7.65671 256.111 7.3969 257.67 7.3969C258.89 7.3969 259.952 7.55504 260.856 7.87134C261.759 8.16505 262.505 8.53782 263.092 8.98968C263.702 9.44153 264.165 9.90468 264.482 10.3791C264.798 10.831 264.967 11.2263 264.99 11.5652C265.013 11.8138 264.945 12.0171 264.787 12.1752C264.629 12.3108 264.448 12.3786 264.245 12.3786H261.737C261.624 12.3786 261.522 12.356 261.432 12.3108C261.341 12.2656 261.251 12.2091 261.161 12.1413C260.912 11.9154 260.641 11.6782 260.347 11.4297C260.054 11.1812 259.692 10.9665 259.263 10.7858C258.856 10.5825 258.314 10.4808 257.636 10.4808C256.778 10.4808 256.122 10.6728 255.671 11.0569C255.219 11.4184 254.993 11.8815 254.993 12.4464C254.993 12.8304 255.094 13.1693 255.298 13.463C255.524 13.7341 255.964 13.9939 256.619 14.2425C257.275 14.491 258.269 14.7508 259.602 15.0219C261.115 15.293 262.313 15.6997 263.194 16.2419C264.098 16.7615 264.73 17.3715 265.092 18.0719C265.476 18.7497 265.668 19.5066 265.668 20.3425C265.668 21.3591 265.363 22.2741 264.753 23.0875C264.165 23.9008 263.284 24.5447 262.11 25.0192C260.957 25.471 259.523 25.6969 257.806 25.6969Z" fill="black"/>
<path d="M276.961 25.6969C275.153 25.6969 273.628 25.3806 272.386 24.748C271.166 24.1154 270.228 23.223 269.573 22.0708C268.94 20.9186 268.579 19.5743 268.488 18.038C268.466 17.6314 268.454 17.1343 268.454 16.5469C268.454 15.9595 268.466 15.4625 268.488 15.0558C268.579 13.4969 268.951 12.1526 269.607 11.023C270.284 9.87079 271.233 8.97838 272.453 8.34579C273.696 7.71319 275.198 7.3969 276.961 7.3969C278.723 7.3969 280.214 7.71319 281.434 8.34579C282.677 8.97838 283.625 9.87079 284.281 11.023C284.958 12.1526 285.342 13.4969 285.433 15.0558C285.455 15.4625 285.467 15.9595 285.467 16.5469C285.467 17.1343 285.455 17.6314 285.433 18.038C285.342 19.5743 284.97 20.9186 284.314 22.0708C283.682 23.223 282.744 24.1154 281.502 24.748C280.282 25.3806 278.768 25.6969 276.961 25.6969ZM276.961 22.3419C278.158 22.3419 279.084 21.9691 279.739 21.2236C280.395 20.4554 280.756 19.3371 280.824 17.8686C280.846 17.5297 280.858 17.0891 280.858 16.5469C280.858 16.0047 280.846 15.5641 280.824 15.2252C280.756 13.7793 280.395 12.6723 279.739 11.9041C279.084 11.136 278.158 10.7519 276.961 10.7519C275.763 10.7519 274.837 11.136 274.182 11.9041C273.526 12.6723 273.165 13.7793 273.097 15.2252C273.075 15.5641 273.063 16.0047 273.063 16.5469C273.063 17.0891 273.075 17.5297 273.097 17.8686C273.165 19.3371 273.526 20.4554 274.182 21.2236C274.837 21.9691 275.763 22.3419 276.961 22.3419Z" fill="black"/>
<path d="M297.016 25.6969C295.209 25.6969 293.684 25.3806 292.441 24.748C291.221 24.1154 290.283 23.223 289.628 22.0708C288.996 20.9186 288.634 19.5743 288.544 18.038C288.521 17.6314 288.51 17.1343 288.51 16.5469C288.51 15.9595 288.521 15.4625 288.544 15.0558C288.634 13.4969 289.007 12.1526 289.662 11.023C290.34 9.87079 291.289 8.97838 292.509 8.34579C293.751 7.71319 295.254 7.3969 297.016 7.3969C298.778 7.3969 300.269 7.71319 301.489 8.34579C302.732 8.97838 303.681 9.87079 304.336 11.023C305.014 12.1526 305.398 13.4969 305.488 15.0558C305.511 15.4625 305.522 15.9595 305.522 16.5469C305.522 17.1343 305.511 17.6314 305.488 18.038C305.398 19.5743 305.025 20.9186 304.37 22.0708C303.737 23.223 302.8 24.1154 301.557 24.748C300.337 25.3806 298.823 25.6969 297.016 25.6969ZM297.016 22.3419C298.213 22.3419 299.14 21.9691 299.795 21.2236C300.45 20.4554 300.812 19.3371 300.879 17.8686C300.902 17.5297 300.913 17.0891 300.913 16.5469C300.913 16.0047 300.902 15.5641 300.879 15.2252C300.812 13.7793 300.45 12.6723 299.795 11.9041C299.14 11.136 298.213 10.7519 297.016 10.7519C295.819 10.7519 294.892 11.136 294.237 11.9041C293.582 12.6723 293.22 13.7793 293.153 15.2252C293.13 15.5641 293.119 16.0047 293.119 16.5469C293.119 17.0891 293.13 17.5297 293.153 17.8686C293.22 19.3371 293.582 20.4554 294.237 21.2236C294.892 21.9691 295.819 22.3419 297.016 22.3419Z" fill="black"/>
<path d="M310.09 25.358C309.864 25.358 309.672 25.279 309.514 25.1208C309.356 24.9627 309.277 24.7706 309.277 24.5447V8.54912C309.277 8.32319 309.356 8.13116 309.514 7.97301C309.672 7.81486 309.864 7.73579 310.09 7.73579H312.869C313.095 7.73579 313.287 7.81486 313.445 7.97301C313.603 8.13116 313.682 8.32319 313.682 8.54912V9.93857C314.27 9.2156 315.015 8.6169 315.919 8.14245C316.845 7.64541 317.986 7.3969 319.342 7.3969C320.72 7.3969 321.917 7.71319 322.934 8.34579C323.951 8.95579 324.73 9.8256 325.272 10.9552C325.837 12.0849 326.12 13.4404 326.12 15.0219V24.5447C326.12 24.7706 326.041 24.9627 325.882 25.1208C325.724 25.279 325.532 25.358 325.306 25.358H322.324C322.098 25.358 321.906 25.279 321.748 25.1208C321.59 24.9627 321.511 24.7706 321.511 24.5447V15.2252C321.511 13.9149 321.183 12.8869 320.528 12.1413C319.895 11.3958 318.969 11.023 317.749 11.023C316.574 11.023 315.637 11.3958 314.936 12.1413C314.236 12.8869 313.886 13.9149 313.886 15.2252V24.5447C313.886 24.7706 313.807 24.9627 313.649 25.1208C313.49 25.279 313.298 25.358 313.072 25.358H310.09Z" fill="black"/>
<path d="M345.963 25.6969C344.156 25.6969 342.631 25.3806 341.388 24.748C340.168 24.1154 339.23 23.223 338.575 22.0708C337.943 20.9186 337.581 19.5743 337.491 18.038C337.468 17.6314 337.457 17.1343 337.457 16.5469C337.457 15.9595 337.468 15.4625 337.491 15.0558C337.581 13.4969 337.954 12.1526 338.609 11.023C339.287 9.87079 340.236 8.97838 341.456 8.34579C342.698 7.71319 344.201 7.3969 345.963 7.3969C347.725 7.3969 349.216 7.71319 350.436 8.34579C351.679 8.97838 352.628 9.87079 353.283 11.023C353.961 12.1526 354.345 13.4969 354.435 15.0558C354.458 15.4625 354.469 15.9595 354.469 16.5469C354.469 17.1343 354.458 17.6314 354.435 18.038C354.345 19.5743 353.972 20.9186 353.317 22.0708C352.684 23.223 351.747 24.1154 350.504 24.748C349.284 25.3806 347.77 25.6969 345.963 25.6969ZM345.963 22.3419C347.16 22.3419 348.087 21.9691 348.742 21.2236C349.397 20.4554 349.759 19.3371 349.826 17.8686C349.849 17.5297 349.86 17.0891 349.86 16.5469C349.86 16.0047 349.849 15.5641 349.826 15.2252C349.759 13.7793 349.397 12.6723 348.742 11.9041C348.087 11.136 347.16 10.7519 345.963 10.7519C344.766 10.7519 343.839 11.136 343.184 11.9041C342.529 12.6723 342.167 13.7793 342.1 15.2252C342.077 15.5641 342.066 16.0047 342.066 16.5469C342.066 17.0891 342.077 17.5297 342.1 17.8686C342.167 19.3371 342.529 20.4554 343.184 21.2236C343.839 21.9691 344.766 22.3419 345.963 22.3419Z" fill="black"/>
<path d="M359.037 25.358C358.811 25.358 358.619 25.279 358.461 25.1208C358.303 24.9627 358.224 24.7706 358.224 24.5447V8.54912C358.224 8.32319 358.303 8.13116 358.461 7.97301C358.619 7.81486 358.811 7.73579 359.037 7.73579H361.816C362.042 7.73579 362.234 7.81486 362.392 7.97301C362.55 8.13116 362.629 8.32319 362.629 8.54912V9.93857C363.217 9.2156 363.962 8.6169 364.866 8.14245C365.792 7.64541 366.933 7.3969 368.289 7.3969C369.667 7.3969 370.864 7.71319 371.881 8.34579C372.898 8.95579 373.677 9.8256 374.219 10.9552C374.784 12.0849 375.067 13.4404 375.067 15.0219V24.5447C375.067 24.7706 374.988 24.9627 374.829 25.1208C374.671 25.279 374.479 25.358 374.253 25.358H371.271C371.045 25.358 370.853 25.279 370.695 25.1208C370.537 24.9627 370.458 24.7706 370.458 24.5447V15.2252C370.458 13.9149 370.13 12.8869 369.475 12.1413C368.842 11.3958 367.916 11.023 366.696 11.023C365.521 11.023 364.584 11.3958 363.883 12.1413C363.183 12.8869 362.833 13.9149 362.833 15.2252V24.5447C362.833 24.7706 362.754 24.9627 362.596 25.1208C362.437 25.279 362.245 25.358 362.019 25.358H359.037Z" fill="black"/>
<path d="M96.656 89.322C96.2729 89.322 95.9138 89.1784 95.5786 88.8911C95.2913 88.6038 95.1476 88.2446 95.1476 87.8137C95.1476 87.6222 95.1955 87.4067 95.2913 87.1673L112.601 40.84C112.745 40.3612 113.008 39.9541 113.391 39.619C113.822 39.2359 114.397 39.0444 115.115 39.0444H122.944C123.662 39.0444 124.213 39.2359 124.596 39.619C124.979 39.9541 125.266 40.3612 125.458 40.84L142.768 87.1673C142.816 87.4067 142.84 87.6222 142.84 87.8137C142.84 88.2446 142.696 88.6038 142.409 88.8911C142.121 89.1784 141.786 89.322 141.403 89.322H135.154C134.484 89.322 133.981 89.1784 133.646 88.8911C133.359 88.5559 133.167 88.2447 133.071 87.9574L129.696 79.1947H108.363L104.988 87.9574C104.892 88.2447 104.676 88.5559 104.341 88.8911C104.054 89.1784 103.575 89.322 102.905 89.322H96.656ZM110.877 70.9348H127.182L118.994 48.7408L110.877 70.9348Z" fill="black"/>
<path d="M145.451 102.969C144.972 102.969 144.565 102.801 144.23 102.466C143.895 102.131 143.727 101.724 143.727 101.245V53.6967C143.727 53.2179 143.895 52.8109 144.23 52.4757C144.565 52.1405 144.972 51.9729 145.451 51.9729H151.125C151.652 51.9729 152.059 52.1405 152.346 52.4757C152.682 52.8109 152.849 53.2179 152.849 53.6967V56.5697C153.998 55.0374 155.507 53.7685 157.374 52.763C159.242 51.7574 161.564 51.2546 164.341 51.2546C166.879 51.2546 169.082 51.6617 170.949 52.4757C172.817 53.2897 174.373 54.4628 175.618 55.9951C176.863 57.4795 177.82 59.2512 178.491 61.3102C179.161 63.3692 179.544 65.6436 179.64 68.1336C179.688 68.9476 179.712 69.7856 179.712 70.6475C179.712 71.5094 179.688 72.3713 179.64 73.2332C179.592 75.6274 179.233 77.8539 178.563 79.9129C177.892 81.924 176.911 83.6957 175.618 85.228C174.373 86.7124 172.817 87.8855 170.949 88.7474C169.082 89.6093 166.879 90.0403 164.341 90.0403C161.755 90.0403 159.553 89.5854 157.733 88.6756C155.914 87.7179 154.429 86.473 153.28 84.9407V101.245C153.28 101.724 153.112 102.131 152.777 102.466C152.49 102.801 152.083 102.969 151.556 102.969H145.451ZM161.684 82.355C163.743 82.355 165.347 81.924 166.496 81.0621C167.645 80.1523 168.459 78.9792 168.938 77.5427C169.465 76.1062 169.776 74.526 169.872 72.8022C169.967 71.3657 169.967 69.9292 169.872 68.4927C169.776 66.7689 169.465 65.1887 168.938 63.7522C168.459 62.3157 167.645 61.1665 166.496 60.3046C165.347 59.3948 163.743 58.9399 161.684 58.9399C159.72 58.9399 158.116 59.3948 156.871 60.3046C155.674 61.2144 154.788 62.3876 154.214 63.8241C153.687 65.2127 153.376 66.6492 153.28 68.1336C153.232 68.9955 153.208 69.9053 153.208 70.8629C153.208 71.8206 153.232 72.7543 153.28 73.6641C153.328 75.1006 153.663 76.4892 154.286 77.83C154.908 79.1228 155.818 80.2002 157.015 81.0621C158.212 81.924 159.768 82.355 161.684 82.355Z" fill="black"/>
<path d="M184.543 102.969C184.064 102.969 183.657 102.801 183.322 102.466C182.986 102.131 182.819 101.724 182.819 101.245V53.6967C182.819 53.2179 182.986 52.8109 183.322 52.4757C183.657 52.1405 184.064 51.9729 184.543 51.9729H190.217C190.743 51.9729 191.15 52.1405 191.438 52.4757C191.773 52.8109 191.941 53.2179 191.941 53.6967V56.5697C193.09 55.0374 194.598 53.7685 196.466 52.763C198.333 51.7574 200.655 51.2546 203.433 51.2546C205.97 51.2546 208.173 51.6617 210.041 52.4757C211.908 53.2897 213.464 54.4628 214.709 55.9951C215.954 57.4795 216.912 59.2512 217.582 61.3102C218.253 63.3692 218.636 65.6436 218.731 68.1336C218.779 68.9476 218.803 69.7856 218.803 70.6475C218.803 71.5094 218.779 72.3713 218.731 73.2332C218.683 75.6274 218.324 77.8539 217.654 79.9129C216.984 81.924 216.002 83.6957 214.709 85.228C213.464 86.7124 211.908 87.8855 210.041 88.7474C208.173 89.6093 205.97 90.0403 203.433 90.0403C200.847 90.0403 198.644 89.5854 196.825 88.6756C195.005 87.7179 193.521 86.473 192.372 84.9407V101.245C192.372 101.724 192.204 102.131 191.869 102.466C191.581 102.801 191.174 102.969 190.648 102.969H184.543ZM200.775 82.355C202.834 82.355 204.438 81.924 205.587 81.0621C206.737 80.1523 207.551 78.9792 208.029 77.5427C208.556 76.1062 208.867 74.526 208.963 72.8022C209.059 71.3657 209.059 69.9292 208.963 68.4927C208.867 66.7689 208.556 65.1887 208.029 63.7522C207.551 62.3157 206.737 61.1665 205.587 60.3046C204.438 59.3948 202.834 58.9399 200.775 58.9399C198.812 58.9399 197.208 59.3948 195.963 60.3046C194.766 61.2144 193.88 62.3876 193.305 63.8241C192.779 65.2127 192.467 66.6492 192.372 68.1336C192.324 68.9955 192.3 69.9053 192.3 70.8629C192.3 71.8206 192.324 72.7543 192.372 73.6641C192.419 75.1006 192.755 76.4892 193.377 77.83C194 79.1228 194.909 80.2002 196.106 81.0621C197.304 81.924 198.86 82.355 200.775 82.355Z" fill="black"/>
<path d="M251.539 90.0403C247.086 90.0403 243.351 89.3939 240.334 88.101C237.366 86.7603 235.091 85.0365 233.511 82.9296C231.979 80.7748 231.165 78.5243 231.069 76.178C231.069 75.7471 231.213 75.3879 231.5 75.1006C231.787 74.8133 232.146 74.6697 232.577 74.6697H238.97C239.592 74.6697 240.047 74.8133 240.334 75.1006C240.67 75.34 240.957 75.6513 241.196 76.0344C241.484 76.9441 242.034 77.8539 242.848 78.7637C243.662 79.6256 244.764 80.3439 246.152 80.9185C247.589 81.4931 249.384 81.7804 251.539 81.7804C254.987 81.7804 257.549 81.2058 259.225 80.0566C260.948 78.9074 261.81 77.3512 261.81 75.3879C261.81 73.9993 261.355 72.898 260.446 72.084C259.536 71.2221 258.123 70.4559 256.208 69.7856C254.34 69.0673 251.85 68.3251 248.738 67.559C245.147 66.6971 242.13 65.6676 239.688 64.4705C237.294 63.2255 235.474 61.6693 234.229 59.8019C233.032 57.9344 232.434 55.5642 232.434 52.6912C232.434 49.9139 233.176 47.4479 234.66 45.2932C236.193 43.1384 238.347 41.4385 241.125 40.1936C243.95 38.9486 247.302 38.3261 251.18 38.3261C254.293 38.3261 257.046 38.7571 259.44 39.619C261.834 40.433 263.821 41.5343 265.401 42.9229C266.982 44.2637 268.179 45.7241 268.993 47.3043C269.855 48.8365 270.31 50.3449 270.357 51.8293C270.357 52.2123 270.214 52.5714 269.926 52.9066C269.687 53.1939 269.328 53.3376 268.849 53.3376H262.169C261.786 53.3376 261.403 53.2418 261.02 53.0503C260.637 52.8587 260.326 52.4996 260.086 51.9729C259.799 50.4885 258.865 49.2196 257.285 48.1662C255.705 47.1127 253.67 46.586 251.18 46.586C248.594 46.586 246.511 47.0648 244.931 48.0225C243.351 48.9802 242.561 50.4646 242.561 52.4757C242.561 53.8164 242.944 54.9417 243.71 55.8515C244.524 56.7134 245.793 57.4795 247.517 58.1499C249.289 58.8202 251.611 59.5385 254.484 60.3046C258.554 61.2144 261.882 62.2679 264.468 63.4649C267.053 64.662 268.945 66.1943 270.142 68.0618C271.339 69.8813 271.938 72.2037 271.938 75.0288C271.938 78.1891 271.076 80.8945 269.352 83.1451C267.676 85.3477 265.306 87.0476 262.241 88.2447C259.177 89.4417 255.609 90.0403 251.539 90.0403Z" fill="black"/>
<path d="M291.158 89.322C288.285 89.322 285.867 88.8193 283.904 87.8137C281.941 86.8081 280.48 85.3238 279.522 83.3605C278.565 81.3494 278.086 78.8595 278.086 75.8907V59.5864H272.412C271.933 59.5864 271.526 59.4188 271.191 59.0836C270.856 58.7484 270.688 58.3414 270.688 57.8626V53.6967C270.688 53.2179 270.856 52.8109 271.191 52.4757C271.526 52.1405 271.933 51.9729 272.412 51.9729H278.086V40.0499C278.086 39.5711 278.23 39.1641 278.517 38.8289C278.852 38.4937 279.283 38.3261 279.81 38.3261H285.628C286.106 38.3261 286.513 38.4937 286.849 38.8289C287.184 39.1641 287.351 39.5711 287.351 40.0499V51.9729H296.33C296.808 51.9729 297.215 52.1405 297.551 52.4757C297.886 52.8109 298.053 53.2179 298.053 53.6967V57.8626C298.053 58.3414 297.886 58.7484 297.551 59.0836C297.215 59.4188 296.808 59.5864 296.33 59.5864H287.351V75.1725C287.351 77.1357 287.687 78.668 288.357 79.7693C289.075 80.8706 290.296 81.4212 292.02 81.4212H296.976C297.455 81.4212 297.862 81.5888 298.197 81.924C298.532 82.2592 298.7 82.6662 298.7 83.1451V87.5982C298.7 88.0771 298.532 88.4841 298.197 88.8193C297.862 89.1544 297.455 89.322 296.976 89.322H291.158Z" fill="black"/>
<path d="M316.564 90.0403C312.733 90.0403 309.501 89.3699 306.867 88.0292C304.281 86.6884 302.294 84.797 300.906 82.355C299.565 79.9129 298.799 77.0639 298.607 73.8078C298.559 72.9459 298.535 71.8924 298.535 70.6475C298.535 69.4025 298.559 68.3491 298.607 67.4872C298.799 64.1832 299.589 61.3341 300.977 58.9399C302.414 56.4979 304.425 54.6065 307.011 53.2658C309.644 51.925 312.829 51.2546 316.564 51.2546C320.298 51.2546 323.459 51.925 326.044 53.2658C328.678 54.6065 330.689 56.4979 332.078 58.9399C333.514 61.3341 334.328 64.1832 334.52 67.4872C334.568 68.3491 334.592 69.4025 334.592 70.6475C334.592 71.8924 334.568 72.9459 334.52 73.8078C334.328 77.0639 333.538 79.9129 332.15 82.355C330.809 84.797 328.822 86.6884 326.188 88.0292C323.602 89.3699 320.394 90.0403 316.564 90.0403ZM316.564 82.9296C319.101 82.9296 321.065 82.1395 322.453 80.5593C323.842 78.9313 324.608 76.5611 324.752 73.4486C324.799 72.7304 324.823 71.7967 324.823 70.6475C324.823 69.4983 324.799 68.5645 324.752 67.8463C324.608 64.7817 323.842 62.4354 322.453 60.8074C321.065 59.1794 319.101 58.3653 316.564 58.3653C314.026 58.3653 312.062 59.1794 310.674 60.8074C309.285 62.4354 308.519 64.7817 308.375 67.8463C308.328 68.5645 308.304 69.4983 308.304 70.6475C308.304 71.7967 308.328 72.7304 308.375 73.4486C308.519 76.5611 309.285 78.9313 310.674 80.5593C312.062 82.1395 314.026 82.9296 316.564 82.9296Z" fill="black"/>
<path d="M339.246 89.322C338.767 89.322 338.36 89.1544 338.025 88.8193C337.69 88.4841 337.522 88.0771 337.522 87.5982V53.7685C337.522 53.2418 337.69 52.8109 338.025 52.4757C338.36 52.1405 338.767 51.9729 339.246 51.9729H345.064C345.542 51.9729 345.949 52.1405 346.285 52.4757C346.668 52.8109 346.859 53.2418 346.859 53.7685V56.7134C347.961 55.1811 349.373 54.008 351.097 53.1939C352.869 52.3799 354.904 51.9729 357.202 51.9729H360.147C360.674 51.9729 361.081 52.1405 361.368 52.4757C361.703 52.8109 361.871 53.2179 361.871 53.6967V58.8681C361.871 59.347 361.703 59.754 361.368 60.0892C361.081 60.4243 360.674 60.5919 360.147 60.5919H354.545C352.246 60.5919 350.45 61.2384 349.158 62.5312C347.913 63.8241 347.29 65.5958 347.29 67.8463V87.5982C347.29 88.0771 347.123 88.4841 346.787 88.8193C346.452 89.1544 346.021 89.322 345.495 89.322H339.246Z" fill="black"/>
<path d="M378.043 90.0403C372.727 90.0403 368.514 88.508 365.401 85.4435C362.289 82.3789 360.613 78.0215 360.374 72.3713C360.326 71.8924 360.302 71.2939 360.302 70.5756C360.302 69.8095 360.326 69.211 360.374 68.78C360.565 65.1887 361.379 62.0763 362.816 59.4427C364.3 56.8091 366.335 54.798 368.921 53.4094C371.506 51.9729 374.547 51.2546 378.043 51.2546C381.921 51.2546 385.177 52.0687 387.811 53.6967C390.444 55.2769 392.432 57.5034 393.772 60.3765C395.113 63.2016 395.783 66.4816 395.783 70.2165V71.7248C395.783 72.2037 395.616 72.6107 395.281 72.9459C394.945 73.2811 394.514 73.4486 393.988 73.4486H370.142C370.142 73.4486 370.142 73.5205 370.142 73.6641C370.142 73.8078 370.142 73.9275 370.142 74.0233C370.19 75.6992 370.501 77.2554 371.076 78.6919C371.698 80.0805 372.584 81.2058 373.733 82.0677C374.93 82.9296 376.343 83.3605 377.971 83.3605C379.311 83.3605 380.437 83.169 381.347 82.7859C382.256 82.355 382.998 81.8761 383.573 81.3494C384.148 80.8227 384.555 80.3918 384.794 80.0566C385.225 79.482 385.56 79.1468 385.8 79.051C386.087 78.9074 386.494 78.8355 387.021 78.8355H393.198C393.677 78.8355 394.06 78.9792 394.347 79.2665C394.682 79.5538 394.826 79.9129 394.778 80.3439C394.73 81.11 394.323 82.0437 393.557 83.1451C392.839 84.2464 391.785 85.3238 390.396 86.3772C389.008 87.4306 387.26 88.3165 385.153 89.0347C383.094 89.7051 380.724 90.0403 378.043 90.0403ZM370.142 67.4153H386.015V67.1999C386.015 65.3324 385.704 63.7044 385.081 62.3157C384.459 60.9271 383.549 59.8258 382.352 59.0118C381.155 58.1978 379.718 57.7907 378.043 57.7907C376.367 57.7907 374.93 58.1978 373.733 59.0118C372.536 59.8258 371.626 60.9271 371.004 62.3157C370.429 63.7044 370.142 65.3324 370.142 67.1999V67.4153Z" fill="black"/>
</svg>
