<svg xmlns="http://www.w3.org/2000/svg" fill="none" class="Icon" style="width:40px" viewBox="0 0 40 40"><defs><clipPath id="a"><path fill-rule="evenodd" d="M20 36c8.837 0 16-7.163 16-16S28.837 4 20 4 4 11.163 4 20s7.163 16 16 16Zm3.5-21.5a3.5 3.5 0 1 1-7 0 3.5 3.5 0 0 1 7 0Zm-9.606 11.874C13.377 26.094 13 25.588 13 25c0-2.9 3.134-5.25 7-5.25s7 2.35 7 5.25c0 .588-.377 1.094-.894 1.374A12.775 12.775 0 0 1 20 27.917c-2.21 0-4.29-.56-6.106-1.543Z" clip-rule="evenodd"/></clipPath></defs><path fill-rule="evenodd" d="M20 36c8.837 0 16-7.163 16-16S28.837 4 20 4 4 11.163 4 20s7.163 16 16 16Zm3.5-21.5a3.5 3.5 0 1 1-7 0 3.5 3.5 0 0 1 7 0Zm-9.606 11.874C13.377 26.094 13 25.588 13 25c0-2.9 3.134-5.25 7-5.25s7 2.35 7 5.25c0 .588-.377 1.094-.894 1.374A12.775 12.775 0 0 1 20 27.917c-2.21 0-4.29-.56-6.106-1.543Z" clip-rule="evenodd" style="fill:#80e9ff"/><path fill-rule="evenodd" d="M20 8a4 4 0 1 0 0-8 4 4 0 0 0 0 8Zm0 32a4 4 0 1 0 0-8 4 4 0 0 0 0 8ZM10 28a4 4 0 1 1-8 0 4 4 0 0 1 8 0ZM6 16a4 4 0 1 0 0-8 4 4 0 0 0 0 8Zm32-4a4 4 0 1 1-8 0 4 4 0 0 1 8 0Zm-4 20a4 4 0 1 0 0-8 4 4 0 0 0 0 8Z" clip-rule="evenodd" style="fill:#7a73ff"/><g clip-path="url(#a)"><path fill-rule="evenodd" d="M20 8a4 4 0 1 0 0-8 4 4 0 0 0 0 8Zm0 32a4 4 0 1 0 0-8 4 4 0 0 0 0 8ZM10 28a4 4 0 1 1-8 0 4 4 0 0 1 8 0ZM6 16a4 4 0 1 0 0-8 4 4 0 0 0 0 8Zm32-4a4 4 0 1 1-8 0 4 4 0 0 1 8 0Zm-4 20a4 4 0 1 0 0-8 4 4 0 0 0 0 8Z" clip-rule="evenodd" style="fill:#0048e5"/></g></svg>