<svg xmlns="http://www.w3.org/2000/svg" fill="none" class="Icon" style="width:40px" viewBox="0 0 40 40"><defs><clipPath id="a"><path fill-rule="evenodd" d="M17 8c8.837 0 16 7.163 16 16 0 5.087-2.374 9.62-6.074 12.55-.888-3.31-4.994-5.813-9.926-5.813s-9.038 2.502-9.927 5.812A15.972 15.972 0 0 1 1 24C1 15.163 8.163 8 17 8Zm0 10a5 5 0 1 0 0 10 5 5 0 0 0 0-10Z" clip-rule="evenodd"/></clipPath></defs><path fill-rule="evenodd" d="M17 8c8.837 0 16 7.163 16 16 0 5.087-2.374 9.62-6.074 12.55-.888-3.31-4.994-5.813-9.926-5.813s-9.038 2.502-9.927 5.812A15.972 15.972 0 0 1 1 24C1 15.163 8.163 8 17 8Zm0 10a5 5 0 1 0 0 10 5 5 0 0 0 0-10Z" clip-rule="evenodd" style="fill:#80e9ff"/><path fill-rule="evenodd" d="M30 3a9 9 0 1 1 0 18 9 9 0 0 1 0-18Zm3.94 4.73L28 13.78 26.43 12a.83.83 0 0 0-1.3 1L27 16.2a1 1 0 0 0 1.7 0c.3-.41 6-7.57 6-7.57.75-.8-.16-1.51-.76-.9Z" clip-rule="evenodd" style="fill:#7a73ff"/><g clip-path="url(#a)"><path fill-rule="evenodd" d="M30 3a9 9 0 1 1 0 18 9 9 0 0 1 0-18Zm3.94 4.73L28 13.78 26.43 12a.83.83 0 0 0-1.3 1L27 16.2a1 1 0 0 0 1.7 0c.3-.41 6-7.57 6-7.57.75-.8-.16-1.51-.76-.9Z" clip-rule="evenodd" style="fill:#0048e5"/></g></svg>