<svg xmlns="http://www.w3.org/2000/svg" class="Icon" style="width:40px" viewBox="0 0 39 37"><defs><clipPath id="a"><path d="m1.55 35.68 12.32-6.4a1 1 0 0 0 .44-.45L24.8 6.7a1 1 0 0 1 1.56-.33l12.3 10.64a1 1 0 0 1 .34.76V33a4 4 0 0 1-4 4H1.87a.7.7 0 0 1-.32-1.32z"/></clipPath></defs><path fill="#80e9ff" d="m1.55 35.68 12.32-6.4a1 1 0 0 0 .44-.45L24.8 6.7a1 1 0 0 1 1.56-.33l12.3 10.64a1 1 0 0 1 .34.76V33a4 4 0 0 1-4 4H1.87a.7.7 0 0 1-.32-1.32z"/><path fill="#7a73ff" d="M.76 34.6 12.1 19.26a1 1 0 0 1 1.09-.37l11.65 3.4a1 1 0 0 0 1.17-.5L37.1.6a1 1 0 0 1 1.89.46V33a4 4 0 0 1-4 4H1.97a1.5 1.5 0 0 1-1.2-2.4z"/><g clip-path="url(#a)"><path fill="#0048e5" d="M.76 34.6 12.1 19.26a1 1 0 0 1 1.09-.37l11.65 3.4a1 1 0 0 0 1.17-.5L37.1.6a1 1 0 0 1 1.89.46V33a4 4 0 0 1-4 4H1.97a1.5 1.5 0 0 1-1.2-2.4z"/></g></svg>