<svg xmlns="http://www.w3.org/2000/svg" class="Icon" style="width:32px" viewBox="0 0 30 36"><defs><clipPath id="a"><path d="m17.338 19.548 11.693 6.626c1.292.732 1.292 1.919 0 2.65l-11.693 6.627a5.254 5.254 0 0 1-4.676 0L.969 28.827c-1.292-.731-1.292-1.918 0-2.65l11.693-6.627a5.255 5.255 0 0 1 4.676-.002zm0-19 11.693 6.626c1.292.732 1.292 1.919 0 2.65l-11.693 6.627a5.254 5.254 0 0 1-4.676 0L.969 9.827c-1.292-.731-1.292-1.918 0-2.65L12.662.55a5.255 5.255 0 0 1 4.676-.002z"/></clipPath></defs><path d="m17.338 19.548 11.693 6.626c1.292.732 1.292 1.919 0 2.65l-11.693 6.627a5.254 5.254 0 0 1-4.676 0L.969 28.827c-1.292-.731-1.292-1.918 0-2.65l11.693-6.627a5.255 5.255 0 0 1 4.676-.002zm0-19 11.693 6.626c1.292.732 1.292 1.919 0 2.65l-11.693 6.627a5.254 5.254 0 0 1-4.676 0L.969 9.827c-1.292-.731-1.292-1.918 0-2.65L12.662.55a5.255 5.255 0 0 1 4.676-.002z" style="fill:#80e9ff"/><path d="m17.338 10.548 11.693 6.626c1.292.732 1.292 1.919 0 2.65l-11.693 6.627a5.254 5.254 0 0 1-4.676 0L.969 19.827c-1.292-.731-1.292-1.918 0-2.65l11.693-6.627a5.255 5.255 0 0 1 4.676-.002z" style="fill:#7a73ff"/><g clip-path="url(#a)"><path d="m17.338 10.548 11.693 6.626c1.292.732 1.292 1.919 0 2.65l-11.693 6.627a5.254 5.254 0 0 1-4.676 0L.969 19.827c-1.292-.731-1.292-1.918 0-2.65l11.693-6.627a5.255 5.255 0 0 1 4.676-.002z" style="fill:#0048e5"/></g></svg>