<svg xmlns="http://www.w3.org/2000/svg" class="Icon" style="width:32px" viewBox="0 0 40 40"><defs><clipPath id="a"><path d="M37 0a2 2 0 0 1 2 2v36a2 2 0 0 1-2 2h-3v-8a1 1 0 0 0-1-1h-3a1 1 0 0 0-1 1v8H18a2 2 0 0 1-2-2V2a2 2 0 0 1 2-2h19zM25 20h-3a1 1 0 0 0-1 1v3a1 1 0 0 0 1 1h3a1 1 0 0 0 1-1v-3a1 1 0 0 0-1-1zm8 0h-3a1 1 0 0 0-1 1v3a1 1 0 0 0 1 1h3a1 1 0 0 0 1-1v-3a1 1 0 0 0-1-1zm0-8h-3a1 1 0 0 0-1 1v3a1 1 0 0 0 1 1h3a1 1 0 0 0 1-1v-3a1 1 0 0 0-1-1zm-8 0h-3a1 1 0 0 0-1 1v3a1 1 0 0 0 1 1h3a1 1 0 0 0 1-1v-3a1 1 0 0 0-1-1zm0-8h-3a1 1 0 0 0-1 1v3a1 1 0 0 0 1 1h3a1 1 0 0 0 1-1V5a1 1 0 0 0-1-1zm8 0h-3a1 1 0 0 0-1 1v3a1 1 0 0 0 1 1h3a1 1 0 0 0 1-1V5a1 1 0 0 0-1-1z"/></clipPath></defs><path d="M37 0a2 2 0 0 1 2 2v36a2 2 0 0 1-2 2h-3v-8a1 1 0 0 0-1-1h-3a1 1 0 0 0-1 1v8H18a2 2 0 0 1-2-2V2a2 2 0 0 1 2-2h19zM25 20h-3a1 1 0 0 0-1 1v3a1 1 0 0 0 1 1h3a1 1 0 0 0 1-1v-3a1 1 0 0 0-1-1zm8 0h-3a1 1 0 0 0-1 1v3a1 1 0 0 0 1 1h3a1 1 0 0 0 1-1v-3a1 1 0 0 0-1-1zm0-8h-3a1 1 0 0 0-1 1v3a1 1 0 0 0 1 1h3a1 1 0 0 0 1-1v-3a1 1 0 0 0-1-1zm-8 0h-3a1 1 0 0 0-1 1v3a1 1 0 0 0 1 1h3a1 1 0 0 0 1-1v-3a1 1 0 0 0-1-1zm0-8h-3a1 1 0 0 0-1 1v3a1 1 0 0 0 1 1h3a1 1 0 0 0 1-1V5a1 1 0 0 0-1-1zm8 0h-3a1 1 0 0 0-1 1v3a1 1 0 0 0 1 1h3a1 1 0 0 0 1-1V5a1 1 0 0 0-1-1z" style="fill:#80e9ff"/><path d="M22.954 12.057a2 2 0 0 1 .046.424V38a2 2 0 0 1-2 2H2a2 2 0 0 1-2-2V16.612a2 2 0 0 1 1.575-1.954l19-4.13a2 2 0 0 1 2.38 1.529zM17 28h-3a1 1 0 0 0-1 1v3a1 1 0 0 0 1 1h3a1 1 0 0 0 1-1v-3a1 1 0 0 0-1-1zm-8 0H6a1 1 0 0 0-1 1v3a1 1 0 0 0 1 1h3a1 1 0 0 0 1-1v-3a1 1 0 0 0-1-1zm0-8H6a1 1 0 0 0-1 1v3a1 1 0 0 0 1 1h3a1 1 0 0 0 1-1v-3a1 1 0 0 0-1-1zm8 0h-3a1 1 0 0 0-1 1v3a1 1 0 0 0 1 1h3a1 1 0 0 0 1-1v-3a1 1 0 0 0-1-1z" style="fill:#7a73ff"/><g clip-path="url(#a)"><path d="M22.954 12.057a2 2 0 0 1 .046.424V38a2 2 0 0 1-2 2H2a2 2 0 0 1-2-2V16.612a2 2 0 0 1 1.575-1.954l19-4.13a2 2 0 0 1 2.38 1.529zM17 28h-3a1 1 0 0 0-1 1v3a1 1 0 0 0 1 1h3a1 1 0 0 0 1-1v-3a1 1 0 0 0-1-1zm-8 0H6a1 1 0 0 0-1 1v3a1 1 0 0 0 1 1h3a1 1 0 0 0 1-1v-3a1 1 0 0 0-1-1zm0-8H6a1 1 0 0 0-1 1v3a1 1 0 0 0 1 1h3a1 1 0 0 0 1-1v-3a1 1 0 0 0-1-1zm8 0h-3a1 1 0 0 0-1 1v3a1 1 0 0 0 1 1h3a1 1 0 0 0 1-1v-3a1 1 0 0 0-1-1z" style="fill:#0048e5"/></g></svg>