<svg xmlns="http://www.w3.org/2000/svg" class="Icon" style="width:40px" viewBox="0 0 40 36"><defs><clipPath id="a"><path d="M11.65 9.52a2 2 0 0 1 2.7 0l11 10a2 2 0 1 1-2.7 2.96L15 15.52V34a2 2 0 1 1-4 0V15.52l-7.65 6.96a2 2 0 0 1-2.7-.01l-.13-.12a2 2 0 0 1 .13-2.83z"/></clipPath></defs><path fill="#80e9ff" d="M11.65 9.52a2 2 0 0 1 2.7 0l11 10a2 2 0 1 1-2.7 2.96L15 15.52V34a2 2 0 1 1-4 0V15.52l-7.65 6.96a2 2 0 0 1-2.7-.01l-.13-.12a2 2 0 0 1 .13-2.83z"/><path fill="#7a73ff" d="M27 0a2 2 0 0 1 2 2v17.23l7.65-6.96a2 2 0 1 1 2.7 2.96l-11 10a2 2 0 0 1-2.7 0l-11-10a2 2 0 0 1 2.7-2.96L25 19.23V2c0-1.1.9-2 2-2z"/><g clip-path="url(#a)"><path fill="#0048e5" d="M27 0a2 2 0 0 1 2 2v17.23l7.65-6.96a2 2 0 1 1 2.7 2.96l-11 10a2 2 0 0 1-2.7 0l-11-10a2 2 0 0 1 2.7-2.96L25 19.23V2c0-1.1.9-2 2-2z"/></g></svg>