<?xml version="1.0" encoding="utf-8"?>
<!-- Generator: Adobe Illustrator 26.3.1, SVG Export Plug-In . SVG Version: 6.00 Build 0)  -->
<svg version="1.1" id="Calque_1" xmlns="http://www.w3.org/2000/svg" xmlns:xlink="http://www.w3.org/1999/xlink" x="0px" y="0px"
	 viewBox="0 0 681 681" style="enable-background:new 0 0 681 681;" xml:space="preserve">
<style type="text/css">
	.st0{fill-rule:evenodd;clip-rule:evenodd;fill:url(#SVGID_1_);}
	.st1{fill-rule:evenodd;clip-rule:evenodd;fill:url(#SVGID_00000179645046822084919040000010332959864272587925_);}
	.st2{fill-rule:evenodd;clip-rule:evenodd;fill:url(#SVGID_00000083789342557088624730000012332184475787034786_);}
</style>
<g>
	<linearGradient id="SVGID_1_" gradientUnits="userSpaceOnUse" x1="112.5165" y1="540.4556" x2="525.8616" y2="540.4556">
		<stop  offset="0" style="stop-color:#EF10FF"/>
		<stop  offset="0.5092" style="stop-color:#59efb2"/>
		<stop  offset="0.5542" style="stop-color:#770BFF"/>
		<stop  offset="0.6331" style="stop-color:#6828FF"/>
		<stop  offset="0.7366" style="stop-color:#4F57FF"/>
		<stop  offset="0.8606" style="stop-color:#2C99FF"/>
		<stop  offset="1" style="stop-color:#00EBFF"/>
	</linearGradient>
	<path class="st0" d="M558,442.7c-23.6-19.3-59.5-25.8-98.5-17.8c-43.7,8.9-69.3,57.5-94,104.5c-14.6,27.8-28.4,54.1-44.4,68.9
		c-0.1,0.1-0.2,0.2-0.3,0.3c-23.2,23.2-54.2,36-87.3,36s-64.1-12.8-87.3-36c-3.8-3.8-7.3-7.8-10.6-12c-4.2-5.5-12-6.5-17.5-2.3
		c-5.5,4.2-6.5,12-2.3,17.5c3.9,5.1,8.2,9.9,12.7,14.5c27.9,27.9,65.2,43.3,105,43.3c39.7,0,76.9-15.3,104.8-43.2
		c18.9-17.7,33.7-45.7,49.3-75.4c22-41.8,44.8-85.1,76.9-91.6c31.6-6.5,59.9-1.8,77.7,12.7c12.8,10.5,19.6,25.8,19.6,44.4
		c0,42.7-16.6,65.4-52.1,71.5c-6.8,1.2-11.3,7.6-10.2,14.4c1.2,6.8,7.6,11.3,14.4,10.2c33.2-5.7,72.8-27.1,72.8-96.1
		C586.7,480.1,576.8,458,558,442.7z"/>
	
		<linearGradient id="SVGID_00000114032075278401432370000014829956492229626799_" gradientUnits="userSpaceOnUse" x1="112.5165" y1="266.6895" x2="525.8616" y2="266.6895">
		<stop  offset="0" style="stop-color:#EF10FF"/>
		<stop  offset="0.5092" style="stop-color:#59efb2"/>
		<stop  offset="0.5542" style="stop-color:#770BFF"/>
		<stop  offset="0.6331" style="stop-color:#6828FF"/>
		<stop  offset="0.7366" style="stop-color:#4F57FF"/>
		<stop  offset="0.8606" style="stop-color:#2C99FF"/>
		<stop  offset="1" style="stop-color:#00EBFF"/>
	</linearGradient>
	<path style="fill-rule:evenodd;clip-rule:evenodd;fill:url(#SVGID_00000114032075278401432370000014829956492229626799_);" d="
		M98.1,512.4c6.4,0,11.9-4.9,12.4-11.5c2.4-29.2,15-56.6,35.6-77.1l22.1-22.1l344-112.1c0.1,0,0.1-0.1,0.2-0.1
		c0.1-0.1,0.3-0.1,0.4-0.2c0.1,0,0.2-0.1,0.4-0.2c0.3-0.1,0.6-0.3,1-0.5c0.2-0.1,0.4-0.2,0.6-0.3c0.3-0.2,0.6-0.4,0.9-0.6
		c0.2-0.1,0.4-0.3,0.5-0.4c0.3-0.2,0.6-0.5,0.8-0.7c0.1-0.1,0.3-0.3,0.4-0.4c0.4-0.4,0.7-0.8,1-1.2c0,0,0.1-0.1,0.1-0.1
		c0.3-0.5,0.6-0.9,0.9-1.4c0.1-0.2,0.1-0.3,0.2-0.5c0.2-0.4,0.3-0.7,0.5-1.1c0.1-0.2,0.1-0.4,0.2-0.7c0.1-0.2,0.2-0.5,0.2-0.7
		c0-0.1,0-0.2,0.1-0.3c0-0.2,0.1-0.5,0.1-0.7c0.1-0.4,0.1-0.7,0.1-1c0-0.1,0-0.2,0-0.3L531.3,34c0,0,0,0,0,0c0-0.2,0-0.5,0-0.7
		c0-0.1,0-0.2,0-0.2c0-0.3,0-0.5-0.1-0.8c0-0.1,0-0.1,0-0.2c0-0.2-0.1-0.5-0.1-0.7c0-0.1,0-0.1,0-0.2c0-0.1-0.1-0.2-0.1-0.3
		c0-0.2-0.1-0.4-0.1-0.6c0-0.1,0-0.1-0.1-0.2c-0.1-0.2-0.1-0.4-0.2-0.7c0-0.1-0.1-0.2-0.1-0.3c-0.1-0.2-0.2-0.4-0.2-0.6c0,0,0,0,0,0
		c0-0.1-0.1-0.2-0.2-0.3c-0.1-0.2-0.2-0.3-0.2-0.5c-0.1-0.1-0.2-0.3-0.2-0.4s-0.2-0.3-0.2-0.4c-0.1-0.1-0.2-0.3-0.3-0.4
		c-0.1-0.1-0.2-0.3-0.3-0.4c-0.1-0.1-0.2-0.2-0.3-0.4c-0.1-0.1-0.2-0.2-0.3-0.4c-0.1-0.1-0.2-0.2-0.3-0.3c-0.1-0.1-0.2-0.2-0.3-0.4
		c-0.1-0.1-0.2-0.2-0.3-0.3c-0.1-0.1-0.3-0.2-0.4-0.4c-0.1-0.1-0.2-0.2-0.3-0.2c-0.1-0.1-0.3-0.2-0.4-0.3c-0.1-0.1-0.2-0.1-0.3-0.2
		c-0.2-0.1-0.3-0.2-0.5-0.3c-0.1-0.1-0.3-0.1-0.4-0.2c-0.1-0.1-0.3-0.2-0.4-0.2c-0.2-0.1-0.3-0.2-0.5-0.2c-0.1,0-0.2-0.1-0.3-0.1
		c0,0,0,0,0,0c-0.2-0.1-0.5-0.2-0.7-0.3c0,0-0.1,0-0.1,0c-1.1-0.4-2.3-0.6-3.5-0.7c-0.1,0-0.1,0-0.2,0c-0.2,0-0.3,0-0.5,0
		c-0.2,0-0.3,0-0.5,0c0,0,0,0,0,0L274,31.5c-0.1,0-0.2,0-0.3,0c-0.3,0-0.7,0.1-1,0.1c-0.2,0-0.5,0.1-0.7,0.1c-0.1,0-0.2,0-0.3,0
		c-0.2,0.1-0.5,0.1-0.7,0.2c-0.2,0.1-0.4,0.1-0.7,0.2c-0.4,0.1-0.7,0.3-1.1,0.5c-0.2,0.1-0.3,0.1-0.5,0.2c-0.5,0.3-1,0.6-1.4,0.9
		c0,0-0.1,0.1-0.1,0.1c-0.4,0.3-0.8,0.6-1.2,1c-0.1,0.1-0.3,0.3-0.4,0.4c-0.3,0.3-0.5,0.5-0.7,0.8c-0.1,0.2-0.3,0.4-0.4,0.5
		c-0.2,0.3-0.4,0.6-0.6,0.9c-0.1,0.2-0.2,0.4-0.3,0.6c-0.2,0.3-0.3,0.6-0.5,1c-0.1,0.1-0.1,0.2-0.2,0.4c0,0.1-0.1,0.2-0.1,0.3
		c0,0.1-0.1,0.2-0.1,0.4L150.6,384l-22.1,22.1c-24.7,24.7-39.9,57.7-42.8,92.7c-0.6,6.9,4.6,12.9,11.4,13.4
		C97.4,512.4,97.8,512.4,98.1,512.4z M409.1,160.8L505,64.9l-7.9,183.9L409.1,160.8z M207.1,362.8l184.3-184.3l93.7,93.7
		L207.1,362.8z M487.4,47.3l-95.9,95.9l-88-88L487.4,47.3z M280.1,67.1l93.7,93.7L189.5,345.1L280.1,67.1z"/>
	
		<linearGradient id="SVGID_00000054966764746401018700000008013617446461780619_" gradientUnits="userSpaceOnUse" x1="112.5165" y1="549.5502" x2="525.8616" y2="549.5502">
		<stop  offset="0" style="stop-color:#EF10FF"/>
		<stop  offset="0.5092" style="stop-color:#59efb2"/>
		<stop  offset="0.5542" style="stop-color:#770BFF"/>
		<stop  offset="0.6331" style="stop-color:#6828FF"/>
		<stop  offset="0.7366" style="stop-color:#4F57FF"/>
		<stop  offset="0.8606" style="stop-color:#2C99FF"/>
		<stop  offset="1" style="stop-color:#00EBFF"/>
	</linearGradient>
	<path style="fill-rule:evenodd;clip-rule:evenodd;fill:url(#SVGID_00000054966764746401018700000008013617446461780619_);" d="
		M103.1,537.1c-6.9,0-12.5,5.6-12.5,12.5c0,6.9,5.6,12.5,12.5,12.5c6.9,0,12.5-5.6,12.5-12.5C115.6,542.7,110,537.1,103.1,537.1z"/>
</g>
</svg>
